<svg width="114" height="114" viewBox="0 0 114 114" fill="none" xmlns="http://www.w3.org/2000/svg">
<path d="M112.241 22.7953H102.959C103.229 22.4167 103.473 22.019 103.687 21.6021C104.915 19.2017 105.082 16.3748 104.143 13.8455L101.33 6.28047C100.393 3.75385 98.4226 1.72246 95.9273 0.707635C93.4294 -0.308062 90.6 -0.227119 88.1638 0.930444L65.9033 11.5095C64.803 10.7227 63.4575 10.258 62.005 10.258H51.9958C50.5434 10.258 49.197 10.7236 48.0967 11.5104L25.837 0.929573C23.4008 -0.227119 20.5715 -0.308062 18.0736 0.707635C15.5782 1.72246 13.6082 3.75385 12.6706 6.2796L9.85783 13.8464C8.91936 16.3748 9.08549 19.2017 10.3145 21.6021C10.5275 22.019 10.7728 22.4176 11.0424 22.7953H1.75952C0.788 22.7953 0 23.583 0 24.556V37.2309C0 38.2031 0.788 38.9916 1.75952 38.9916C2.73104 38.9916 3.51904 38.2031 3.51904 37.2309V26.3159H15.74C15.9357 26.3846 16.134 26.4482 16.3349 26.5039L31.106 30.5728C27.8235 35.606 24.9281 40.9003 22.4493 46.3861H3.51904V44.2729C3.51904 43.3007 2.73104 42.5131 1.75952 42.5131C0.788 42.5131 0 43.3007 0 44.2729V48.1468C0 49.119 0.788 49.9076 1.75952 49.9076H8.03395V112.239C8.03395 113.212 8.82195 114 9.79347 114H104.207C105.179 114 105.967 113.212 105.967 112.239V102.016C105.967 101.044 105.179 100.255 104.207 100.255C103.235 100.255 102.448 101.044 102.448 102.016V110.479H67.5558V50.9903C72.5395 60.4362 75.9133 70.7071 77.4658 81.3193C77.5685 82.0217 78.0834 82.5935 78.7713 82.7693C78.9157 82.8067 79.0618 82.8241 79.2071 82.8241C79.7507 82.8241 80.2743 82.5717 80.6117 82.1235C83.141 78.7657 85.4928 75.1712 87.6159 71.4182C91.1715 73.8413 94.6235 76.5428 97.899 79.4672C98.4513 79.9598 99.2533 80.0547 99.9047 79.7031C100.556 79.3523 100.919 78.6308 100.811 77.898C99.4063 68.3093 96.7875 58.88 93.0754 49.9076H102.447V94.9733C102.447 95.9464 103.235 96.734 104.207 96.734C105.179 96.734 105.966 95.9464 105.966 94.9733V49.9076H112.241C113.213 49.9076 114 49.119 114 48.1468V24.556C114.001 23.583 113.214 22.7953 112.241 22.7953ZM89.6729 4.1107C91.2428 3.36568 92.9927 3.3152 94.6027 3.9697C96.21 4.62333 97.4276 5.87924 98.0321 7.50767L100.844 15.0719C101.449 16.7012 101.346 18.4506 100.554 19.9972C99.7638 21.5429 98.4061 22.6482 96.7327 23.1087L68.7256 30.8243V22.3628C75.0209 18.5054 90.7149 10.5495 94.6209 16.0667C95.1819 16.8596 96.2796 17.0484 97.0728 16.4862C97.866 15.9239 98.0539 14.8247 97.492 14.0318C94.4774 9.77318 88.1247 9.56604 78.6087 13.4173C74.6887 15.0031 71.0696 16.9388 68.7256 18.2817V16.9823C68.7256 16.0397 68.5299 15.1415 68.1786 14.326L89.6729 4.1107ZM51.9958 13.7785H62.005C63.7706 13.7785 65.2066 15.2163 65.2066 16.9823V31.5354C65.2066 33.3022 63.7706 34.7391 62.005 34.7391H51.9958C50.2302 34.7391 48.7943 33.3022 48.7943 31.5354V16.9823C48.7943 15.2155 50.2302 13.7785 51.9958 13.7785ZM49.0387 46.3853C50.7217 43.5871 52.5534 40.8751 54.5242 38.2606H59.4749C61.4466 40.8751 63.2783 43.5871 64.9605 46.3853H49.0387ZM13.4465 19.9972C12.655 18.4506 12.5515 16.7012 13.156 15.0727L15.9696 7.5068C16.5732 5.87924 17.7909 4.62333 19.3982 3.9697C21.0073 3.3152 22.7581 3.36568 24.3271 4.1107L45.8223 14.3277C45.4709 15.1424 45.2752 16.0397 45.2752 16.9831V18.3827C42.9391 17.0371 39.2382 15.044 35.2182 13.4173C25.7031 9.56604 19.3495 9.77318 16.3349 14.0318C15.7731 14.8247 15.9609 15.9239 16.7541 16.4862C17.5474 17.0484 18.645 16.8604 19.206 16.0667C23.1486 10.4973 39.1008 18.656 45.2752 22.4698V30.8243L17.269 23.1095C15.5948 22.6482 14.2371 21.5429 13.4465 19.9972ZM46.065 34.6939C46.9408 36.3336 48.4751 37.5704 50.3129 38.0464C42.0841 49.535 36.4194 62.7356 33.7623 76.6107C31.8931 73.8778 30.1458 71.0135 28.5463 68.0552C28.3123 67.6217 27.9088 67.3067 27.4313 67.1857C26.9547 67.0647 26.4493 67.1492 26.0379 67.4181C23.1077 69.3302 20.2384 71.4278 17.4673 73.6802C20.321 58.6911 26.2171 44.2381 34.672 31.5554L46.065 34.6939ZM11.553 49.9076H20.9255C17.2134 58.88 14.5945 68.3085 13.189 77.898C13.082 78.6308 13.4438 79.3523 14.0953 79.7031C14.7476 80.0538 15.5487 79.9598 16.101 79.4672C19.3765 76.5428 22.8285 73.8413 26.385 71.4182C28.508 75.1712 30.859 78.7648 33.3891 82.1235C33.7266 82.5717 34.2502 82.825 34.7938 82.825C34.939 82.825 35.0852 82.8067 35.2295 82.7693C35.9175 82.5935 36.4315 82.0217 36.5342 81.3193C38.0876 70.7071 41.4613 60.4353 46.4442 50.9894V110.479H11.553V49.9076ZM49.9632 110.479V49.9076H64.0376V110.479H49.9632ZM87.9629 67.4181C87.5515 67.1492 87.0453 67.0656 86.5696 67.1866C86.093 67.3076 85.6885 67.6226 85.4546 68.0552C83.8551 71.0135 82.1077 73.8787 80.2386 76.6107C77.5815 62.7347 71.9168 49.535 63.6871 38.0473C65.5249 37.5721 67.0601 36.3345 67.9359 34.6939L79.3315 31.5545C87.7846 44.2398 93.6807 58.6928 96.5344 73.6802C93.7625 71.4278 90.8932 69.3302 87.9629 67.4181ZM110.482 46.3861H91.5524C89.0736 40.9003 86.1782 35.606 82.8966 30.5728L97.666 26.5039C97.8669 26.4482 98.0652 26.3846 98.2609 26.3159H110.482V46.3861Z" fill="#ED586A"/>
</svg>
