<svg width="78" height="80" viewBox="0 0 78 80" fill="none" xmlns="http://www.w3.org/2000/svg">
<path d="M24.0549 38.0164C21.7716 38.0164 19.9141 39.8297 19.9141 42.0581C19.9141 44.2859 21.7716 46.0992 24.0549 46.0992C26.3382 46.0992 28.1951 44.2859 28.1951 42.0581C28.1951 39.8297 26.3375 38.0164 24.0549 38.0164ZM24.0549 43.4913C23.1978 43.4913 22.5011 42.8482 22.5011 42.0581C22.5011 41.2673 23.1984 40.6243 24.0549 40.6243C24.9114 40.6243 25.608 41.2673 25.608 42.0581C25.608 42.8482 24.9114 43.4913 24.0549 43.4913Z" fill="#2BAAE1"/>
<path d="M49.6021 40.821H32.356C31.6417 40.821 31.0625 41.4049 31.0625 42.125C31.0625 42.8451 31.6417 43.4289 32.356 43.4289H49.6021C50.3165 43.4289 50.8957 42.8451 50.8957 42.125C50.8957 41.4049 50.3165 40.821 49.6021 40.821Z" fill="#2BAAE1"/>
<path d="M46 30H32.2935C31.5792 30 31 30.5838 31 31.304C31 32.0241 31.5792 32.6079 32.2935 32.6079H46C46.7143 32.6079 47.2935 32.0241 47.2935 31.304C47.2935 30.5838 46.7143 30 46 30Z" fill="#2BAAE1"/>
<path d="M24.0549 26.6826C21.7716 26.6826 19.9141 28.4953 19.9141 30.7237C19.9141 32.9521 21.7716 34.7648 24.0549 34.7648C26.3382 34.7648 28.1951 32.9521 28.1951 30.7237C28.1951 28.4953 26.3375 26.6826 24.0549 26.6826ZM24.0549 32.1569C23.1978 32.1569 22.5011 31.5145 22.5011 30.7237C22.5011 29.9336 23.1984 29.2905 24.0549 29.2905C24.9114 29.2905 25.608 29.9336 25.608 30.7237C25.608 31.5145 24.9114 32.1569 24.0549 32.1569Z" fill="#2BAAE1"/>
<path d="M24.0549 49.3508C21.7716 49.3508 19.9141 51.1635 19.9141 53.3919C19.9141 55.6204 21.7716 57.433 24.0549 57.433C26.3382 57.433 28.1951 55.621 28.1951 53.3919C28.1951 51.1629 26.3375 49.3508 24.0549 49.3508ZM24.0549 54.8251C23.1978 54.8251 22.5011 54.1827 22.5011 53.3919C22.5011 52.6018 23.1984 51.9587 24.0549 51.9587C24.9114 51.9587 25.608 52.6018 25.608 53.3919C25.608 54.1827 24.9114 54.8251 24.0549 54.8251Z" fill="#2BAAE1"/>
<path d="M49.6021 52.0676H32.356C31.6417 52.0676 31.0625 52.6514 31.0625 53.3715C31.0625 54.0916 31.6417 54.6755 32.356 54.6755H49.6021C50.3165 54.6755 50.8957 54.0916 50.8957 53.3715C50.8957 52.6514 50.3165 52.0676 49.6021 52.0676Z" fill="#2BAAE1"/>
<path fill-rule="evenodd" clip-rule="evenodd" d="M47.4806 15.72H11.981C11.273 15.7136 10.6938 16.2873 10.6875 17.001L10.3805 62.6622H1.22848C0.51413 62.6622 0 63.2747 0 63.9948V69.7887C0.0101057 75.2579 4.28168 79.7536 9.70152 80V79.9395H49.6394V79.9923C49.8011 80.0044 49.9874 79.9395 50.1858 79.9395H50.2306C52.9036 79.9535 55.4717 78.8909 57.364 76.9878C59.2563 75.0853 60.3174 72.4997 60.3111 69.8052V40.006H57.724V69.7689V69.7861C57.7354 71.7924 56.949 73.7196 55.5412 75.1369C54.1333 76.5548 52.2208 77.3456 50.2306 77.3316H50.2041C48.2088 77.3443 46.2919 76.5523 44.8796 75.1318C43.4674 73.7107 42.6778 71.7796 42.6867 69.7689V63.9948C42.6703 63.2613 42.0816 62.6723 41.3534 62.6622H12.9676L13.2644 18.3279H47.1831L47.4806 15.72ZM10.0874 77.3316H10.0956L43.4433 77.3322C43.3012 77.3322 43.1812 77.1087 43.0454 76.9719C41.1449 75.0662 40.0838 72.4711 40.0996 69.7689V65.2701H2.58707V69.7861C2.57697 71.793 3.36458 73.7203 4.7737 75.1382C6.18345 76.5555 8.0966 77.3456 10.0874 77.3316Z" fill="#2BAAE1"/>
<path fill-rule="evenodd" clip-rule="evenodd" d="M74.2231 10.6672C74.8775 10.6602 75.4314 11.1511 75.5084 11.8062L77.9616 33.2876C78.1561 34.9622 77.6205 36.6392 76.4931 37.8852C75.2697 39.2477 73.5271 40.0194 71.7042 40.006H60.3119H57.7248H51.734C49.9112 40.0188 48.1692 39.2465 46.9458 37.8839C45.8184 36.636 45.2821 34.9571 45.4767 33.2806L45.6201 32.0194L45.9175 29.4115L47.1839 18.3279L47.4814 15.72L47.9298 11.8056C48.0069 11.1511 48.5608 10.6595 49.2152 10.6672H53.1975V8.35852C53.1975 3.74886 57.1393 0 61.9288 0C66.7177 0 70.6602 3.74949 70.6602 8.35852V10.6672H74.2231ZM74.5618 36.1496C73.8298 36.9576 72.7895 37.4115 71.7044 37.3981H51.7355C50.6498 37.4115 49.6101 36.9576 48.8775 36.1502C48.2452 35.46 47.942 34.5266 48.0482 33.5939L50.3681 13.2751H53.1977V15.1476C53.1977 15.8677 53.7768 16.4515 54.4912 16.4515C55.2055 16.4515 55.7847 15.8677 55.7847 15.1476V13.2751H68.0733V15.1476C68.0733 15.8677 68.6525 16.4515 69.3669 16.4515C70.0812 16.4515 70.6604 15.8677 70.6604 15.1476V13.2751H73.0694L75.3905 33.5939C75.4966 34.5266 75.1941 35.4601 74.5618 36.1496ZM68.0733 10.6672V8.35852C68.0733 5 65.292 2.5 61.9288 2.5C57.7248 2.5 55.7847 6.04987 55.7847 8.35852V10.6672H68.0733Z" fill="#F6364D"/>
</svg>
