<svg width="80" height="80" viewBox="0 0 80 80" fill="none" xmlns="http://www.w3.org/2000/svg">
<path d="M23.6954 34.6488L23.6924 34.7001C23.4954 38.178 25.4292 41.4362 28.6204 42.9982L28.6531 43.0144C29.7782 43.5565 30.7004 44.4504 31.2822 45.5618L31.2953 45.586C32.9033 48.6705 36.2291 50.5403 39.7745 50.3527L39.8284 50.3498C41.1142 50.2773 42.3905 50.6114 43.4785 51.3059C46.4807 53.1977 50.2916 53.1977 53.2937 51.3059C54.3817 50.6114 55.6581 50.2773 56.9439 50.3498L56.9977 50.3527C60.5373 50.5417 63.8675 48.6705 65.4791 45.5809L65.4871 45.564C66.0711 44.4496 66.9955 43.5543 68.1242 43.0114L68.1504 42.9982C71.3416 41.4355 73.2762 38.178 73.0783 34.6993L73.0754 34.651C73.01 33.426 73.3474 32.2134 74.0369 31.2016C76.0216 28.2856 76.0216 24.4406 74.0376 21.5238C73.3489 20.5128 73.01 19.3009 73.0754 18.0759L73.0783 18.0246C73.2762 14.546 71.3416 11.2885 68.1475 9.72502L68.1184 9.71037C66.9955 9.16966 66.0755 8.28021 65.4929 7.17168L65.4762 7.13871C63.8675 4.0542 60.5373 2.18517 56.9977 2.372L56.9432 2.37493C55.6581 2.44746 54.3817 2.11337 53.2945 1.4188H53.293C50.2908 -0.472935 46.4799 -0.472935 43.4778 1.4188C42.3898 2.11264 41.1134 2.44673 39.8276 2.3742L39.7738 2.37127C36.2335 2.18224 32.904 4.05347 31.296 7.13725L31.2837 7.15996C30.7011 8.27361 29.7782 9.16819 28.6517 9.7111L28.6211 9.72575C25.4299 11.2878 23.4954 14.546 23.6932 18.0246L23.6961 18.073C23.7615 19.298 23.4241 20.5106 22.7346 21.5216C20.7499 24.4384 20.7499 28.2841 22.7346 31.2001C23.4234 32.2112 23.7615 33.4238 23.6954 34.6488ZM25.1863 23.2258C26.2502 21.6653 26.7717 19.794 26.6699 17.9038L26.667 17.8525C26.5622 15.5475 27.8466 13.4067 29.92 12.4271L29.9455 12.4146C31.6466 11.594 33.0393 10.243 33.9178 8.56228L33.9324 8.53444C35.0007 6.48445 37.2385 5.24185 39.6153 5.36933L39.6676 5.37153C41.5694 5.47923 43.4567 4.98541 45.0654 3.95822C47.0967 2.67825 49.6741 2.67825 51.7054 3.95822C53.3141 4.98395 55.2014 5.4785 57.1024 5.37226L57.1548 5.36933C59.5431 5.24331 61.77 6.48445 62.8355 8.52858L62.8551 8.56594C63.7337 10.2445 65.1249 11.5933 66.8238 12.4132L66.8486 12.4256C68.9547 13.4572 70.2333 15.5871 70.1045 17.8532L70.1016 17.9067C69.9998 19.797 70.522 21.6674 71.586 23.228C72.8718 25.1176 72.8711 27.6086 71.5845 29.4974C70.5213 31.0587 69.9998 32.93 70.1016 34.8202L70.1045 34.8708C70.2333 37.1369 68.9547 39.2675 66.8478 40.2998L66.826 40.3101C65.1235 41.1321 63.7293 42.4846 62.85 44.1683L62.8391 44.1903C61.77 46.2403 59.5359 47.4836 57.1555 47.3554L57.1039 47.3525C55.2021 47.2455 53.3141 47.74 51.7046 48.7665C49.6741 50.0457 47.0967 50.0457 45.0661 48.7665C43.6029 47.8324 41.9054 47.3371 40.1731 47.3385C40.0051 47.3385 39.8364 47.3429 39.6676 47.3525L39.6153 47.3547C37.2698 47.5049 35.0509 46.2681 33.9302 44.1866L33.9149 44.158C33.0378 42.4802 31.6473 41.1321 29.9491 40.3123L29.9215 40.2984C27.8146 39.2668 26.5361 37.1362 26.6655 34.8708L26.6684 34.8173C26.7695 32.927 26.2473 31.0558 25.1841 29.496C23.899 27.6064 23.8997 25.1154 25.1863 23.2273V23.2258Z" fill="#F6364D"/>
<path d="M38.7754 41.8743C39.4728 42.3132 40.3914 42.0985 40.827 41.3959L58.4712 12.9202C58.7592 12.4652 58.7832 11.8893 58.5331 11.4123C58.2829 10.9346 57.7971 10.6299 57.2618 10.613C56.7265 10.5962 56.2233 10.8702 55.944 11.331L38.3005 39.8068C37.8648 40.5101 38.0772 41.4355 38.7754 41.8743Z" fill="#F6364D"/>
<path d="M40.3567 26.4364C43.9836 26.4364 46.9349 23.0463 46.9349 18.8797C46.9349 14.713 43.9836 11.3237 40.3567 11.3237C36.7298 11.3237 33.7793 14.713 33.7793 18.8797C33.7793 23.0463 36.7298 26.4364 40.3567 26.4364ZM40.3567 14.3247C42.3414 14.3247 43.956 16.3681 43.956 18.8797C43.956 21.3912 42.3414 23.4354 40.3567 23.4354C38.3727 23.4354 36.7582 21.3905 36.7582 18.8797C36.7582 16.3688 38.3727 14.3247 40.3567 14.3247Z" fill="#F6364D"/>
<path d="M49.8379 33.8465C49.8379 38.0132 52.7884 41.4025 56.4153 41.4025C60.0422 41.4025 62.9935 38.0125 62.9935 33.8465C62.9935 29.6813 60.0429 26.2906 56.416 26.2906C52.7884 26.2906 49.8379 29.6791 49.8379 33.8465ZM60.0146 33.8465C60.0146 36.3581 58.4 38.4015 56.4153 38.4015C54.4313 38.4015 52.8168 36.3581 52.8168 33.8465C52.8168 31.335 54.4313 29.2916 56.4153 29.2916C58.4 29.2916 60.0146 31.3335 60.0146 33.8465Z" fill="#F6364D"/>
<path d="M79.8066 58.763C77.8343 55.2367 73.4605 53.8937 69.8714 55.7122L58.2039 61.2658C56.593 58.2479 53.5028 56.3269 50.1021 56.2302L39.3313 55.9312C37.6258 55.8822 35.9524 55.4462 34.436 54.6579L33.34 54.0857C27.7284 51.1389 21.0397 51.1462 15.4339 54.1047L15.5023 51.6034C15.5248 50.7748 14.8768 50.0846 14.0543 50.0619L2.24347 49.7344C1.42093 49.7117 0.736567 50.3645 0.714021 51.1931L0.000570907 77.3045C-0.0219745 78.1332 0.626022 78.8233 1.44856 78.8461L13.2594 79.1736H13.3009C14.1074 79.1728 14.767 78.5259 14.7896 77.7141L14.823 76.4649L17.8914 74.8098C19.0957 74.157 20.5045 74.0017 21.8201 74.3768L40.1422 79.5575C40.1742 79.567 40.2062 79.5743 40.2389 79.5817C41.5632 79.8608 42.9131 80.0007 44.2665 80C47.1319 80.0015 49.9639 79.3794 52.5683 78.1749C52.6323 78.1456 52.6941 78.1119 52.753 78.0738L79.3187 60.7617C79.9812 60.3309 80.195 59.4539 79.8066 58.763ZM3.01946 75.8868L3.65073 52.7764L12.4841 53.0211L11.8521 76.1323L3.01946 75.8868ZM51.2257 75.4934C47.9901 76.9646 44.3763 77.3705 40.8985 76.6539L22.6252 71.4879C20.5692 70.9018 18.367 71.145 16.4856 72.1642L14.9176 73.0097L15.3379 57.6435C20.3059 54.3143 26.6782 53.9721 31.9698 56.7496L33.0658 57.3218C34.9815 58.3183 37.0949 58.8685 39.2498 58.9308L50.0206 59.2297C53.0461 59.3169 55.6155 61.487 56.2293 64.4734L40.1858 64.0287C39.3633 64.0059 38.6789 64.6587 38.6563 65.4874C38.6338 66.316 39.2818 67.0062 40.1043 67.0289L57.8097 67.5198H57.8519C58.6577 67.5191 59.3173 66.8721 59.3399 66.0603C59.358 65.4083 59.3093 64.7555 59.1959 64.1136L71.1609 58.4172L71.1958 58.4003C72.8932 57.5343 74.9463 57.8237 76.3419 59.1257L51.2257 75.4934Z" fill="#2BAAE1"/>
</svg>
