<svg width="84" height="80" viewBox="0 0 84 80" fill="none" xmlns="http://www.w3.org/2000/svg">
<path d="M25.4106 36.1369C23.0084 36.1369 21.0547 38.0294 21.0547 40.356C21.0547 42.6825 23.0084 44.575 25.4106 44.575C27.8128 44.575 29.7671 42.6825 29.7671 40.356C29.7671 38.0294 27.8128 36.1369 25.4106 36.1369ZM25.4106 41.8523C24.5088 41.8523 23.7765 41.1809 23.7765 40.356C23.7765 39.5304 24.5095 38.8596 25.4106 38.8596C26.3117 38.8596 27.0453 39.531 27.0453 40.356C27.0453 41.1809 26.3117 41.8523 25.4106 41.8523Z" fill="#F6364D"/>
<path d="M32.7832 40.35C32.7832 41.1018 33.3919 41.7114 34.1441 41.7114H52.288C53.0396 41.7114 53.649 41.1018 53.649 40.35C53.649 39.5982 53.0396 38.9886 52.288 38.9886H34.1441C33.3919 38.9886 32.7832 39.5982 32.7832 40.35Z" fill="#F6364D"/>
<path d="M25.3559 25C22.9537 25 21 26.8925 21 29.2191C21 31.5456 22.9537 33.4381 25.3559 33.4381C27.7581 33.4381 29.7125 31.5456 29.7125 29.2191C29.7125 26.8925 27.7581 25 25.3559 25ZM25.3559 30.7154C24.4541 30.7154 23.7219 30.044 23.7219 29.2191C23.7219 28.3935 24.4548 27.7227 25.3559 27.7227C26.257 27.7227 26.9906 28.3941 26.9906 29.2191C26.9906 30.044 26.257 30.7154 25.3559 30.7154Z" fill="#F6364D"/>
<path d="M32.7285 29.2131C32.7285 29.9649 33.3372 30.5745 34.0894 30.5745H48.6391C49.3906 30.5745 50 29.9649 50 29.2131C50 28.4613 49.3906 27.8517 48.6391 27.8517H34.0894C33.3372 27.8517 32.7285 28.4613 32.7285 29.2131Z" fill="#F6364D"/>
<path d="M25.4106 47.9698C23.0084 47.9698 21.0547 49.8623 21.0547 52.1889C21.0547 54.5154 23.0084 56.4079 25.4106 56.4079C27.8128 56.4079 29.7671 54.5154 29.7671 52.1889C29.7671 49.8623 27.8128 47.9698 25.4106 47.9698ZM25.4106 53.6852C24.5088 53.6852 23.7765 53.0145 23.7765 52.1889C23.7765 51.3639 24.5095 50.6926 25.4106 50.6926C26.3117 50.6926 27.0453 51.3639 27.0453 52.1889C27.0453 53.0138 26.3117 53.6852 25.4106 53.6852Z" fill="#F6364D"/>
<path fill-rule="evenodd" clip-rule="evenodd" d="M46.4855 12.7822C49.1621 5.46477 56.307 0 64.6792 0C75.3341 0 84 8.68873 84 19.3464C84 30.0047 75.3301 38.6941 64.6759 38.6941C64.3237 38.6941 63.9635 38.6842 63.6233 38.6655V69.3071C63.6233 75.2059 58.8474 79.9907 52.9505 80H52.9213C52.8093 80 52.7176 79.9926 52.6076 79.9838C52.506 79.9756 52.3888 79.9662 52.2256 79.9601V80H10.2069V79.9701C4.5094 79.7122 0.0172773 75.0251 0 69.3197V63.2594C0 62.5062 0.645244 61.9618 1.39681 61.9618H11.025L11.3466 14.2047C11.3519 13.4569 11.9593 12.7822 12.7075 12.7822H46.4855ZM10.716 77.2773H10.7246H45.8097C45.7236 77.1792 45.6282 77.1011 45.5355 77.0251C45.4672 76.9692 45.4004 76.9144 45.3399 76.8538C43.325 74.851 42.1907 72.1276 42.1887 69.2865V64.6845H2.72185V69.3058C2.74179 73.7103 6.31356 77.2713 10.716 77.2773ZM48.0796 19.3663C48.079 28.5377 55.5116 35.972 64.6792 35.972C73.8436 35.9621 81.2695 28.533 81.2795 19.3663C81.2795 10.1957 73.8475 2.76064 64.6799 2.76064C55.5116 2.76064 48.0796 10.195 48.0796 19.3663ZM52.9492 77.2773C57.3436 77.2686 60.9021 73.7023 60.9015 69.3058V38.3252C55.7721 37.2949 51.2839 34.2158 48.4764 29.7993L46.9998 27.0766C45.914 24.6231 45.3545 21.9694 45.3571 19.2859C45.3638 18.0169 45.4887 16.7513 45.7299 15.5049H14.0591L13.7468 61.9618H43.6114C43.959 61.9498 44.2959 62.0821 44.5424 62.3281C44.789 62.574 44.9219 62.911 44.9106 63.2594V69.2878C44.9325 73.701 48.5109 77.2693 52.9233 77.2773H52.9492Z" fill="#2BAAE1"/>
<path d="M52.288 50.9006H34.1441C33.3919 50.9006 32.7832 51.5102 32.7832 52.262C32.7832 53.0138 33.3919 53.6234 34.1441 53.6234H52.288C53.0396 53.6234 53.649 53.0138 53.649 52.262C53.649 51.5102 53.0396 50.9006 52.288 50.9006Z" fill="#F6364D"/>
<path d="M62.7007 22.38V23.52H67.1971V24.92H62.7007V27H60.0438V24.92H58V23.52H60.0438V13H65.9299C67.8375 13 69.3226 13.4 70.3854 14.2C71.4618 15 72 16.1667 72 17.7C72 19.22 71.4618 20.38 70.3854 21.18C69.3226 21.98 67.8375 22.38 65.9299 22.38H62.7007ZM69.3226 17.72C69.3226 16.9067 69.0297 16.2867 68.4438 15.86C67.8579 15.42 67.0131 15.2 65.9095 15.2H62.7007V20.28H65.9095C66.9995 20.28 67.8375 20.06 68.4234 19.62C69.0229 19.1667 69.3226 18.5333 69.3226 17.72Z" fill="#F6364D"/>
</svg>
