<svg width="24" height="24" viewBox="0 0 24 24" fill="none" xmlns="http://www.w3.org/2000/svg">
<path d="M15.3121 24C15.2527 24 15.1931 23.9998 15.133 23.9992C13.2835 23.9828 11.3864 23.4321 9.49465 22.3623C8.0092 21.5222 6.51603 20.3563 5.05669 18.897C1.73135 15.5716 0.0303286 12.1972 0.000938518 8.86752C-0.0177174 6.75733 0.222091 3.68736 2.50983 1.39957C3.40377 0.505632 4.519 0.00862485 5.65003 0.000140623L5.68012 0H5.68795C7.05686 0 8.32795 0.749002 9.00603 1.9562L9.77045 3.3171L9.78349 3.34424C10.1721 4.15376 10.3623 4.77554 10.4003 5.36034C10.4546 6.19691 10.1845 6.92083 9.59754 7.51215L7.47334 9.71397C7.78908 10.5873 8.59705 12.4704 10.1324 14.0091C11.6523 15.5257 13.4847 16.2993 14.3527 16.6037L16.4821 14.3937C17.0788 13.7981 17.7867 13.5139 18.5851 13.5486C19.1985 13.5754 19.8453 13.7807 20.6819 14.2143L20.7097 14.2293L22.0444 14.9789C23.2538 15.6583 24.0034 16.9329 24.0005 18.3054L24.0003 18.3384C23.9919 19.4659 23.4949 20.5811 22.6009 21.4751C21.6074 22.4686 20.3546 23.1762 18.8772 23.5781C17.8348 23.8617 16.6669 24 15.3121 24V24ZM5.68729 1.87497C5.68598 1.87497 5.68471 1.87497 5.6834 1.87497L5.66371 1.87506C5.02862 1.87984 4.37922 2.18181 3.83567 2.72536C2.04629 4.51473 1.86016 7.07833 1.87581 8.85092C1.90075 11.6718 3.41699 14.6057 6.38244 17.5711C9.37873 20.5675 12.3284 22.0993 15.1495 22.1243C16.9158 22.1399 19.4723 21.9521 21.2751 20.1492C21.8187 19.6056 22.1207 18.9563 22.1255 18.3208L22.1255 18.2981C22.127 17.6075 21.744 16.9607 21.1261 16.6136L19.8055 15.8718C18.5035 15.1998 18.1294 15.4006 17.8126 15.7147L14.9242 18.7128L14.3978 18.5809C14.2702 18.5489 11.2466 17.7701 8.80728 15.3355L8.80602 15.3342C6.37714 12.9006 5.53626 9.84081 5.50162 9.71172L5.36433 9.19962L8.26425 6.19391C8.53827 5.91932 8.75132 5.53743 8.10591 4.18221L7.37134 2.87442C7.0248 2.25769 6.37981 1.87497 5.68729 1.87497V1.87497ZM20.7055 3.29502C18.5807 1.17021 15.7556 4.68742e-05 12.7507 4.68742e-05V1.87501C17.92 1.87501 22.1255 6.08057 22.1255 11.2498H24.0005C24.0005 8.24489 22.8303 5.41978 20.7055 3.29502V3.29502ZM12.7507 7.49987V9.37484C13.7845 9.37484 14.6256 10.2159 14.6256 11.2498H16.5006C16.5006 9.18209 14.8184 7.49987 12.7507 7.49987ZM12.7507 3.74993V5.6249C15.8522 5.6249 18.3756 8.14823 18.3756 11.2498H20.2505C20.2505 7.11438 16.8861 3.74993 12.7507 3.74993Z" fill="white"/>
</svg>
