<svg width="146" height="140" viewBox="0 0 146 140" fill="none" xmlns="http://www.w3.org/2000/svg">
<path d="M145.718 76.7366C144.407 63.5649 138.517 51.1481 129.131 41.7716C121.11 33.7591 111.293 28.6109 100.963 26.3207V19.0833C105.182 18.0348 108.319 14.2194 108.319 9.68496C108.318 4.34511 103.969 0 98.6227 0H78.0908C72.7445 0 68.3956 4.34511 68.3956 9.68574C68.3956 14.2201 71.5319 18.0348 75.7506 19.084V26.3417C65.4519 28.6405 55.667 33.7825 47.6687 41.7724C45.9181 43.5212 44.3047 45.3549 42.827 47.261C42.7552 47.2556 42.6835 47.2501 42.611 47.2501H22.2904C20.716 47.2501 19.4387 48.5253 19.4387 50.0988C19.4387 51.6723 20.716 52.9475 22.2904 52.9475H38.9467C36.8561 56.4443 35.1702 60.1164 33.8867 63.8968H2.85092C1.2773 63.8968 0 65.1719 0 66.7447C0 68.3174 1.2773 69.5934 2.8517 69.5934H32.2756C31.4537 73.1969 30.9819 76.8651 30.8603 80.5426H18.2503C16.6759 80.5426 15.3986 81.8186 15.3986 83.3913C15.3986 84.9648 16.6759 86.24 18.2503 86.24H30.9515C31.1925 89.9277 31.7859 93.5951 32.7318 97.1892H14.2577C12.6833 97.1892 11.406 98.4644 11.406 100.038C11.406 101.611 12.6833 102.887 14.2577 102.887H34.5518C37.3489 110.279 41.7212 117.208 47.6687 123.149C57.0637 132.534 69.5068 138.42 82.7056 139.723C84.5895 139.908 86.4743 140 88.3575 140C99.4851 140 110.471 136.784 119.793 130.719C121.113 129.861 121.486 128.097 120.627 126.778C119.768 125.459 118.001 125.087 116.681 125.945C96.2755 139.219 68.9477 136.349 51.7018 119.12C31.4662 98.9061 31.4662 66.0156 51.7018 45.8004C71.9374 25.5861 104.863 25.5861 125.098 45.8004C142.321 63.0064 145.211 90.2813 131.967 110.655C131.109 111.975 131.485 113.739 132.805 114.595C134.127 115.452 135.892 115.078 136.75 113.758C143.826 102.873 147.011 89.7251 145.718 76.7366ZM95.2595 25.3524C90.6751 24.8079 86.0376 24.811 81.454 25.3626V19.3715H95.2595V25.3524ZM98.1112 13.6733H78.6023H78.0908C75.8894 13.6733 74.0982 11.884 74.0982 9.68496C74.0982 7.48592 75.8894 5.6974 78.0908 5.6974H98.6227C100.824 5.6974 102.615 7.48592 102.615 9.68496C102.615 11.884 100.824 13.6733 98.6227 13.6733H98.1112ZM127.116 118.285C126.364 118.285 125.631 118.59 125.101 119.12C124.567 119.65 124.265 120.385 124.265 121.134C124.265 121.883 124.567 122.618 125.101 123.148C125.631 123.681 126.364 123.983 127.116 123.983C127.866 123.983 128.599 123.681 129.132 123.148C129.662 122.618 129.968 121.883 129.968 121.134C129.968 120.385 129.663 119.65 129.132 119.12C128.599 118.59 127.866 118.285 127.116 118.285ZM88.3996 38.2701C64.0077 38.2701 44.1628 58.0934 44.1628 82.4604C44.1628 106.827 64.0077 126.651 88.3996 126.651C112.792 126.651 132.636 106.827 132.636 82.4604C132.636 58.0934 112.792 38.2701 88.3996 38.2701ZM88.3996 120.953C67.1518 120.953 49.8662 103.686 49.8662 82.4604C49.8662 61.2358 67.1518 43.9675 88.3996 43.9675C109.647 43.9675 126.933 61.2358 126.933 82.4604C126.934 103.685 109.647 120.953 88.3996 120.953ZM106.438 60.4124L92.3134 74.5212C91.132 73.9377 89.804 73.6082 88.3996 73.6082C86.9952 73.6082 85.6664 73.9377 84.4858 74.5212L78.1648 68.2068C77.0513 67.0944 75.2461 67.0944 74.1318 68.2068C73.0182 69.3192 73.0182 71.1225 74.1318 72.2349L80.4528 78.5492C79.8687 79.7294 79.5388 81.056 79.5388 82.4589C79.5388 87.3399 83.5134 91.3111 88.3996 91.3111C93.2858 91.3111 97.2604 87.3399 97.2604 82.4589C97.2604 81.056 96.9305 79.7286 96.3465 78.5492L110.056 64.8541L110.47 64.4405C111.584 63.3281 111.584 61.524 110.47 60.4116C109.357 59.2993 107.552 59.3 106.438 60.4124ZM88.3996 85.6145C86.6583 85.6145 85.2415 84.1991 85.2415 82.4597C85.2415 80.7202 86.6583 79.3056 88.3996 79.3056C90.1409 79.3056 91.5578 80.721 91.5578 82.4597C91.5578 84.1999 90.1409 85.6145 88.3996 85.6145ZM118.889 79.6468H116.247C114.672 79.6468 113.395 80.922 113.395 82.4955C113.395 84.069 114.672 85.3442 116.247 85.3442H118.889C120.463 85.3442 121.74 84.069 121.74 82.4955C121.74 80.922 120.464 79.6468 118.889 79.6468ZM60.5524 79.5767H57.9105C56.3361 79.5767 55.0588 80.8519 55.0588 82.4254C55.0588 83.9989 56.3361 85.2741 57.9105 85.2741H60.5524C62.1268 85.2741 63.4041 83.9989 63.4041 82.4254C63.4041 80.8519 62.1276 79.5767 60.5524 79.5767ZM88.4347 57.4905C90.0091 57.4905 91.2864 56.2153 91.2864 54.6418V52.0026C91.2864 50.4291 90.0091 49.1539 88.4347 49.1539C86.8603 49.1539 85.583 50.4291 85.583 52.0026V54.6418C85.583 56.2153 86.8603 57.4905 88.4347 57.4905ZM88.3653 107.43C86.7909 107.43 85.5136 108.705 85.5136 110.278V112.917C85.5136 114.491 86.7909 115.766 88.3653 115.766C89.9397 115.766 91.217 114.491 91.217 112.917V110.278C91.217 108.705 89.9397 107.43 88.3653 107.43ZM2.8517 97.1885C2.10154 97.1885 1.3662 97.493 0.835938 98.0227C0.304899 98.5524 0 99.2878 0 100.037C0 100.789 0.304899 101.521 0.835158 102.051C1.3662 102.581 2.10154 102.886 2.85092 102.886C3.60108 102.886 4.33643 102.581 4.86668 102.051C5.39694 101.521 5.70262 100.786 5.70262 100.037C5.70262 99.2878 5.39772 98.5532 4.86668 98.0227C4.33721 97.493 3.60186 97.1885 2.8517 97.1885Z" fill="white"/>
</svg>
