<svg width="20" height="20" viewBox="0 0 20 20" fill="none" xmlns="http://www.w3.org/2000/svg">
<path fill-rule="evenodd" clip-rule="evenodd" d="M9.3324 10.4174V10.6223H9.68594H10.3511H12.3694C12.5552 10.6223 12.7129 10.6873 12.8438 10.8182C12.9746 10.9491 13.0395 11.107 13.0395 11.2929C13.0395 11.4788 12.9746 11.6367 12.8438 11.7677C12.7129 11.8986 12.5552 11.9885 12.3694 11.9885H10.4709H9.5661H8.79311C8.75017 11.9965 8.70923 11.9885 8.66229 11.9885C8.47653 11.9885 8.31874 11.9236 8.18791 11.7926C8.05708 11.6617 7.99217 11.5038 7.99217 11.3179V10.2975V6.63359V5.61317C7.99217 5.42727 8.05708 5.26936 8.18791 5.13844C8.31874 5.00751 8.47653 4.94255 8.66229 4.94255C8.84804 4.94255 9.00583 5.00851 9.13666 5.13844C9.26749 5.26936 9.3324 5.42727 9.3324 5.61317V6.51366V10.4174Z" fill="#2BAAE1"/>
<path d="M18.3325 15.5585C18.0929 15.9173 17.6075 16.0142 17.248 15.7744C16.8894 15.5345 16.7926 15.0478 17.0323 14.689C19.6039 10.9301 18.5043 6.16885 15.4344 3.53335C15.3824 3.48938 15.3305 3.4444 15.2776 3.40243C15.1098 3.26451 14.929 3.14158 14.7503 3.01765C13.5798 2.2261 12.2336 1.74237 10.8394 1.60345C10.6557 1.58746 10.4719 1.57247 10.2841 1.56747C10.1473 1.56248 10.0115 1.55548 9.87469 1.55848C9.75585 1.56048 9.639 1.56947 9.52116 1.57647C9.36536 1.58546 9.20857 1.59346 9.05277 1.61145C8.92294 1.62644 8.79611 1.64943 8.66928 1.66941C8.52447 1.6934 8.38066 1.71439 8.23685 1.74537C8.10203 1.77435 7.9702 1.81233 7.83737 1.84831C7.70455 1.88329 7.57172 1.91627 7.4399 1.95825C7.30008 2.00322 7.16526 2.05719 7.02844 2.10916C6.9076 2.15514 6.78676 2.19911 6.66692 2.25108C6.52311 2.31305 6.38329 2.38501 6.24347 2.45497C6.13761 2.50794 6.03175 2.55891 5.92789 2.61687C5.80805 2.68384 5.6932 2.75779 5.57735 2.82975C5.41756 2.9277 5.26576 3.03264 5.11496 3.13858C3.97646 3.95611 3.05268 5.04849 2.43449 6.32077C2.34062 6.51765 2.24674 6.71454 2.16984 6.91743C2.14488 6.98039 2.12291 7.04535 2.09994 7.10932C0.889531 10.5534 1.93515 14.689 5.1639 16.9117L5.1649 16.9097C5.30871 17.0137 5.4665 17.0906 5.6163 17.1846C5.83701 17.3165 6.05173 17.4554 6.29141 17.5704C6.3014 17.5754 6.30739 17.5854 6.31738 17.5903C8.84305 18.8236 11.9859 18.7207 14.3917 17.2326C14.7612 17.0087 15.2416 17.1266 15.4653 17.4964C15.689 17.8662 15.5712 18.3469 15.2017 18.5708C13.5938 19.5652 11.7013 20.035 9.81876 19.998L9.70791 19.989C8.29178 19.946 6.89262 19.6062 5.62329 18.9796C5.6153 18.9756 5.60631 18.9776 5.59832 18.9726C5.30571 18.8326 5.02408 18.6757 4.74944 18.5088C4.74245 18.5038 4.73446 18.5018 4.72747 18.4968V18.4948C1.0643 16.2431 -0.834197 11.5868 0.352239 7.40815C0.367219 7.35318 0.392187 7.3062 0.407167 7.25124C0.516023 6.86146 0.650846 6.48967 0.802646 6.12588C0.850582 6.00894 0.893526 5.88901 0.945457 5.77608C1.08228 5.48624 1.23807 5.2104 1.39886 4.93755C1.51071 4.74366 1.61857 4.54777 1.74141 4.36588C1.82829 4.23995 1.92517 4.12402 2.01705 4.00309C3.39423 2.15314 5.32269 0.910847 7.4379 0.355163C9.54712 -0.222508 11.8381 -0.110572 13.9553 0.801909C14.0951 0.860875 14.2369 0.912845 14.3748 0.977808C14.5725 1.07475 14.7642 1.18969 14.957 1.30162C15.2326 1.45754 15.5053 1.61844 15.7689 1.80334C15.8708 1.8753 15.9677 1.95825 16.0675 2.03521C16.3801 2.27407 16.6837 2.52793 16.9723 2.81076C17.0133 2.84974 17.0582 2.87873 17.0982 2.9187C17.1851 3.00266 17.247 3.1046 17.3299 3.19055C17.5406 3.41942 17.7473 3.65229 17.9411 3.90714C18.1518 4.17899 18.3405 4.46082 18.5193 4.75166C18.5712 4.83661 18.6341 4.90657 18.6841 4.99252L18.6641 5.00352C20.5067 8.22768 20.4867 12.4333 18.3325 15.5585Z" fill="#2BAAE1"/>
</svg>
