<svg width="14" height="14" viewBox="0 0 14 14" fill="none" xmlns="http://www.w3.org/2000/svg">
<path fill-rule="evenodd" clip-rule="evenodd" d="M8.48435 7.00039L13.6922 12.2085C14.1026 12.619 14.1026 13.2835 13.6922 13.6929C13.2828 14.1024 12.6172 14.1024 12.2078 13.6929L7 8.48482L1.79219 13.6929C1.38278 14.1024 0.717242 14.1024 0.307839 13.6929C-0.102613 13.2825 -0.102613 12.6179 0.307839 12.2085L5.51565 7.00039L0.307839 1.79229C-0.102613 1.38181 -0.102613 0.717282 0.307839 0.307857C0.717242 -0.102619 1.38278 -0.102619 1.79219 0.307857L7 5.51596L12.2078 0.307857C12.6183 -0.102619 13.2828 -0.102619 13.6922 0.307857C14.1026 0.717282 14.1026 1.38181 13.6922 1.79229L8.48435 7.00039Z" fill="#000D34"/>
</svg>
