<svg width="203" height="203" viewBox="0 0 203 203" fill="none" xmlns="http://www.w3.org/2000/svg">
<path d="M199.868 40.5917H183.34C183.82 39.9175 184.255 39.2092 184.636 38.4669C186.823 34.1924 187.119 29.1586 185.448 24.6548L180.439 11.1837C178.769 6.68449 175.261 3.06719 170.818 1.26009C166.37 -0.548566 161.332 -0.404432 156.994 1.65684L117.354 20.495C115.395 19.094 112.999 18.2664 110.412 18.2664H92.5891C90.0026 18.2664 87.6051 19.0955 85.6459 20.4966L46.008 1.65529C41.6699 -0.404432 36.6317 -0.548566 32.1836 1.26009C27.7402 3.06719 24.2322 6.68449 22.5626 11.1821L17.5539 24.6563C15.8827 29.1586 16.1785 34.1924 18.367 38.4669C18.7464 39.2092 19.1832 39.9191 19.6633 40.5917H3.13318C1.40319 40.5917 0 41.9943 0 43.727V66.2972C0 68.0283 1.40319 69.4325 3.13318 69.4325C4.86317 69.4325 6.26636 68.0283 6.26636 66.2972V46.8608H28.0283C28.3767 46.9832 28.7299 47.0963 29.0876 47.1955L55.3905 54.441C49.5454 63.4036 44.3896 72.8313 39.9755 82.5999H6.26636V78.8369C6.26636 77.1057 4.86317 75.7031 3.13318 75.7031C1.40319 75.7031 0 77.1057 0 78.8369V85.7352C0 87.4663 1.40319 88.8705 3.13318 88.8705H14.3061V199.865C14.3061 201.597 15.7093 203 17.4393 203H185.562C187.292 203 188.695 201.597 188.695 199.865V181.66C188.695 179.929 187.292 178.525 185.562 178.525C183.831 178.525 182.429 179.929 182.429 181.66V196.731H120.297V90.7985C129.171 107.619 135.179 125.908 137.944 144.805C138.126 146.056 139.043 147.074 140.268 147.387C140.525 147.454 140.786 147.485 141.044 147.485C142.012 147.485 142.945 147.036 143.545 146.237C148.049 140.258 152.237 133.857 156.018 127.175C162.349 131.489 168.496 136.3 174.329 141.507C175.312 142.385 176.74 142.554 177.9 141.927C179.061 141.303 179.706 140.018 179.514 138.713C177.013 121.639 172.35 104.848 165.739 88.8705H182.428V169.119C182.428 170.852 183.831 172.254 185.561 172.254C187.292 172.254 188.694 170.852 188.694 169.119V88.8705H199.868C201.598 88.8705 203 87.4663 203 85.7352V43.727C203.002 41.9943 201.6 40.5917 199.868 40.5917ZM159.681 7.31992C162.476 5.99327 165.592 5.90338 168.459 7.06885C171.321 8.23277 173.49 10.4692 174.566 13.3689L179.573 26.8385C180.651 29.7398 180.467 32.8549 179.057 35.609C177.65 38.3615 175.232 40.3298 172.252 41.1496L122.38 54.8889V39.8214C133.59 32.9526 161.536 18.7856 168.492 28.6099C169.491 30.0218 171.445 30.3582 172.858 29.357C174.27 28.3558 174.605 26.3983 173.604 24.9864C168.236 17.4031 156.924 17.0343 139.979 23.8923C132.998 26.7161 126.554 30.1629 122.38 32.5543V30.2404C122.38 28.5619 122.031 26.9625 121.406 25.5103L159.681 7.31992ZM92.5891 24.5354H110.412C113.556 24.5354 116.114 27.0958 116.114 30.2404V56.1551C116.114 59.3012 113.556 61.86 110.412 61.86H92.5891C89.4451 61.86 86.888 59.3012 86.888 56.1551V30.2404C86.888 27.0942 89.4451 24.5354 92.5891 24.5354ZM87.3233 82.5983C90.3201 77.6156 93.5819 72.7863 97.0914 68.1306H105.907C109.418 72.7863 112.68 77.6156 115.675 82.5983H87.3233ZM23.9441 35.609C22.5347 32.8549 22.3504 29.7398 23.4268 26.84L28.4371 13.3674C29.512 10.4692 31.6803 8.23277 34.5424 7.06885C37.4077 5.90338 40.5254 5.99327 43.3193 7.31992L81.5959 25.5134C80.9702 26.964 80.6217 28.5619 80.6217 30.2419V32.734C76.4617 30.338 69.8716 26.7889 62.7132 23.8923C45.7695 17.0343 34.4557 17.4031 29.0876 24.9864C28.0871 26.3983 28.4216 28.3558 29.8341 29.357C31.2466 30.3582 33.2012 30.0234 34.2001 28.6099C41.2208 18.6926 69.6269 33.2207 80.6217 40.0121V54.8889L30.751 41.1512C27.7696 40.3298 25.352 38.3615 23.9441 35.609ZM82.028 61.7794C83.5876 64.6993 86.3196 66.9016 89.5922 67.7494C74.9392 88.2071 64.852 111.713 60.1205 136.421C56.7922 131.554 53.6807 126.454 50.8325 121.186C50.4159 120.414 49.6972 119.853 48.8469 119.638C47.9982 119.422 47.0984 119.573 46.3658 120.052C41.148 123.456 36.0385 127.192 31.1041 131.203C36.1857 104.511 46.6848 78.7749 61.7405 56.1907L82.028 61.7794ZM20.5724 88.8705H37.2621C30.6519 104.848 25.9885 121.637 23.4857 138.713C23.2952 140.018 23.9395 141.303 25.0995 141.927C26.2611 142.552 27.6875 142.385 28.671 141.507C34.5037 136.3 40.6508 131.489 46.9838 127.175C50.7643 133.857 54.9507 140.257 59.4561 146.237C60.057 147.036 60.9894 147.487 61.9574 147.487C62.216 147.487 62.4762 147.454 62.7333 147.387C63.9584 147.074 64.8737 146.056 65.0565 144.805C67.8226 125.908 73.8303 107.617 82.7032 90.7969V196.731H20.5724V88.8705ZM88.9696 196.731V88.8705H114.032V196.731H88.9696ZM156.636 120.052C155.903 119.573 155.002 119.424 154.155 119.639C153.306 119.855 152.586 120.416 152.169 121.186C149.321 126.454 146.209 131.556 142.881 136.421C138.15 111.712 128.062 88.2071 113.408 67.7509C116.68 66.9047 119.414 64.7009 120.974 61.7794L141.266 56.1892C156.318 78.778 166.817 104.514 171.899 131.203C166.963 127.192 161.854 123.456 156.636 120.052ZM196.735 82.5999H163.028C158.614 72.8313 153.458 63.4036 147.614 54.441L173.914 47.1955C174.272 47.0963 174.625 46.9832 174.973 46.8608H196.735V82.5999Z" fill="#ED586A"/>
</svg>
