<svg width="76" height="80" viewBox="0 0 76 80" fill="none" xmlns="http://www.w3.org/2000/svg">
<path fill-rule="evenodd" clip-rule="evenodd" d="M72.4372 10.0008H74.8124C75.4678 10.0008 76 10.5607 76 11.251V49.9997C76 50.6911 75.4678 51.25 74.8124 51.25H42.7499C39.471 51.25 36.8129 48.4514 36.8129 44.9999V6.25111C36.8119 2.79961 39.471 0 42.7499 0H74.8124C75.4678 0 76 0.559921 76 1.25123C76 1.94254 75.4678 2.50044 74.8124 2.50044H72.4372C70.4691 2.50044 68.8744 4.18021 68.8744 6.25111C68.8744 8.321 70.4691 10.0008 72.4372 10.0008ZM67.6868 2.50044H42.7499C40.7828 2.50044 39.1871 4.18021 39.1871 6.25111C39.1871 8.32201 40.7818 10.0008 42.7499 10.0008H67.6868C66.0545 7.79645 66.0545 4.70576 67.6868 2.50044ZM42.7499 12.5002C41.4642 12.5083 40.2121 12.0686 39.1871 11.251V44.9999C39.1871 47.0708 40.7818 48.7495 42.7499 48.7495H73.6248V12.5002H42.7499ZM61.7497 7.50032H42.7499C42.0945 7.50032 41.5623 6.94141 41.5623 6.25111C41.5623 5.56182 42.0936 5.00088 42.7499 5.00088H61.7497C62.4061 5.00088 62.9373 5.56182 62.9373 6.25111C62.9373 6.94141 62.4051 7.50032 61.7497 7.50032ZM33.2501 8.75054C21.5251 8.70202 11.5431 17.7174 9.80881 29.9245L8.31227 40.188C8.28436 40.3376 8.2324 40.4811 8.15829 40.6125L2.37521 51.5754V53.7504H11.8751C12.5305 53.7504 13.0627 54.3093 13.0627 54.9996V64.7871C13.0627 66.9763 14.7479 68.749 16.8267 68.749H28.4996C29.155 68.749 29.6872 69.31 29.6872 69.9992C29.6872 70.6906 29.156 71.2495 28.4996 71.2495H27.312V78.7498C27.312 79.4411 26.7808 80 26.1244 80C25.469 80 24.9368 79.4411 24.9368 78.7498V71.2495H16.8267C13.439 71.2424 10.6942 68.3528 10.6875 64.7871V56.2498H1.18761C0.532209 56.2498 0 55.6909 0 54.9996V51.25C0.000962403 51.0347 0.0538946 50.8245 0.153984 50.6375L5.93706 39.5866L7.44515 29.5495C9.35167 16.1144 20.3433 6.18844 33.2501 6.25111C33.9055 6.25111 34.4377 6.81103 34.4377 7.50032C34.4377 8.19062 33.9055 8.75054 33.2501 8.75054ZM68.0313 54.1749C68.4971 53.6847 69.2516 53.6847 69.7174 54.1749C70.1832 54.6651 70.1832 55.4605 69.7174 55.9497L61.3455 64.7002C57.7875 68.4135 55.7943 73.475 55.8117 78.7498C55.8117 79.4411 55.2795 80 54.6241 80C53.9687 80 53.4365 79.4411 53.4365 78.7498C53.4519 72.8251 55.7135 67.1501 59.7181 62.9881L68.0313 54.1749Z" fill="#2BAAE1"/>
<path fill-rule="evenodd" clip-rule="evenodd" d="M66.4992 30.0002H46.3118C45.6564 30.0002 45.1242 29.4413 45.1242 28.75C45.1242 28.0597 45.6555 27.5008 46.3118 27.5008H66.4992C67.1556 27.5008 67.6868 28.0597 67.6868 28.75C67.6868 29.4413 67.1556 30.0002 66.4992 30.0002ZM66.4992 25.0003H46.3118C45.6564 25.0003 45.1242 24.4404 45.1242 23.7501C45.1242 23.0598 45.6555 22.5009 46.3118 22.5009H66.4992C67.1556 22.5009 67.6868 23.0608 67.6868 23.7501C67.6868 24.4394 67.1556 25.0003 66.4992 25.0003ZM66.4992 20.0005H46.3118C45.6564 20.0005 45.1242 19.4406 45.1242 18.7503C45.1242 18.06 45.6555 17.5 46.3118 17.5H66.4992C67.1556 17.5 67.6868 18.06 67.6868 18.7503C67.6868 19.4416 67.1556 20.0005 66.4992 20.0005ZM42.2274 62.0633C42.9636 61.9016 43.6999 61.7126 44.4121 61.4751L45.0655 63.8997C44.285 64.1635 43.492 64.3838 42.6903 64.5627L42.2274 62.0633ZM37.7147 64.9993V62.5009H37.9996C38.6646 62.5009 39.3296 62.3999 39.9831 62.3999L40.1967 64.9003C39.472 65.0003 38.7358 65.0004 37.9996 65.0004H37.7147V64.9993ZM32.7035 64.3747L33.2501 61.937C33.9786 62.1088 34.7168 62.2391 35.4588 62.3251L35.174 64.8255C34.3424 64.7254 33.5177 64.5759 32.7035 64.3747ZM31.8132 15.8617L33.0008 15.5504L33.5234 18.0003L32.4311 18.2762L31.8132 15.8617ZM27.9415 62.6131L28.9511 60.3502C29.6353 60.6918 30.3369 60.992 31.0529 61.2507L30.3167 63.6137C29.5092 63.3236 28.7162 62.9891 27.9415 62.6131ZM27.0513 17.8133C27.7952 17.402 28.5603 17.0341 29.3437 16.7137L30.2108 19.013C29.5102 19.3041 28.824 19.6336 28.1561 20.0015L27.0513 17.8133ZM23.6434 59.9125L25.0803 57.9245C25.6837 58.4026 26.3102 58.8493 26.957 59.2617L25.7222 61.3993C25.0023 60.9465 24.3084 60.4492 23.6434 59.9125ZM22.9187 20.7251C23.5597 20.1753 24.2362 19.6376 24.9378 19.1505L26.1967 21.2497C25.5798 21.6752 24.9378 22.1502 24.4278 22.6495L22.9187 20.7251ZM19.3559 24.4879C19.8717 23.7906 20.4261 23.1265 21.018 22.5009L22.7156 24.2757C22.1834 24.8306 21.684 25.4198 21.2191 26.0383L19.3559 24.4879ZM18.7505 30.0882L16.6246 28.9885C16.9922 28.1921 17.4041 27.4199 17.8594 26.6761L19.866 28.0152C19.4627 28.6762 19.0951 29.3766 18.7505 30.0882ZM17.254 34.5625L14.95 33.9621C15.1521 33.1121 15.437 32.2621 15.6863 31.4243L17.9181 32.2753C17.6582 33.0252 17.4359 33.7883 17.254 34.5625ZM16.6246 39.2753L14.2494 39.2005C14.2648 38.3182 14.3283 37.4369 14.439 36.5636L16.8142 36.9002C16.7103 37.6875 16.6467 38.4809 16.6246 39.2753ZM16.9691 44.0255L14.6295 44.4753C14.4765 43.6071 14.3687 42.7309 14.3091 41.8505L16.6843 41.6626C16.7314 42.4559 16.8267 43.2453 16.9691 44.0255ZM18.2395 48.6009L16.0423 49.551C15.7228 48.7333 15.4457 47.8985 15.2108 47.0505L17.4908 46.3501C17.7054 47.1081 17.9546 47.8581 18.2395 48.6009ZM20.4011 52.7751L18.4416 54.1991C17.9662 53.4694 17.5264 52.7134 17.1231 51.9372L19.2125 50.7497C19.5753 51.447 19.9718 52.1222 20.4011 52.7751ZM23.346 56.3873L21.7196 58.162C21.1113 57.5566 20.5329 56.9179 19.9853 56.2488L21.7898 54.661C22.2816 55.2644 22.8003 55.8405 23.346 56.3873ZM49.7322 61.7378C49.0104 62.1765 48.2646 62.5737 47.5004 62.9254L46.5265 60.6372C47.2175 60.3178 47.8902 59.959 48.5456 59.5628L49.7322 61.7378ZM53.8167 58.6502C53.1892 59.2425 52.5309 59.7973 51.8457 60.3128L50.4685 58.2752C51.0863 57.8113 51.6801 57.3151 52.2499 56.7875L53.8167 58.6502ZM56.4652 55.7879C56.1919 56.1376 55.9311 56.4621 55.6462 56.7875L53.8888 55.1138L54.6251 54.2133L56.4652 55.7879ZM60.5621 42.5004H66.4992C67.1556 42.5004 67.6868 43.0593 67.6868 43.7506C67.6868 44.4409 67.1556 45.0009 66.4992 45.0009H60.5621C59.9058 45.0009 59.3745 44.4399 59.3745 43.7506C59.3745 43.0593 59.9058 42.5004 60.5621 42.5004Z" fill="#F6364D"/>
</svg>
