<svg width="85" height="74" viewBox="0 0 85 74" fill="none" xmlns="http://www.w3.org/2000/svg">
<path d="M42.0982 11.666C43.0063 11.666 43.7427 10.9296 43.7427 10.0215V1.64449C43.7427 0.736403 43.0065 0 42.0982 0C41.19 0 40.4537 0.736239 40.4537 1.64449V10.0215C40.4539 10.9296 41.1901 11.666 42.0982 11.666Z" fill="#2BAAE1"/>
<path d="M29.7345 14.3672C30.0471 14.8634 30.5811 15.135 31.1272 15.135C31.4268 15.135 31.7302 15.0531 32.0024 14.8816C32.7707 14.3975 33.0009 13.382 32.5168 12.6135L28.1352 5.66144C27.6509 4.89313 26.6354 4.66274 25.8673 5.14704C25.099 5.63118 24.8688 6.64665 25.3529 7.41512L29.7345 14.3672Z" fill="#2BAAE1"/>
<path d="M52.1996 14.882C52.4717 15.0532 52.7748 15.1349 53.0741 15.1349C53.6204 15.1349 54.1547 14.8629 54.4673 14.3664L58.8443 7.41433C59.3281 6.6457 59.0974 5.63055 58.3287 5.14642C57.5598 4.66277 56.545 4.89366 56.061 5.66196L51.684 12.6141C51.2002 13.3829 51.4311 14.398 52.1996 14.882Z" fill="#2BAAE1"/>
<path d="M83.6678 38.7154L80.8105 33.6677C80.3629 32.877 79.3594 32.5991 78.5696 33.0467C77.7791 33.4942 77.5012 34.4975 77.9486 35.2876L80.8046 40.3333C80.9477 40.5869 80.9105 40.8314 80.8757 40.9546C80.8421 41.0731 80.7497 41.292 80.508 41.4255L76.1043 43.8648C75.7131 44.0809 75.2025 43.9444 74.9892 43.5682L73.8705 41.5892C73.8659 41.5803 73.8606 41.5721 73.8558 41.5634L62.2901 21.1069C62.1472 20.8551 62.1834 20.6137 62.2176 20.4922C62.2507 20.3746 62.3424 20.1573 62.5842 20.0236L66.993 17.5839C67.3892 17.3645 67.8873 17.4977 68.1039 17.8815L70.6815 22.4356C71.1289 23.2261 72.1326 23.5039 72.9226 23.0567C73.7131 22.6094 73.991 21.606 73.5437 20.8156L70.9673 16.2635C69.8684 14.3154 67.3718 13.6167 65.4013 14.7058L60.9926 17.1456C60.0387 17.6728 59.3494 18.5443 59.0521 19.5999C58.7716 20.5951 58.8719 21.6341 59.3312 22.546L56.9026 23.2498C55.8681 23.5491 55.2402 23.7114 54.8917 23.7114C54.8902 23.7114 54.8889 23.7114 54.8876 23.7114C54.6477 23.7106 54.386 23.619 53.6393 23.3361C53.3005 23.2079 52.8787 23.048 52.3602 22.8671L48.0574 21.3629C45.6776 20.5318 44.6043 20.5765 43.0492 20.7184L35.7122 21.3751C32.3674 21.6714 30.235 22.4259 29.0579 23.7344L24.8766 22.5229C25.3266 21.615 25.4231 20.5861 25.1452 19.5999C24.8478 18.5449 24.1591 17.6737 23.2062 17.1464L18.7999 14.7055C16.8278 13.6154 14.3297 14.3145 13.2307 16.262L0.534538 38.7131C-0.00896657 39.67 -0.143486 40.783 0.15614 41.8472C0.453793 42.9039 1.14284 43.7762 2.095 44.3027L6.50125 46.7433C7.13125 47.0916 7.81569 47.2571 8.49108 47.2571C9.9259 47.2571 11.3208 46.5106 12.0705 45.187L12.536 44.3634C13.8066 44.9227 14.8734 45.7353 15.6004 46.6973C14.8903 47.5271 14.443 48.5511 14.3175 49.6649C14.1517 51.1379 14.5678 52.5831 15.489 53.7351C16.4024 54.8772 17.7085 55.5978 19.1689 55.7675C19.0143 57.228 19.432 58.659 20.3462 59.7981C21.2911 60.9795 22.6266 61.6687 24.0236 61.8314C23.8697 63.2897 24.2859 64.7194 25.1973 65.8592C26.1102 67.0038 27.4165 67.7259 28.8785 67.8956C28.7237 69.3572 29.1414 70.7891 30.0556 71.9284C31.1453 73.2907 32.7539 74 34.3778 73.9998C35.5902 73.9998 36.811 73.6045 37.8303 72.7904L41.2735 70.0353C41.547 69.817 41.7955 69.5758 42.019 69.3159L43.9858 70.8871C45.0029 71.6988 46.221 72.0932 47.4316 72.093C49.0564 72.0928 50.6677 71.3827 51.7588 70.0191C52.3339 69.3002 52.698 68.4796 52.8624 67.6325C53.4375 67.8315 54.0446 67.9342 54.6636 67.9341C54.8712 67.9341 55.08 67.9226 55.2895 67.8994C56.763 67.7358 58.0806 67.0112 58.996 65.863C59.9119 64.7221 60.3296 63.2912 60.1751 61.8309C61.5711 61.6679 62.9073 60.9789 63.855 59.798C64.799 58.6177 65.1778 57.1646 65.0295 55.7672C66.4892 55.5971 67.7946 54.8767 68.7058 53.7372C69.6277 52.5884 70.0455 51.1453 69.8822 49.6735C69.7582 48.5562 69.3106 47.5287 68.5992 46.6966C69.3241 45.7349 70.3887 44.9214 71.6601 44.3624L72.1266 45.1876C72.8759 46.5108 74.2701 47.2569 75.7052 47.2569C76.3809 47.2567 77.066 47.0913 77.6967 46.7427L82.1005 44.3032C83.0523 43.777 83.741 42.9061 84.0398 41.8511C84.3411 40.788 84.2094 39.675 83.6678 38.7154ZM9.20808 43.5673C8.99429 43.9449 8.48335 44.0811 8.09377 43.8655L3.68769 41.425C3.4471 41.2918 3.35533 41.0738 3.32179 40.9555C3.28742 40.833 3.25074 40.5898 3.39579 40.3349L16.0939 17.8794C16.2393 17.6217 16.5132 17.4773 16.7977 17.4773C16.9362 17.4773 17.077 17.5114 17.2069 17.5832L21.6118 20.0233C21.6123 20.0236 21.6128 20.024 21.6133 20.0241C21.8544 20.1575 21.946 20.3747 21.9792 20.4923C22.0134 20.6138 22.0496 20.8553 21.905 21.1098L9.20808 43.5673ZM21.2086 52.0299C20.7448 52.4014 20.1592 52.5693 19.5608 52.5027C18.962 52.4362 18.4284 52.1445 18.0577 51.6811C17.6863 51.2165 17.5188 50.6311 17.5861 50.0328C17.653 49.437 17.9449 48.906 18.411 48.5352L24.5676 43.6139C25.5339 42.8424 26.9484 43.0011 27.7206 43.9656C28.0919 44.4299 28.2595 45.0143 28.1924 45.6108C28.1256 46.2053 27.8336 46.7358 27.3702 47.1045C27.36 47.1125 27.3513 47.1216 27.3414 47.13L21.2101 52.0287C21.2096 52.0291 21.2091 52.0296 21.2086 52.0299ZM22.9129 57.7419C22.5418 57.2793 22.374 56.6963 22.4403 56.1003C22.5066 55.5039 22.7988 54.9704 23.2629 54.5982L23.2634 54.5979C23.2637 54.5978 23.264 54.5974 23.2644 54.5973C23.2645 54.5973 23.2645 54.5971 23.2647 54.5969L32.1328 47.5118C33.0989 46.7402 34.5137 46.8978 35.2858 47.8636C35.6566 48.3271 35.8242 48.9109 35.7579 49.5072C35.6915 50.1042 35.3984 50.6377 34.9332 51.0093L26.0674 58.0918C25.1001 58.8637 23.6858 58.708 22.9129 57.7419ZM29.2702 64.6306C28.6716 64.5642 28.1385 64.2721 27.7673 63.8067C27.3965 63.3432 27.2289 62.7594 27.2952 62.1631C27.3616 61.5666 27.6542 61.0336 28.1187 60.662C28.1191 60.6616 28.1196 60.6613 28.1199 60.661L34.2568 55.7584C34.264 55.7528 34.2719 55.7481 34.2792 55.7423C35.2428 54.9709 36.6571 55.1279 37.43 56.0913C37.8015 56.5557 37.9691 57.1411 37.9018 57.7394C37.8347 58.3352 37.5428 58.8662 37.0769 59.237L30.9205 64.1582C30.4552 64.5297 29.869 64.6967 29.2702 64.6306ZM40.0446 65.9656C39.978 66.5621 39.6858 67.0944 39.2204 67.4661L35.777 70.2217C34.8095 70.9938 33.3953 70.8384 32.6227 69.8721C32.2515 69.4099 32.0836 68.8264 32.1499 68.2293C32.2162 67.6322 32.5081 67.0995 32.9713 66.7295C32.9718 66.7292 32.9725 66.7287 32.9729 66.7283L36.4155 63.9765C36.4173 63.975 36.4193 63.9738 36.4211 63.9725C37.3876 63.2012 38.802 63.3593 39.5743 64.3243C39.9441 64.787 40.1114 65.3697 40.0446 65.9656ZM66.1391 51.6809C65.7684 52.1443 65.2346 52.4362 64.636 52.5027C64.0379 52.5699 63.452 52.4015 62.9882 52.0299C62.988 52.0297 62.9877 52.0296 62.9874 52.0294C62.9872 52.0292 62.9869 52.0291 62.9867 52.0289L58.5864 48.5131C57.8766 47.9461 56.8419 48.0619 56.2752 48.7713C55.7084 49.4808 55.824 50.5156 56.5334 51.0825L60.9323 54.5971C61.8973 55.3698 62.0563 56.7815 61.2883 57.7417C60.5134 58.7073 59.099 58.8644 58.1333 58.091L53.3602 54.282C52.6504 53.7156 51.6157 53.8319 51.0492 54.5417C50.4828 55.2514 50.5989 56.2862 51.3089 56.8527L56.0797 60.6598C56.5446 61.0322 56.8372 61.566 56.9036 62.1631C56.9699 62.759 56.8021 63.3422 56.4278 63.8084C56.058 64.2721 55.5248 64.564 54.9264 64.6306C54.3273 64.6966 53.7411 64.5293 53.2777 64.1595L50.9027 62.2601C50.8986 62.2568 50.8949 62.2534 50.8908 62.2501L48.8842 60.6459L48.5091 60.3459C47.7995 59.7786 46.7648 59.8938 46.1978 60.6029C46.1269 60.6917 46.0666 60.7855 46.0169 60.8828C45.7788 61.3482 45.7827 61.894 46.0062 62.3517C46.1096 62.5637 46.2586 62.7572 46.455 62.9143L48.843 64.824C49.8015 65.5981 49.9582 67.0049 49.1908 67.9645C48.4183 68.93 47.0037 69.0877 46.0379 68.3172L43.3286 66.1528C43.4415 64.7453 43.0244 63.3726 42.1423 62.2696C41.594 61.5844 40.914 61.0654 40.1673 60.7172C40.7146 59.958 41.062 59.066 41.1699 58.1069C41.3357 56.6341 40.9196 55.1889 39.9967 54.035C39.4483 53.3516 38.7691 52.8337 38.0238 52.4864C38.5721 51.7248 38.9196 50.831 39.0265 49.8707C39.1901 48.4011 38.7737 46.9588 37.8541 45.8088C36.2718 43.8304 33.5959 43.2291 31.3687 44.1743C31.1905 43.3557 30.8262 42.5834 30.2885 41.911C28.3845 39.5317 24.8978 39.1425 22.5148 41.0439L18.1115 44.5636C17.1158 43.2929 15.7622 42.2391 14.1618 41.4875L23.2195 25.4667L28.0421 26.8641C28.0641 27.1221 28.1059 27.3934 28.1758 27.6809C29.3432 32.4808 33.7626 34.7173 39.7096 33.519C44.7204 32.5108 46.7832 34.0127 50.8917 37.0045C51.3179 37.3148 51.7608 37.6373 52.2244 37.9693C55.179 40.0891 58.3364 42.5806 60.4534 44.2694L65.7914 48.5355C66.2552 48.9055 66.5471 49.4383 66.6133 50.0359C66.6796 50.633 66.5119 51.2165 66.1391 51.6809ZM66.0879 44.5626L62.5057 41.6997C60.3595 39.9876 57.1575 37.4612 54.1407 35.2967C53.6835 34.9693 53.2476 34.6517 52.8279 34.3462C48.5677 31.2438 45.4887 29.0024 39.0607 30.2951C37.0932 30.6916 32.4058 31.1552 31.3719 26.9045C31.2262 26.3044 31.3742 26.0982 31.4372 26.0102C31.657 25.7037 32.5418 24.9576 36.0033 24.6511L43.348 23.9938C44.5449 23.8846 45.1453 23.8296 46.972 24.4677L51.2753 25.9721C51.7537 26.1392 52.1362 26.2839 52.4738 26.4118C54.5459 27.1967 55.095 27.1966 57.8171 26.4087L60.9897 25.4894L70.0352 41.4885C68.4343 42.2396 67.082 43.2925 66.0879 44.5626Z" fill="#2BAAE1"/>
<path d="M75.7404 29.6982C76.6485 29.6982 77.3849 28.9595 77.3849 28.0512C77.3849 27.143 76.6485 26.4067 75.7404 26.4067C74.8324 26.4067 74.0959 27.1431 74.0959 28.0512V28.0558C74.0959 28.9641 74.8324 29.6982 75.7404 29.6982Z" fill="#2BAAE1"/>
</svg>
