<svg width="80" height="74" viewBox="0 0 80 74" fill="none" xmlns="http://www.w3.org/2000/svg">
<path d="M39.998 12.4632C40.8608 12.4632 41.5605 11.7612 41.5605 10.8954V1.56782C41.5605 0.702055 40.8608 0 39.998 0C39.1352 0 38.4355 0.702055 38.4355 1.56782V10.8954C38.4355 11.7602 39.1352 12.4632 39.998 12.4632ZM28.9352 15.6039C29.2405 15.9102 29.6399 16.0629 30.0393 16.0629C30.4397 16.0629 30.8391 15.9092 31.1444 15.6029C31.754 14.9902 31.754 13.9979 31.1434 13.3862L27.4047 9.63794C26.7941 9.02527 25.8052 9.02628 25.1946 9.63894C24.585 10.2516 24.585 11.2439 25.1956 11.8556L28.9352 15.6039ZM49.7235 16.31C50.1239 16.31 50.5233 16.1563 50.8286 15.85L54.8034 11.8586C55.413 11.2469 55.413 10.2536 54.8024 9.64196C54.1918 9.02929 53.2029 9.03029 52.5923 9.64196L48.6174 13.6333C48.0078 14.246 48.0078 15.2383 48.6184 15.85C48.9247 16.1563 49.3241 16.31 49.7235 16.31ZM69.766 41.3891H68.5048C69.5338 40.0432 70.1474 38.3619 70.1474 36.538V34.3254C70.1474 29.9212 66.5769 26.3386 62.1876 26.3386C57.7984 26.3386 54.2279 29.9222 54.2279 34.3254V36.0458L42.4724 24.2505C41.8198 23.5967 40.8608 23.3868 40 23.6981C39.1392 23.3868 38.1792 23.5967 37.5276 24.2515L25.7721 36.0458V34.3254C25.7721 29.9212 22.2006 26.3386 17.8124 26.3386C13.4241 26.3386 9.85261 29.9222 9.85261 34.3254V36.538C9.85261 38.3619 10.4662 40.0432 11.4952 41.3891H10.234C4.59148 41.3891 0 45.9961 0 51.6588V72.4312C0 73.2979 0.699682 73.999 1.56252 73.999H8.16396C8.32011 73.999 8.47126 73.9759 8.6134 73.9327C8.75554 73.9749 8.90668 73.999 9.06284 73.999H26.5629C27.4257 73.999 28.1254 73.2969 28.1254 72.4312V67.101C28.1254 66.2352 27.4257 65.5332 26.5629 65.5332C25.7001 65.5332 25.0004 66.2352 25.0004 67.101V70.8633H10.6254V52.9996C10.6254 52.1339 9.92568 51.4318 9.06284 51.4318C8.2 51.4318 7.50031 52.1339 7.50031 52.9996V70.8643H3.12505V51.6588C3.12505 47.7257 6.31416 44.5247 10.234 44.5247H21.0936C21.524 44.5247 21.9134 44.35 22.1956 44.0678C22.1966 44.0667 22.1976 44.0657 22.1986 44.0657L38.4285 27.7809C38.3224 31.036 37.3124 34.1727 35.4926 36.8845L25.2666 52.1238C25.0935 52.3829 25.0004 52.6873 25.0004 52.9996V54.7161C25.0004 55.5819 25.7001 56.2839 26.5629 56.2839C27.4257 56.2839 28.1254 55.5819 28.1254 54.7161V53.4787L38.0851 38.6371C38.8459 37.5032 39.4845 36.305 40 35.0616C40.5165 36.305 41.1541 37.5032 41.9149 38.6371L51.8746 53.4787V72.4322C51.8746 73.2989 52.5743 74 53.4371 74H70.9372C71.0933 74 71.2445 73.9769 71.3866 73.9337C71.5287 73.9759 71.6799 74 71.836 74H78.4375C79.3003 74 80 73.2979 80 72.4322V51.6588C80 45.9961 75.4085 41.3891 69.766 41.3891ZM22.6471 36.538C22.6471 39.2126 20.478 41.3891 17.8124 41.3891C15.1468 41.3891 12.9777 39.2126 12.9777 36.538V34.3254C12.9777 31.6497 15.1468 29.4743 17.8124 29.4743C20.478 29.4743 22.6471 31.6507 22.6471 34.3254V36.538ZM57.3529 34.3254C57.3529 31.6497 59.522 29.4743 62.1876 29.4743C64.8532 29.4743 67.0223 31.6507 67.0223 34.3254V36.538C67.0223 39.2126 64.8532 41.3891 62.1876 41.3891C59.522 41.3891 57.3529 39.2126 57.3529 36.538V34.3254ZM76.875 70.8643H72.4997V59.2619C72.4997 58.3961 71.8 57.694 70.9372 57.694C70.0743 57.694 69.3746 58.3961 69.3746 59.2619V70.8633H54.9996V52.9996C54.9996 52.6873 54.9065 52.3829 54.7334 52.1238L44.5074 36.8855C42.6876 34.1737 41.6786 31.0381 41.5725 27.7819L57.8024 44.0667C57.8234 44.0878 57.8424 44.1049 57.8614 44.121C58.1387 44.3721 58.505 44.5267 58.9074 44.5267H69.767C73.6868 44.5267 76.876 47.7267 76.876 51.6598V70.8643H76.875ZM70.9372 51.4318C70.5258 51.4318 70.1234 51.5995 69.8321 51.8908C69.5418 52.1821 69.3746 52.5868 69.3746 52.9996C69.3746 53.4114 69.5418 53.8162 69.8321 54.1074C70.1224 54.3997 70.5258 54.5664 70.9372 54.5664C71.3486 54.5664 71.751 54.3997 72.0412 54.1074C72.3315 53.8162 72.4997 53.4114 72.4997 52.9996C72.4997 52.5868 72.3325 52.1841 72.0412 51.8908C71.752 51.5995 71.3486 51.4318 70.9372 51.4318ZM26.5619 59.7329C26.1515 59.7329 25.7481 59.9006 25.4568 60.1919C25.1665 60.4832 24.9994 60.8879 24.9994 61.2997C24.9994 61.7125 25.1665 62.1173 25.4568 62.4086C25.7471 62.6998 26.1505 62.8676 26.5619 62.8676C26.9733 62.8676 27.3757 62.6998 27.667 62.4086C27.9573 62.1173 28.1254 61.7125 28.1254 61.2997C28.1254 60.8879 27.9583 60.4832 27.667 60.1919C27.3767 59.9006 26.9733 59.7329 26.5619 59.7329Z" fill="#F6364D"/>
</svg>
