<svg width="76" height="80" viewBox="0 0 76 80" fill="none" xmlns="http://www.w3.org/2000/svg">
<path d="M48.0007 55.9998C48.0218 50.5626 46.1757 45.2843 42.7721 41.0459C39.6679 37.1621 35.4399 34.3311 30.667 32.9406V29.1037C32.7495 28.3665 33.8403 26.081 33.103 23.9982C32.5381 22.4019 31.0286 21.3341 29.3338 21.3341H18.6671C16.4584 21.3351 14.6685 23.1261 14.6685 25.3348C14.6695 27.0299 15.7362 28.5393 17.3339 29.1037V32.9406C12.561 34.3311 8.33298 37.1621 5.22883 41.0459C1.82519 45.2843 -0.0198718 50.5626 0.000161432 55.9998C0.000161432 69.2326 10.767 80 23.9999 80C37.2339 80 48.0007 69.2326 48.0007 55.9998ZM18.6671 24.0002H29.3338C30.07 24.0002 30.667 24.5966 30.667 25.3328C30.667 26.069 30.07 26.6663 29.3338 26.6663H18.6671C17.9309 26.6663 17.3339 26.069 17.3339 25.3328C17.3339 24.5966 17.9309 24.0002 18.6671 24.0002ZM24.0009 77.3339C12.2244 77.3199 2.68061 67.7761 2.66658 55.9998C2.64755 51.169 4.28827 46.476 7.31329 42.7091C10.2722 39.0051 14.375 36.3869 18.9796 35.2621C19.5776 35.1182 19.9993 34.5828 20.0003 33.9665V29.3335H28.0006V33.9665C28.0006 34.5828 28.4223 35.1192 29.0213 35.2621C33.6269 36.3869 37.7297 39.0061 40.6886 42.7091C43.7136 46.477 45.3533 51.168 45.3343 55.9998C45.3203 67.7761 35.7765 77.3199 24.0009 77.3339ZM69.3341 0H10.6668C6.98674 0.0039957 4.0048 2.98679 4.00079 6.66683V34.6667H6.66721V6.66683C6.66922 4.45921 8.45919 2.67013 10.6668 2.66713H69.3341C71.5418 2.66913 73.3317 4.45921 73.3337 6.66683V73.3342C73.3307 75.5418 71.5418 77.3319 69.3341 77.3339H40.0005V80H69.3341C73.0142 79.996 75.9961 77.0142 76.0002 73.3332V6.66683C75.9961 2.98679 73.0142 0.0039957 69.3341 0ZM52.0004 45.3333H69.3341V42.6651H52.0004V45.3333ZM52.0004 50.6665H69.3341V48.0014H52.0004V50.6665ZM52.0004 55.9998H66.6667V53.3337H52.0004V55.9998ZM69.3341 37.3339H61.3338V40H69.3341V37.3339ZM56 37.3339V40H58.6664V37.3339H56ZM50.6672 73.3332H69.3341V70.666H66.6667V63.9992H64.0003V70.666H61.3338V61.3341H58.6674V70.667H56.001V66.6663H53.3346V70.667H50.6682V73.3332H50.6672ZM10.6668 6.66683V20.0005H13.3343V17.3334H28.0016V14.6672H13.3343V12.0001H33.3344V9.33297H13.3343V6.66683H10.6668ZM33.3334 17.3334V14.6672H30.667V17.3334H33.3334ZM36.0008 9.33297V12.0001H38.6683V9.33297H36.0008ZM9.28656 44.5121L11.388 46.1544C13.3533 43.6301 16.0327 41.7541 19.0778 40.7722L18.2584 38.2349C14.7055 39.3797 11.5794 41.5673 9.28656 44.5121ZM6.2335 50.257L8.7707 51.0761C9.04516 50.228 9.38973 49.4069 9.80141 48.6167L7.43649 47.3831C6.95669 48.3061 6.55403 49.267 6.2335 50.257Z" fill="#2BAAE1"/>
<path d="M42.5998 53.6353C42.5467 52.9011 41.9076 52.3487 41.1734 52.4026C40.8539 52.4256 40.5534 52.5634 40.327 52.7892L39.3093 53.8061C37.4813 55.6301 34.5214 55.6301 32.6924 53.8061L31.862 52.976C28.9912 50.1131 24.3435 50.1131 21.4728 52.976L20.6424 53.8061C18.8144 55.6301 15.8544 55.6301 14.0254 53.8061C11.993 51.7883 8.97504 51.133 6.28758 52.1239C5.80579 52.3017 5.46823 52.7392 5.42115 53.2517C5.36105 53.887 5.332 54.4604 5.332 55.0018C5.332 65.3117 13.6889 73.6687 23.9989 73.6687C34.308 73.6687 42.6659 65.3127 42.6659 55.0018C42.6659 54.5593 42.6348 54.1407 42.6058 53.7362L42.5998 53.6353ZM24.001 71.0016C15.1683 70.9916 8.01044 63.8333 8.00042 55.0008C8.00042 54.81 8.00543 54.6122 8.01345 54.4084C9.51594 54.1377 11.0555 54.6172 12.1393 55.6911C15.01 58.556 19.6578 58.556 22.5285 55.6911L23.3589 54.861C25.1879 53.0369 28.1468 53.0369 29.9759 54.861L30.8062 55.6911C33.2323 58.1115 37.0055 58.536 39.9093 56.718C39.0208 64.8392 32.1675 70.9906 24.001 71.0016ZM13.3343 63.0012H16.0007V60.3351H13.3343V63.0012ZM21.3335 68.3345H23.9999V65.6673H21.3335V68.3345ZM25.3342 60.3351H28.0016V57.6679H25.3342V60.3351ZM30.667 64.3338H33.3334V61.6676H30.667V64.3338ZM66.6667 17.6679V12.3357C66.6667 11.8292 66.3812 11.3697 65.9295 11.142L61.3328 8.84443V5.66785H58.6674V8.84443L54.3533 11.0011H50.6682V13.6682H53.3346V18.1764L49.334 20.1782L45.3343 18.1764V15.0018H42.6679V18.1764L38.0713 20.4749C37.6195 20.7027 37.3341 21.1632 37.3341 21.6686V28.3355C37.3341 28.8399 37.6195 29.3024 38.0713 29.5282L42.6679 31.8267V35.0023H45.3343V31.8257L49.334 29.8259L54.0708 32.1943C54.4464 32.3821 54.8882 32.3821 55.2628 32.1943L60.3142 29.669H63.9993V27.0019H61.3328V22.4928L65.647 20.3361H69.3331V17.6679H66.6667ZM48.0007 27.5104L44.0001 29.5102L40.0005 27.5104V22.4918L44.0001 20.4929L48.0007 22.4918V27.5104ZM58.6674 27.5104L54.6678 29.5102L50.6672 27.5104V22.4918L54.6678 20.4929L58.6674 22.4918V27.5104ZM64.0003 18.1764L60.0006 20.1782L56.001 18.1764V13.1588L60.0006 11.1589L64.0013 13.1588V18.1764H64.0003Z" fill="#F6364D"/>
</svg>
