<svg width="80" height="80" viewBox="0 0 80 80" fill="none" xmlns="http://www.w3.org/2000/svg">
<path fill-rule="evenodd" clip-rule="evenodd" d="M74.6663 80H13.3327C10.3875 80 8 77.6468 8 74.7452V73.4328H6.66633C2.98506 73.4328 0 70.4903 0 66.8636C0 63.2359 2.98506 60.2934 6.66633 60.2934H8V1.31344C8 0.588301 8.59761 0 9.33267 0H38.1992H43.1952H70.6663C71.4024 0 71.999 0.588301 71.999 1.31344V57.6655H78.6663C79.4024 57.6655 80 58.2538 80 58.979V74.7452C80 77.6478 77.6115 80 74.6663 80ZM6.66633 62.9203C4.45717 62.9203 2.66633 64.6842 2.66633 66.8636C2.66633 69.039 4.45717 70.8039 6.66633 70.8039V62.9203ZM9.33267 70.8039H11.999V62.9213H9.33267V70.8039ZM69.3327 74.7452V2.62788H42.7291H38.6663H10.6663V60.2944H53.3327C53.5388 60.2974 53.741 60.3503 53.9233 60.4452V60.4322L64.5896 65.688C64.8496 65.8148 65.0588 66.0216 65.1882 66.2773C65.5169 66.9265 65.249 67.7156 64.5896 68.0392L53.9243 73.294V73.281C53.742 73.3769 53.5398 73.4278 53.3337 73.4328H10.6663V74.7462C10.6663 76.1975 11.8606 77.3741 13.3327 77.3741H70.0737C69.5946 76.5781 69.3386 75.6711 69.3327 74.7452ZM52 65.5492V62.9213H14.6663V65.5492H52ZM14.6663 68.176V70.8039H52V68.176H14.6663ZM54.6663 63.7333V69.9919L61.0189 66.8636L54.6663 63.7333ZM77.3327 60.2934H71.999V74.7452C71.999 76.1965 73.1932 77.3731 74.6653 77.3731C76.1384 77.3731 77.3317 76.1965 77.3317 74.7452V60.2934H77.3327ZM22.6663 52.9122H65.3327V55.54H22.6663V52.9122ZM17.3337 52.9122H20V55.54H17.3337V52.9122Z" fill="#2BAAE1"/>
<path d="M42.6115 29.7067L36.995 28.3244V27.4704C38.6683 26.3417 39.6663 24.474 39.6613 22.4783V14.8993L39.1942 12.2714C37.7291 8.17132 33.1693 6.01787 29.0089 7.46216C26.7261 8.25422 24.9313 10.0241 24.1275 12.2714L23.6613 14.8993V22.4713C23.6544 24.471 24.6534 26.3417 26.3277 27.4714V28.3254L20.7111 29.7077C17.741 30.4369 15.6574 33.0668 15.6603 36.0812V45.1164H18.3267V36.0812C18.3267 34.2723 19.5757 32.6972 21.3556 32.2577L27.9821 30.6247C28.5747 30.4788 28.992 29.9535 28.992 29.3502V26.7223C28.992 26.2249 28.7072 25.7694 28.255 25.5467C27.0687 24.9674 26.3207 23.7748 26.3267 22.4703V14.8983C26.3267 11.9948 28.7141 9.64257 31.6593 9.64257C34.6056 9.64257 36.993 11.9958 36.993 14.8983V22.4703C36.998 23.7748 36.25 24.9684 35.0637 25.5467C34.6115 25.7694 34.3267 26.2239 34.3267 26.7223V29.3502C34.3267 29.9535 34.744 30.4788 35.3376 30.6247L41.9641 32.2577C43.744 32.6962 44.993 34.2723 44.993 36.0812V45.1164H47.6593V36.0812C47.6653 33.0648 45.5817 30.4359 42.6115 29.7067ZM20.996 47.7433H23.6623V38.5462H20.996V47.7433ZM39.6623 47.7433H42.3287V38.5462H39.6623V47.7433ZM51.6623 21.4655H54.3287V18.8386H51.6623V21.4655ZM56.996 18.8386V21.4655H66.3297V18.8386H56.996ZM51.6623 26.7223H54.3287V24.0954H51.6623V26.7223ZM56.996 26.7223H66.3297V24.0954H56.996V26.7223ZM51.6623 33.2905H54.3287V30.6636H51.6623V33.2905ZM56.996 33.2905H66.3297V30.6636H56.996V33.2905ZM51.6623 38.5462H54.3287V35.9194H51.6623V38.5462ZM56.996 38.5462H66.3297V35.9194H56.996V38.5462Z" fill="#F6364D"/>
</svg>
