<svg width="12" height="15" viewBox="0 0 12 15" fill="none" xmlns="http://www.w3.org/2000/svg">
<path d="M10.9234 2.60804C9.79107 0.950713 7.99649 0 6.00017 0C4.00386 0 2.20928 0.950713 1.07695 2.60804C-0.049823 4.25698 -0.309998 6.34459 0.379593 8.18897C0.564042 8.69265 0.857242 9.18199 1.24897 9.64055L5.60535 14.8154C5.70387 14.9325 5.84823 15 6.00017 15C6.15212 15 6.29648 14.9325 6.395 14.8154L10.7502 9.64195C11.1436 9.18076 11.4365 8.69194 11.6194 8.19232C12.3103 6.34459 12.0502 4.25698 10.9234 2.60804ZM10.6482 7.82499C10.5071 8.21048 10.2769 8.5916 9.96413 8.95819C9.96327 8.95907 9.9624 8.95995 9.9617 8.96101L6.00017 13.6666L2.03622 8.95805C1.72366 8.59178 1.49338 8.21068 1.35094 7.8215C0.780647 6.29616 0.997078 4.57011 1.93007 3.20455C2.86599 1.83463 4.34958 1.04895 6.00017 1.04895C7.65074 1.04895 9.13416 1.8346 10.0701 3.20455C11.0033 4.57011 11.2199 6.29616 10.6482 7.82499Z" fill="#2BAAE1"/>
<path d="M6.0002 3.1123C4.39888 3.1123 3.09595 4.42978 3.09595 6.04937C3.09595 7.66896 4.39871 8.98644 6.0002 8.98644C7.6017 8.98644 8.90445 7.66896 8.90445 6.04937C8.90445 4.42996 7.60152 3.1123 6.0002 3.1123ZM6.0002 7.93747C4.97074 7.93747 4.13317 7.09044 4.13317 6.04935C4.13317 5.00825 4.97074 4.16122 6.0002 4.16122C7.02966 4.16122 7.86723 5.00825 7.86723 6.04935C7.86723 7.09044 7.02966 7.93747 6.0002 7.93747Z" fill="#2BAAE1"/>
</svg>
