<svg width="12" height="10" viewBox="0 0 12 10" fill="none" xmlns="http://www.w3.org/2000/svg">
<path d="M10.5938 0H1.40625C0.630844 0 0 0.647019 0 1.44231V2.63209L5.16073 6.56913C5.41172 6.7606 5.70586 6.85635 6 6.85635C6.29414 6.85635 6.58828 6.76063 6.83927 6.56913L12 2.63209V1.44231C12 0.647019 11.3692 0 10.5938 0ZM11.0625 2.14894L6.27977 5.7976C6.11243 5.92526 5.88757 5.92526 5.72025 5.7976L0.9375 2.14894V1.44231C0.9375 1.17721 1.14778 0.961538 1.40625 0.961538H10.5938C10.8522 0.961538 11.0625 1.17721 11.0625 1.44231V2.14894ZM11.0625 4.54565L12 3.83046V8.55769C12 9.35298 11.3692 10 10.5938 10H1.40625C0.630844 10 0 9.35298 0 8.55769V3.83046L0.9375 4.54565V8.55769C0.9375 8.82279 1.14778 9.03846 1.40625 9.03846H10.5938C10.8522 9.03846 11.0625 8.82279 11.0625 8.55769V4.54565Z" fill="#2BAAE1"/>
</svg>
