<svg width="20" height="16" viewBox="0 0 20 16" fill="none" xmlns="http://www.w3.org/2000/svg">
<path d="M19.2183 9.18553C19.6502 9.18553 20 8.85381 20 8.44481V2.96289C20 1.32972 18.5976 0 16.8754 0H3.12459C1.40137 0 0 1.32972 0 2.96289V13.0371C0 14.6712 1.40137 16 3.12459 16H16.8744C18.5976 16 19.999 14.6712 19.999 13.0371V12.8891C19.999 12.6649 19.892 12.4528 19.7071 12.3124L13.7938 7.79833L18.4377 5.06067V8.44481C18.4377 8.85381 18.7875 9.18553 19.2183 9.18553ZM1.5623 5.06067L6.20421 7.79738L1.5623 11.3304V5.06067ZM18.4237 13.2331C18.3228 13.9578 17.666 14.5186 16.8744 14.5186H3.12459C2.32895 14.5186 1.66925 13.9512 1.57429 13.2209L7.61157 8.62669L8.35024 9.06208C9.36778 9.66239 10.6322 9.66239 11.6508 9.06208L12.3884 8.62669L18.4237 13.2331ZM10.8251 7.80398C10.3164 8.10461 9.68364 8.10461 9.17487 7.80398L1.58429 3.32948C1.57729 3.32477 1.56929 3.32006 1.5623 3.31629V2.96289C1.5623 2.14584 2.26298 1.48145 3.12459 1.48145H16.8744C17.736 1.48145 18.4367 2.14584 18.4367 2.96289V3.31629L10.8251 7.80398Z" fill="#2BAAE1"/>
</svg>
