<svg width="60" height="60" viewBox="0 0 60 60" fill="none" xmlns="http://www.w3.org/2000/svg">
<path d="M30 60C28.34 60 26.6754 59.8642 25.0523 59.5963C24.5715 59.5171 24.2461 59.0629 24.3253 58.582C24.4046 58.1013 24.859 57.7771 25.3396 57.8551C26.868 58.1074 28.436 58.2353 30 58.2353C37.5421 58.2353 44.6325 55.2982 49.9654 49.9654C55.2983 44.6324 58.2354 37.542 58.2354 29.9999C58.2354 22.4578 55.2983 15.3674 49.9655 10.0345C44.6325 4.7018 37.5421 1.76473 30 1.76473C22.4579 1.76473 15.3675 4.7018 10.0346 10.0345C4.7018 15.3675 1.76473 22.4579 1.76473 30C1.76473 37.5421 4.7018 44.6325 10.0346 49.9654C13.2305 53.1612 17.1659 55.5639 21.4158 56.9139C21.8803 57.0615 22.1372 57.5576 21.9896 58.022C21.842 58.4865 21.3456 58.7433 20.8815 58.5959C16.3637 57.1607 12.1814 54.6077 8.78684 51.2133C3.12047 45.5471 0 38.0134 0 30C0 21.9866 3.12047 14.4529 8.78684 8.78672C14.4529 3.12047 21.9866 0 30 0C38.0134 0 45.5471 3.12047 51.2133 8.78684C56.8795 14.4529 60 21.9866 60 30C60 38.0134 56.8795 45.5471 51.2132 51.2133C45.5471 56.8795 38.0134 60 30 60ZM30 55.8468C15.748 55.8468 4.15324 44.252 4.15324 30C4.15324 20.7534 9.15656 12.1492 17.2107 7.54465C17.6341 7.3023 18.173 7.44961 18.4147 7.87266C18.6567 8.29582 18.5098 8.83477 18.0867 9.07664C10.5806 13.3677 5.91797 21.385 5.91797 30C5.91797 43.2789 16.7211 54.082 30 54.082C43.2789 54.082 54.082 43.2789 54.082 30C54.082 16.7211 43.2789 5.91797 30 5.91797C27.1385 5.91797 24.3371 6.41719 21.6737 7.4018C21.2163 7.57043 20.709 7.33699 20.54 6.88008C20.3712 6.42293 20.6047 5.91551 21.0618 5.74641C23.9217 4.68926 26.929 4.15324 30 4.15324C44.252 4.15324 55.8468 15.748 55.8468 30C55.8468 44.252 44.252 55.8468 30 55.8468Z" fill="#F6364D"/>
<path d="M29.8899 43.6494C28.3784 43.6495 27.0395 42.6867 26.5584 41.2536C26.5465 41.2178 26.5356 41.1837 26.5254 41.1495L23.4378 30.6833L21.5774 40.9901C21.4336 41.7867 20.9885 42.4797 20.3236 42.9411C19.6587 43.403 18.8538 43.5779 18.0569 43.4338C17.2607 43.2902 16.5678 42.8448 16.1063 42.1799C15.6447 41.515 15.4697 40.7101 15.6134 39.9137L19.3867 19.0081C19.387 19.0072 19.3888 18.9973 19.389 18.9965C19.6905 17.4294 21.0129 16.2606 22.6049 16.1537C24.1987 16.0477 25.6639 17.0289 26.1719 18.5414C26.1834 18.5753 26.1947 18.611 26.2054 18.6469L29.8482 30.9947L33.3591 18.6789C33.3688 18.6443 33.38 18.6076 33.3919 18.5713C33.8833 17.0565 35.339 16.0599 36.9325 16.1502C38.5247 16.2402 39.8594 17.3946 40.1778 18.9577C40.1806 18.9716 40.1832 18.9847 40.1856 18.998L42.7067 32.1894C42.7982 32.668 42.4844 33.1302 42.0058 33.2217C41.5279 33.3137 41.065 32.9995 40.9735 32.5208L38.4515 19.325C38.4506 19.3207 38.4497 19.3164 38.449 19.312C38.29 18.5317 37.6256 17.9569 36.8326 17.9122C36.0408 17.865 35.3146 18.3635 35.0695 19.1191C35.0643 19.135 35.0606 19.1477 35.0568 19.1606L30.7113 34.4041C30.6036 34.7817 30.2594 35.0427 29.8667 35.0446C29.4699 35.0432 29.1276 34.7885 29.0164 34.4119L24.5133 19.1481C24.5093 19.1347 24.5045 19.1197 24.4995 19.1049C24.246 18.3502 23.5149 17.8601 22.7229 17.9145C21.9303 17.9675 21.2719 18.5496 21.1218 19.3297C21.1213 19.3323 21.1196 19.3415 21.1191 19.344L17.3499 40.2271C17.2898 40.5597 17.3629 40.8959 17.5557 41.1735C17.7485 41.4512 18.0379 41.6372 18.3705 41.6972C18.7029 41.7572 19.0394 41.6844 19.3169 41.4916C19.5946 41.2989 19.7805 41.0094 19.8406 40.6766L22.3621 26.7063C22.4348 26.3039 22.7744 26.0041 23.1827 25.982C23.59 25.9615 23.9611 26.2212 24.0767 26.6134L28.2169 40.6472C28.221 40.6609 28.2262 40.6773 28.2317 40.6936C28.4706 41.4054 29.1371 41.8848 29.8895 41.8847H29.9035C30.6557 41.8808 31.321 41.3946 31.5544 40.6749C31.5583 40.6624 31.5624 40.6498 31.5659 40.6369L35.5655 26.6068C35.6776 26.2138 36.0435 25.946 36.4533 25.9674C36.8616 25.9855 37.2042 26.2816 37.2808 26.6831L39.9576 40.6893C40.021 41.0211 40.21 41.3085 40.4899 41.4986C40.7697 41.6885 41.1063 41.7581 41.438 41.6947C42.1233 41.5636 42.5745 40.8995 42.4434 40.2142L41.7036 36.3428C41.612 35.8642 41.9259 35.402 42.4045 35.3105C42.8824 35.2183 43.3452 35.5328 43.4368 36.0114L44.1767 39.8828C44.4903 41.5239 43.4104 43.1141 41.7693 43.4279C40.975 43.58 40.1683 43.4133 39.4988 42.9585C38.8287 42.5038 38.3763 41.8154 38.2243 41.0206L36.2446 30.662L33.2648 41.115C33.2561 41.1461 33.245 41.1825 33.2331 41.2188C32.7642 42.6648 31.428 43.6415 29.9081 43.6492H29.8899V43.6494Z" fill="#F6364D"/>
</svg>
