<svg width="20" height="20" viewBox="0 0 20 20" fill="none" xmlns="http://www.w3.org/2000/svg">
<path fill-rule="evenodd" clip-rule="evenodd" d="M8.13798 14.7816C8.00715 14.9125 7.84936 14.9774 7.6636 14.9774C7.47785 14.9774 7.32006 14.9115 7.18923 14.7816C7.0584 14.6508 6.99349 14.493 6.99349 14.3072V6.62941C6.99349 6.53652 7.01046 6.44863 7.04442 6.36673C7.07738 6.28482 7.12531 6.21291 7.18623 6.15198C7.24715 6.09106 7.31806 6.04311 7.39795 6.00915C7.47785 5.97519 7.56673 5.95921 7.6636 5.95921H9.61203C9.91564 5.95921 10.2092 5.99917 10.4939 6.07907C10.7785 6.15897 11.0451 6.27284 11.2938 6.42066C11.5425 6.56848 11.7702 6.74427 11.9769 6.94903C12.1836 7.15378 12.3594 7.38051 12.5052 7.62921C12.651 7.87791 12.7649 8.14459 12.8468 8.42925C12.9287 8.71391 12.9696 8.88271 12.9696 9.18634C12.9696 10.1052 12.639 10.6776 11.9769 11.3398C11.3238 11.993 10.5348 12.3206 9.61203 12.3206H8.33372V14.3072C8.33372 14.493 8.26881 14.6508 8.13798 14.7816ZM9.61203 10.9792C9.88567 10.9792 10.1443 10.9263 10.387 10.8214C10.6297 10.7155 10.8115 10.6666 10.9942 10.4848C11.178 10.303 11.3547 10.1212 11.4616 9.87651C11.5695 9.63181 11.6234 9.46401 11.6234 9.18634C11.6234 8.90368 11.5695 8.76485 11.4616 8.52014C11.3537 8.27543 11.2089 8.06269 11.0252 7.88091C10.8414 7.70013 10.6277 7.5573 10.383 7.45342C10.1383 7.35154 9.88168 7.29961 9.61203 7.29961H8.33372V10.9792H9.61203ZM18.3325 15.5487C18.0929 15.9073 17.6075 16.0042 17.248 15.7644C16.8894 15.5247 16.7926 15.0393 17.0323 14.6797C19.6039 10.9233 18.5043 6.16397 15.4344 3.53113C15.3824 3.48718 15.3305 3.44223 15.2776 3.40029C15.1098 3.26245 14.929 3.1396 14.7503 3.01575C13.5798 2.2247 12.2336 1.74128 10.8394 1.60244C10.6557 1.58646 10.4719 1.57148 10.2841 1.56748C10.1473 1.56349 10.0115 1.5565 9.87469 1.5585C9.75585 1.55949 9.639 1.56848 9.52116 1.57547C9.36536 1.58446 9.20857 1.59245 9.05277 1.60943C8.92294 1.62442 8.79611 1.64839 8.66928 1.66836C8.52447 1.69233 8.38066 1.71231 8.23685 1.74427C8.10203 1.77324 7.9702 1.81119 7.83737 1.84715C7.70455 1.88211 7.57172 1.91507 7.4399 1.95702C7.30008 2.00296 7.16426 2.0559 7.02844 2.10784C6.9076 2.15378 6.78676 2.19773 6.66692 2.24967C6.52311 2.31159 6.38329 2.38351 6.24347 2.45342C6.13761 2.50636 6.03175 2.5573 5.92789 2.61523C5.80805 2.68115 5.6932 2.75606 5.57735 2.82797C5.41756 2.92585 5.26576 3.03073 5.11496 3.1366C3.97646 3.95362 3.05268 5.04631 2.43449 6.31679C2.34062 6.51355 2.24674 6.71031 2.16984 6.91307C2.14488 6.97599 2.12291 7.04092 2.09994 7.10484C0.889531 10.5467 1.93515 14.6798 5.1639 16.9011L5.1649 16.8991C5.30871 17.003 5.4665 17.0799 5.6163 17.1728C5.83701 17.3046 6.05173 17.4434 6.29141 17.5583C6.3014 17.5633 6.30739 17.5733 6.31738 17.5783C8.84305 18.8108 11.9859 18.7079 14.3917 17.2207C14.7612 16.997 15.2416 17.1148 15.4653 17.4844C15.689 17.8539 15.5712 18.3344 15.2017 18.5581C13.5938 19.5519 11.7013 20.0213 9.81876 19.9844V20.0004C9.77782 20.0004 9.74486 19.9834 9.70791 19.9764C8.29178 19.9334 6.89262 19.5939 5.62329 18.9676C5.6153 18.9636 5.60631 18.9646 5.59832 18.9606C5.30571 18.8218 5.02408 18.664 4.74944 18.4972C4.74245 18.4932 4.73446 18.4902 4.72747 18.4852V18.4832C1.0643 16.2319 -0.834197 11.5795 0.352239 7.40348C0.367219 7.34855 0.392187 7.3016 0.407167 7.24667C0.516023 6.85714 0.650846 6.48558 0.802646 6.12202C0.850582 6.00516 0.893526 5.8853 0.945457 5.77244C1.08228 5.48279 1.23807 5.20712 1.39886 4.93444C1.51071 4.74068 1.61857 4.54491 1.74141 4.36313C1.82829 4.23728 1.92517 4.12142 2.01705 4.00057C3.39423 2.15178 5.32269 0.910273 7.4379 0.354939C9.54712 -0.222368 11.8381 -0.110502 13.9553 0.801404C14.0951 0.860333 14.2369 0.912271 14.3748 0.977193C14.5725 1.07408 14.7642 1.18894 14.957 1.3008C15.2326 1.45662 15.5053 1.61742 15.7689 1.8022C15.8708 1.87412 15.9677 1.95702 16.0675 2.03392C16.3801 2.27264 16.6837 2.52633 16.9723 2.80899C17.0133 2.84795 17.0582 2.87691 17.0982 2.91687C17.1851 3.00076 17.247 3.10164 17.3299 3.18854C17.5406 3.41726 17.7473 3.64999 17.9411 3.90468C18.1518 4.17635 18.3405 4.45802 18.5193 4.74867C18.5712 4.83357 18.6341 4.90348 18.6841 4.98938L18.6641 5.00037C20.5067 8.2225 20.4867 12.4255 18.3325 15.5487Z" fill="#2BAAE1"/>
</svg>
