<svg width="22" height="24" viewBox="0 0 22 24" fill="none" xmlns="http://www.w3.org/2000/svg">
<path fill-rule="evenodd" clip-rule="evenodd" d="M19.9969 19.4529H19.5069V21.8908C19.5069 23.0529 18.6081 24 17.5028 24H4.4982C3.39294 24 2.4941 23.0529 2.4941 21.8908V19.4529H2.0041C0.898839 19.4529 0 18.5069 0 17.3437V8.90589C0 7.74274 0.898839 6.79668 2.0041 6.79668H2.4941V2.10921C2.4941 0.946058 3.39294 0 4.4982 0H13.3914C14.3043 0 15.1881 0.399336 15.8154 1.09743L18.59 4.17759C19.1812 4.83386 19.5059 5.69228 19.5059 6.59651V6.79668H19.9959C21.1012 6.79668 22 7.74274 22 8.90589V17.3437C22.001 18.5069 21.1022 19.4529 19.9969 19.4529ZM3.82983 21.8908C3.82983 22.2792 4.12945 22.5939 4.4982 22.5939H17.5028C17.8716 22.5939 18.1712 22.2792 18.1712 21.8908V19.4529H3.82983V21.8908ZM18.1712 6.59651C18.1712 6.05477 17.9758 5.53892 17.621 5.14456L14.8464 2.0644C14.4696 1.64614 13.9395 1.40614 13.3924 1.40614H4.4982C4.12945 1.40614 3.82983 1.72083 3.82983 2.10921V6.79668H18.1702V6.59651H18.1712ZM20.6643 8.90589C20.6643 8.51751 20.3647 8.20282 19.9959 8.20282H2.0041C1.63535 8.20282 1.33573 8.51751 1.33573 8.90589V17.3437C1.33573 17.7311 1.63535 18.0468 2.0041 18.0468H19.9969C20.3657 18.0468 20.6653 17.7311 20.6653 17.3437V8.90589H20.6643ZM18.0309 11.1485H16.6561V12.3446H17.8686C18.2373 12.3446 18.5369 12.6593 18.5369 13.0476C18.5369 13.436 18.2383 13.7507 17.8686 13.7507H16.6561V15.7494C16.6561 16.1378 16.3575 16.4524 15.9877 16.4524C15.6189 16.4524 15.3193 16.1378 15.3193 15.7494V10.4455C15.3193 10.0571 15.6189 9.74241 15.9877 9.74241H18.0299C18.3986 9.74241 18.6982 10.0571 18.6982 10.4455C18.6992 10.8339 18.3996 11.1485 18.0309 11.1485ZM11.0225 16.3778C10.6247 16.3847 9.6297 16.3887 9.58761 16.3887H9.58561C9.40925 16.3887 9.2399 16.316 9.11464 16.1846C8.98839 16.0521 8.91824 15.8749 8.91724 15.6876C8.91724 15.6697 8.90722 10.5012 8.90722 10.5012C8.90722 10.315 8.97736 10.1348 9.10262 10.0033C9.22787 9.87087 9.39822 9.79718 9.57559 9.79718H10.9704C12.5597 9.79718 13.6279 11.1217 13.6279 13.0924C13.6279 14.9676 12.5326 16.3489 11.0225 16.3778ZM10.9704 11.2033H10.244C10.245 11.8377 10.249 14.3681 10.25 14.9796C10.5275 14.9776 10.8261 14.9746 10.9985 14.9716C11.8913 14.9547 12.2911 14.0166 12.2911 13.0934C12.2921 12.6493 12.1969 11.2033 10.9704 11.2033ZM5.28782 14.2188C5.11747 14.2188 4.82487 14.2198 4.55231 14.2217V15.844C4.55231 16.2324 4.2527 16.5471 3.88394 16.5471C3.51519 16.5471 3.21558 16.2324 3.21558 15.844L3.20656 10.5022C3.20656 10.315 3.2767 10.1358 3.40196 10.0033C3.52721 9.87087 3.69756 9.79718 3.87493 9.79718H5.28882C6.46322 9.79718 7.41717 10.789 7.41717 12.008C7.41717 13.2269 6.46222 14.2188 5.28782 14.2188ZM5.28782 11.2033H4.5443C4.5453 11.516 4.5463 11.8486 4.5463 12.008C4.5463 12.1942 4.5473 12.5159 4.54931 12.8156C4.82387 12.8136 5.11647 12.8126 5.28882 12.8126C5.7187 12.8126 6.08144 12.4441 6.08144 12.008C6.08144 11.5718 5.7177 11.2033 5.28782 11.2033Z" fill="#626C8B"/>
</svg>
