<svg width="22" height="24" viewBox="0 0 22 24" fill="none" xmlns="http://www.w3.org/2000/svg">
<path fill-rule="evenodd" clip-rule="evenodd" d="M19.9969 19.4529H19.5069V21.8908C19.5069 23.0539 18.6081 24 17.5028 24H4.4982C3.39294 24 2.4941 23.0529 2.4941 21.8908V19.4529H2.0041C0.898839 19.4529 0 18.5069 0 17.3437V8.90689C0 7.74373 0.898839 6.79768 2.0041 6.79768H2.4941V2.10921C2.4941 0.946058 3.39294 0 4.4982 0H13.3914C14.3043 0 15.1871 0.399336 15.8154 1.09643L18.59 4.17759C19.1812 4.83386 19.5059 5.69228 19.5059 6.59651V6.79768H19.9959C21.1012 6.79768 22 7.74373 22 8.90689V17.3447C22.001 18.5069 21.1022 19.4529 19.9969 19.4529ZM3.82983 21.8908C3.82983 22.2792 4.12945 22.5939 4.4982 22.5939H17.5028C17.8716 22.5939 18.1712 22.2792 18.1712 21.8908V19.4529H3.82983V21.8908ZM18.1712 6.59651C18.1712 6.05477 17.9758 5.53892 17.621 5.14556L14.8464 2.06539C14.4696 1.64714 13.9395 1.40714 13.3924 1.40714H4.4982C4.12945 1.40714 3.82983 1.72183 3.82983 2.11021V6.79768H18.1702V6.59651H18.1712ZM20.6653 8.90689C20.6653 8.51851 20.3657 8.20382 19.9969 8.20382H2.0041C1.63535 8.20382 1.33573 8.51851 1.33573 8.90689V17.3447C1.33573 17.7321 1.63535 18.0478 2.0041 18.0478H19.9969C20.3657 18.0478 20.6653 17.7321 20.6653 17.3447V8.90689ZM18.0309 11.1485H16.6561V12.3446H17.8686C18.2373 12.3446 18.5369 12.6593 18.5369 13.0476C18.5369 13.436 18.2373 13.7507 17.8686 13.7507H16.6561V15.7494C16.6561 16.1378 16.3565 16.4524 15.9877 16.4524C15.6189 16.4524 15.3193 16.1378 15.3193 15.7494V10.4455C15.3193 10.0571 15.6189 9.74241 15.9877 9.74241H18.0299C18.3986 9.74241 18.6982 10.0571 18.6982 10.4455C18.6992 10.8339 18.3996 11.1485 18.0309 11.1485ZM11.0225 16.3768C10.6247 16.3837 9.6297 16.3877 9.58761 16.3877H9.58561C9.40925 16.3877 9.2399 16.315 9.11464 16.1836C8.98839 16.0531 8.91824 15.8749 8.91724 15.6876C8.91724 15.6697 8.90722 10.5012 8.90722 10.5012C8.90622 10.314 8.97736 10.1348 9.10262 10.0033C9.22787 9.87087 9.39822 9.79718 9.57559 9.79718H10.9704C12.5597 9.79718 13.6279 11.1217 13.6279 13.0924C13.6279 14.9686 12.5326 16.3489 11.0225 16.3768ZM10.9704 11.2033H10.244C10.245 11.8377 10.249 14.3681 10.251 14.9786C10.5285 14.9766 10.8271 14.9736 10.9995 14.9706C11.8923 14.9547 12.2921 14.0156 12.2921 13.0924C12.2921 12.6493 12.1969 11.2033 10.9704 11.2033ZM5.28782 14.2188C5.11747 14.2188 4.82487 14.2198 4.55231 14.2217V15.843C4.55231 16.2314 4.2527 16.5461 3.88394 16.5461C3.51519 16.5461 3.21558 16.2314 3.21558 15.843L3.20656 10.5022C3.20556 10.315 3.2757 10.1358 3.40096 10.0033C3.52722 9.87187 3.69756 9.79718 3.87493 9.79718H5.28882C6.46222 9.79718 7.41717 10.789 7.41717 12.008C7.41717 13.2269 6.46222 14.2188 5.28782 14.2188ZM5.28782 11.2033H4.5443C4.5453 11.516 4.5463 11.8486 4.5463 12.008C4.5463 12.1942 4.5473 12.5159 4.54931 12.8156C4.82387 12.8136 5.11647 12.8126 5.28882 12.8126C5.7187 12.8126 6.08144 12.4441 6.08144 12.008C6.08044 11.5718 5.7177 11.2033 5.28782 11.2033Z" fill="#F6364D"/>
</svg>
