<svg width="12" height="12" viewBox="0 0 12 12" fill="none" xmlns="http://www.w3.org/2000/svg">
<path d="M7.65605 12C7.62636 12 7.59655 11.9999 7.5665 11.9996C6.64174 11.9914 5.69322 11.7161 4.74732 11.1811C4.0046 10.7611 3.25801 10.1782 2.52835 9.44848C0.865673 7.78582 0.0151643 6.09861 0.000469259 4.43376C-0.0088587 3.37867 0.111045 1.84368 1.25492 0.699785C1.70188 0.252816 2.2595 0.00431242 2.82501 7.03113e-05L2.84006 0H2.84397C3.52843 0 4.16397 0.374501 4.50302 0.9781L4.88523 1.65855L4.89174 1.67212C5.08604 2.07688 5.18114 2.38777 5.20013 2.68017C5.22729 3.09845 5.09225 3.46042 4.79877 3.75607L3.73667 4.85699C3.89454 5.29367 4.29853 6.2352 5.06621 7.00455C5.82616 7.76283 6.74236 8.14966 7.17637 8.30184L8.24107 7.19683C8.5394 6.89906 8.89334 6.75694 9.29255 6.7743C9.59927 6.78769 9.92263 6.89034 10.341 7.10713L10.3549 7.11463L11.0222 7.48946C11.6269 7.82916 12.0017 8.46646 12.0003 9.15272L12.0002 9.16922C11.9959 9.73295 11.7475 10.2906 11.3005 10.7375C10.8037 11.2343 10.1773 11.5881 9.43859 11.7891C8.91741 11.9308 8.33346 12 7.65605 12ZM2.84365 0.937484C2.84299 0.937484 2.84236 0.937484 2.8417 0.937484L2.83186 0.93753C2.51431 0.939921 2.18961 1.0909 1.91783 1.36268C1.02315 2.25737 0.930078 3.53916 0.937906 4.42546C0.950374 5.83588 1.70849 7.30283 3.19122 8.78556C4.68936 10.2837 6.16421 11.0497 7.57477 11.0621C8.45791 11.07 9.73614 10.976 10.6376 10.0746C10.9094 9.80282 11.0603 9.47815 11.0627 9.16039L11.0628 9.14907C11.0635 8.80374 10.872 8.48036 10.563 8.30681L9.90276 7.93592C9.25174 7.59992 9.06472 7.7003 8.90631 7.85735L7.46211 9.35641L7.19889 9.29044C7.13512 9.27446 5.62331 8.88507 4.40364 7.66775L4.40301 7.66712C3.18857 6.45031 2.76813 4.92041 2.75081 4.85586L2.68216 4.59981L4.13212 3.09695C4.26914 2.95966 4.37566 2.76872 4.05295 2.0911L3.68567 1.43721C3.5124 1.12885 3.18991 0.937484 2.84365 0.937484ZM10.3527 1.64751C9.29035 0.585107 7.87779 2.34371e-05 6.37533 2.34371e-05V0.937507C8.95998 0.937507 11.0628 3.04028 11.0628 5.62492H12.0002C12.0002 4.12244 11.4152 2.70989 10.3527 1.64751ZM6.37533 3.74993V4.68742C6.89226 4.68742 7.31282 5.10797 7.31282 5.6249H8.2503C8.2503 4.59104 7.40919 3.74993 6.37533 3.74993ZM6.37533 1.87497V2.81245C7.92612 2.81245 9.18779 4.07412 9.18779 5.6249H10.1253C10.1253 3.55719 8.44307 1.87497 6.37533 1.87497Z" fill="#2BAAE1"/>
</svg>
