<svg width="20" height="20" viewBox="0 0 20 20" fill="none" xmlns="http://www.w3.org/2000/svg">
<path d="M17.0794 2.92961C10.7914 -3.34279 0.00798848 1.12595 0 10.0005V18.0456C0 18.7793 0.404417 19.4441 1.05648 19.7804C1.70854 20.1178 2.48442 20.0629 3.08355 19.6397L4.71121 18.4878C7.81673 20.4732 12.0436 20.4991 15.1821 18.5597C15.5516 18.3361 15.6694 17.856 15.4457 17.4867C15.222 17.1174 14.7417 16.9996 14.3723 17.2232C11.5853 18.946 7.80574 18.8202 5.14758 16.9018C4.87697 16.7111 4.51549 16.7111 4.24588 16.9028L2.18085 18.3651C2.00611 18.4888 1.83935 18.4259 1.77544 18.393C1.71153 18.3601 1.56374 18.2603 1.56374 18.0456V10.0005C1.56374 5.34814 5.35028 1.56214 10.0056 1.56214C16.671 1.50724 20.787 9.17705 17.0155 14.6839C16.7758 15.0422 16.8717 15.5273 17.2311 15.7679C17.5906 16.0074 18.0759 15.9106 18.3156 15.5523C20.9718 11.7024 20.4325 6.18159 17.0794 2.92961ZM15.1282 14.5311C14.4262 15.2917 13.1371 15.8996 11.9867 15.8956C10.6227 15.8886 8.57463 15.4584 6.56054 13.4452C3.82049 10.6304 3.34617 7.11187 5.51205 4.88C6.30591 4.16832 7.50717 4.21124 8.24711 4.97882C8.86821 5.62263 9.21471 6.14965 9.37049 6.68766C9.52626 7.22666 9.54923 8.03616 8.77335 8.82969C8.77135 8.83269 8.76835 8.83568 8.76536 8.83768C8.91714 9.16308 9.21671 9.67014 9.7759 10.2301C10.3381 10.7911 10.8484 11.1035 11.1799 11.2682C11.9727 10.4956 12.7816 10.5196 13.3198 10.6743C13.858 10.83 14.3853 11.1764 15.0303 11.7972C15.7972 12.5368 15.8402 13.7376 15.1282 14.5311ZM13.9449 12.9221C12.8335 11.8511 12.5339 12.1296 12.2743 12.3841L11.9298 12.7335C11.7371 12.9291 11.4545 13.009 11.1879 12.9431C9.61713 12.5658 7.41031 10.3778 7.09577 8.79077C7.04184 8.53125 7.12273 8.26374 7.31146 8.07808L7.66095 7.73372C7.91459 7.4742 8.19418 7.17376 7.12273 6.06381C6.97294 5.9081 6.73329 5.89612 6.56953 6.03087C6.15712 6.45509 5.70777 7.36241 5.71076 8.01221C5.71576 9.10019 6.06026 10.7342 7.66594 12.3392C9.30458 13.9772 10.9242 14.3265 11.9947 14.3325C12.6468 14.3355 13.5515 13.8863 13.9768 13.4741C14.1116 13.3104 14.0987 13.0708 13.9449 12.9221Z" fill="#2BAAE1"/>
</svg>
