<svg width="25" height="25" viewBox="0 0 25 25" fill="none" xmlns="http://www.w3.org/2000/svg">
<path d="M22.6529 19.4C23.5989 18.112 24.0959 16.615 24.0959 15.037C24.0959 12.512 22.7859 10.166 20.5759 8.703C20.3719 6.453 19.3219 4.366 17.5649 2.758C15.6219 0.979 13.0449 0 10.3069 0C7.56993 0 4.99293 0.979 3.04993 2.757C1.08393 4.557 0.000930932 6.956 0.000930932 9.512C0.000930932 11.479 0.634931 13.343 1.83993 14.938L0.0689309 19.318C-0.0750691 19.673 0.0109309 20.08 0.285931 20.347C0.464931 20.521 0.701931 20.613 0.940931 20.613C1.06893 20.613 1.19793 20.587 1.31993 20.533L6.36993 18.307C7.00393 18.55 7.65693 18.731 8.32493 18.851C9.00893 19.976 9.98593 20.93 11.1719 21.624C12.4969 22.399 14.0269 22.812 15.5999 22.824C15.6229 22.826 15.6459 22.828 15.6699 22.828C16.7579 22.828 17.8119 22.64 18.8089 22.269L22.7729 24.016C22.8949 24.07 23.0239 24.096 23.1519 24.096C23.3919 24.096 23.6279 24.005 23.8069 23.831C24.0819 23.564 24.1679 23.158 24.0249 22.803L22.6529 19.4ZM20.7029 19.598L21.4139 21.357L19.2099 20.385C18.9719 20.281 18.6999 20.279 18.4609 20.381C17.5969 20.75 16.6719 20.939 15.7109 20.944C15.6979 20.944 15.6859 20.942 15.6729 20.942C13.8179 20.942 12.0659 20.217 10.8419 19.011C12.3939 18.937 13.9159 18.541 15.2719 17.851C15.7349 17.616 15.9199 17.049 15.6849 16.586C15.4499 16.122 14.8829 15.938 14.4189 16.173C13.1699 16.807 11.7489 17.142 10.3079 17.142C9.05593 17.142 7.85093 16.899 6.72593 16.418C6.48693 16.316 6.21493 16.317 5.97693 16.423L2.68493 17.874L3.79393 15.132C3.92593 14.807 3.86493 14.435 3.63793 14.168C2.49193 12.823 1.88593 11.213 1.88593 9.511C1.88593 5.304 5.66493 1.881 10.3099 1.881C14.9549 1.881 18.7339 5.304 18.7339 9.511C18.7339 10.87 18.3349 12.204 17.5789 13.369C17.2959 13.805 17.4199 14.388 17.8559 14.671C18.2919 14.954 18.8749 14.83 19.1579 14.394C19.8289 13.36 20.2769 12.218 20.4839 11.033C21.5859 12.113 22.2159 13.535 22.2159 15.036C22.2159 16.35 21.7479 17.595 20.8609 18.635C20.6309 18.902 20.5709 19.273 20.7029 19.598ZM11.2019 14.354C11.2019 14.873 10.7809 15.295 10.2609 15.295C9.74093 15.295 9.31993 14.874 9.31993 14.354C9.31993 13.834 9.74093 13.413 10.2609 13.413C10.7799 13.412 11.2019 13.834 11.2019 14.354ZM13.8359 7.301C13.8369 7.314 13.8369 7.328 13.8369 7.341C13.8369 8.757 12.9959 10.033 11.6919 10.589C11.4219 10.704 11.2479 10.976 11.2479 11.28V11.341C11.2479 11.861 10.8269 12.282 10.3069 12.282C9.78693 12.282 9.36593 11.861 9.36593 11.341V11.28C9.36593 10.22 9.98893 9.269 10.9529 8.858C11.5529 8.602 11.9439 8.019 11.9539 7.368C11.9539 7.359 11.9539 7.35 11.9539 7.341C11.9539 6.433 11.2149 5.694 10.3069 5.694C9.39893 5.694 8.65993 6.433 8.65993 7.341C8.65993 7.86 8.23893 8.282 7.71893 8.282C7.19893 8.282 6.77793 7.86 6.77793 7.341C6.77793 5.395 8.36093 3.811 10.3069 3.811C12.2399 3.811 13.8149 5.374 13.8359 7.301Z" fill="white"/>
</svg>
