<svg width="17" height="16" viewBox="0 0 17 16" fill="none" xmlns="http://www.w3.org/2000/svg">
<path fill-rule="evenodd" clip-rule="evenodd" d="M16.036 14.916L14.975 15.977L10.538 11.572C9.426 12.458 8.037 13.01 6.505 13.01C2.912 13.01 0 10.098 0 6.505C0 2.913 2.912 0 6.505 0C10.097 0 13.01 2.913 13.01 6.505C13.01 8.023 12.468 9.402 11.597 10.509L16.036 14.916ZM6.459 1.454C3.698 1.454 1.46 3.692 1.46 6.453C1.46 9.213 3.698 11.451 6.459 11.451C9.22 11.451 11.458 9.213 11.458 6.453C11.457 3.692 9.219 1.454 6.459 1.454Z" fill="white"/>
</svg>
