<svg width="80" height="80" viewBox="0 0 80 80" fill="none" xmlns="http://www.w3.org/2000/svg">
<path fill-rule="evenodd" clip-rule="evenodd" d="M79.9762 76.5022V75.7637L79.993 76.0289C79.997 76.0929 79.999 76.157 80 76.221C80.001 76.3151 79.9821 76.4072 79.9762 76.5022ZM55.307 31.5059H55.195C55.0184 35.9959 51.9771 40.8422 48.0382 43.508V46.6851L51.8313 47.8669C51.8799 47.8439 51.9285 47.8209 51.9781 47.7999C52.9132 47.4036 53.9822 47.3696 54.9411 47.7108L58.037 48.8155H50.0483C49.5218 48.8155 49.0468 49.0257 48.6917 49.3639L47.123 48.8756C46.2682 48.6094 45.694 47.8239 45.694 46.9213V44.7818C45.5691 44.8338 45.4441 44.8829 45.3192 44.9299C45.2616 44.9509 45.2031 44.9709 45.1456 44.992C45.0375 45.03 44.9294 45.067 44.8223 45.101C44.7728 45.117 44.7222 45.133 44.6716 45.1481C44.5139 45.1961 44.3563 45.2411 44.1986 45.2801L44.0459 45.3182C43.6264 45.4232 43.2357 45.5173 42.8668 45.6004C41.7601 45.8465 40.8478 45.9836 39.9236 45.9836C39.9187 45.9836 39.9127 45.9836 39.9078 45.9836C39.0599 45.9816 38.217 45.8645 37.2254 45.6504C37.2135 45.6484 37.2006 45.6454 37.1887 45.6424C37.0885 45.6204 36.9854 45.5974 36.8813 45.5733C36.5282 45.4933 36.1554 45.4022 35.7557 45.3002C35.609 45.2621 35.4533 45.2181 35.2817 45.1651C35.2262 45.1481 35.1717 45.13 35.1161 45.112L35.1052 45.109C35.0814 45.101 35.0596 45.093 35.0358 45.085C34.7899 45.003 34.5449 44.9119 34.301 44.8118V46.9203C34.301 47.8229 33.7268 48.6084 32.871 48.8746L31.2705 49.3729L33.8627 50.6308L39.996 53.6088L48.6313 49.4169C48.2812 49.7782 48.064 50.2715 48.064 50.8169V52.3179L42.374 55.0798L46.3207 57.6925C46.6232 57.8927 46.9732 57.9977 47.3342 57.9977C47.592 57.9977 47.833 57.9277 48.064 57.8266V60.2933C47.8231 60.3373 47.5791 60.3623 47.3342 60.3623C46.5151 60.3623 45.7208 60.1232 45.0355 59.6689L41.1691 57.1101V77.635H48.065V77.8712C48.065 78.9759 48.9535 79.8725 50.0483 79.8725H77.2055C77.0935 79.9015 76.9824 79.9365 76.8674 79.9546C76.6809 79.9836 76.4915 79.9996 76.3011 79.9996H64.7911H15.2088H3.69783C2.80832 79.9996 1.94559 79.6714 1.27722 79.087C1.18203 79.0039 1.09079 78.9149 1.00353 78.8218C0.959897 78.7748 0.917257 78.7277 0.876599 78.6777C0.302437 77.9942 -0.00993153 77.1166 -1.50787e-05 76.22C0.000976566 76.156 0.00295986 76.0919 0.00692644 76.0279L0.335161 70.8194C0.375818 70.168 0.93114 69.6736 1.57868 69.7146C2.22424 69.7567 2.71511 70.3181 2.67445 70.9695L2.34622 76.179C2.34324 76.227 2.34225 76.2741 2.34423 76.3211C2.35613 76.6513 2.48406 76.9605 2.71114 77.2047C2.74387 77.2397 2.77758 77.2727 2.81229 77.3038C3.05723 77.5189 3.36662 77.636 3.69684 77.636H14.0367V54.1501L9.98188 55.5961C6.04307 57.0011 3.32596 60.6315 3.0602 64.8454L2.97591 66.1773C2.93426 66.8287 2.37696 67.321 1.73239 67.282C1.08683 67.24 0.595964 66.6786 0.637613 66.0262L0.721902 64.6943C1.04716 59.5328 4.37512 55.0858 9.20146 53.3646L25.0569 47.7098C26.0664 47.3495 27.1968 47.4066 28.1657 47.8649L31.9597 46.6831V43.537C28.015 40.8642 24.9666 35.9969 24.803 31.5028H24.6919C22.9615 31.5028 21.5534 30.0819 21.5534 28.3347V25.3667C21.5534 25.0625 21.6089 24.7733 21.6892 24.4951H58.3087C58.389 24.7733 58.4446 25.0625 58.4446 25.3667V28.3357C58.4456 30.0849 57.0374 31.5059 55.307 31.5059ZM16.381 53.3146V77.636H38.8279V57.1111L34.9614 59.6699C34.2762 60.1232 33.4809 60.3633 32.6628 60.3633C31.7495 60.3633 30.8461 60.0551 30.1192 59.4957L20.2841 51.9226L16.381 53.3146ZM27.1889 50.0153C26.7714 49.8132 26.2746 49.7852 25.8373 49.9413L22.9238 50.98L31.5402 57.6145C31.8655 57.8646 32.2532 57.9967 32.6618 57.9967C33.0228 57.9967 33.3728 57.8917 33.6753 57.6905L37.622 55.0788L27.1889 50.0153ZM24.7931 24.5672H24.6929C24.2546 24.5672 23.8976 24.9264 23.8976 25.3697V28.3377C23.8976 28.78 24.2546 29.1403 24.6929 29.1403H24.7931V24.5672ZM52.8626 30.3221V24.5662H27.1373V30.3221V31.1266C27.1373 35.3354 30.616 40.3598 34.5905 42.3482C34.5985 42.3522 34.6064 42.3562 34.6143 42.3602C34.8771 42.4913 35.1419 42.6063 35.4077 42.7094C35.4136 42.7124 35.4196 42.7144 35.4255 42.7164C35.4622 42.7304 35.4999 42.7444 35.5376 42.7574C35.6169 42.7865 35.6962 42.8135 35.7756 42.8405C35.7934 42.8465 35.8113 42.8535 35.8291 42.8585L35.9412 42.8955C36.0711 42.9356 36.201 42.9736 36.3309 43.0066C36.4995 43.0496 36.6601 43.0897 36.8178 43.1287C36.8426 43.1347 36.8674 43.1407 36.8922 43.1467C36.9001 43.1487 36.907 43.1507 36.915 43.1527C38.1575 43.4559 39.0539 43.618 39.9266 43.618C40.4224 43.618 40.9361 43.564 41.5142 43.4619C42.0914 43.3599 42.7329 43.2118 43.4826 43.0236L43.6363 42.9856C43.7672 42.9526 43.8981 42.9146 44.029 42.8745C44.0667 42.8625 44.1054 42.8505 44.1431 42.8375C44.2422 42.8055 44.3404 42.7715 44.4386 42.7354C44.4743 42.7224 44.51 42.7094 44.5467 42.6954C44.8154 42.5933 45.0822 42.4773 45.3469 42.3472C45.3677 42.3362 45.3886 42.3262 45.4084 42.3161C45.5324 42.2541 45.6563 42.1891 45.7803 42.121C45.7892 42.116 45.7971 42.112 45.8061 42.107C49.616 39.9926 52.8646 35.1683 52.8646 31.0946V30.3221H52.8626ZM56.1023 25.3697C56.1023 24.9264 55.7453 24.5672 55.307 24.5672H55.2069V29.1403H55.307C55.7453 29.1403 56.1023 28.78 56.1023 28.3377V25.3697Z" fill="#2BAAE1"/>
<path fill-rule="evenodd" clip-rule="evenodd" d="M77.9929 79.8739H50.0503C48.9556 79.8739 48.067 78.9773 48.067 77.8726V50.8173C48.067 49.7116 48.9556 48.816 50.0503 48.816H77.9929C79.0887 48.816 79.9762 49.7116 79.9762 50.8173V77.8726C79.9762 78.9773 79.0877 79.8739 77.9929 79.8739ZM77.5239 52.3223C77.5239 51.7699 77.0796 51.3216 76.5322 51.3216H51.6072C51.0598 51.3216 50.6156 51.7699 50.6156 52.3223V76.1924C50.6156 76.7448 51.0598 77.1931 51.6072 77.1931H76.5322C77.0796 77.1931 77.5239 76.7448 77.5239 76.1924V52.3223ZM54.6694 65.8334H73.0912V68.3021H54.6694V65.8334ZM70.6389 60.764H73.0843V63.2327H70.6379V60.764H70.6389ZM65.7461 63.2317V60.763H68.1925V63.2317H65.7461ZM54.6833 63.2317V60.763H63.2997V63.2317H54.6833ZM54.6625 55.8267H73.0843V58.2953H54.6625V55.8267ZM68.1399 73.3055H54.6764V70.8378H68.1409V73.3055H68.1399ZM58.2483 24.2744C58.275 24.3464 58.2879 24.4245 58.3097 24.4985H21.6903C21.7121 24.4245 21.725 24.3464 21.7518 24.2744C20.9912 23.8611 20.4725 23.0426 20.4725 22.1009V20.4438C20.4725 19.242 21.3184 18.2383 22.433 18.0262V17.5538C22.433 17.4148 22.435 17.2767 22.438 17.1386C22.5352 13.2569 24.0464 9.58047 26.6901 6.78658C29.1375 4.20184 32.3495 2.57974 35.8034 2.16846C36.4549 0.882596 37.7797 0 39.3069 0H40.6942C42.2203 0 43.5451 0.882596 44.1967 2.16746C48.2842 2.65479 52.0158 4.83827 54.5236 8.23756C54.9104 8.76091 54.8023 9.50241 54.2837 9.89168C53.765 10.2819 53.0302 10.1739 52.6435 9.64951C50.6671 6.9707 47.7963 5.1845 44.626 4.61912V8.97106V8.97406C44.626 10.0538 44.1957 11.0334 43.4995 11.7499C43.4906 11.7589 43.4817 11.7689 43.4728 11.778C43.4628 11.788 43.4529 11.797 43.443 11.806C42.734 12.5074 41.7641 12.9417 40.6952 12.9417H40.6932H39.3059H39.3039C38.2349 12.9417 37.2651 12.5074 36.556 11.806C36.5461 11.797 36.5362 11.788 36.5263 11.778C36.5174 11.7689 36.5084 11.7589 36.4995 11.7499C35.8034 11.0334 35.374 10.0538 35.374 8.97406V8.97206V4.62112C29.4866 5.67783 24.9369 10.9584 24.7802 17.1986C24.7773 17.3167 24.7753 17.4348 24.7753 17.5538V19.1669C24.7753 19.8204 24.2507 20.3497 23.6032 20.3497H22.8713C22.8515 20.3497 22.8138 20.3828 22.8138 20.4438V22.1009C22.8138 22.163 22.8515 22.196 22.8713 22.196H57.1247C57.1446 22.196 57.1822 22.163 57.1822 22.1009V20.4438C57.1822 20.3828 57.1446 20.3497 57.1247 20.3497H56.3949C55.7473 20.3497 55.2228 19.8204 55.2228 19.1669V17.5538C55.2228 17.4348 55.2218 17.3157 55.2188 17.1976C55.1871 15.9488 54.9848 14.7189 54.6169 13.5391C54.4225 12.9167 54.7646 12.2523 55.3814 12.0561C55.9982 11.859 56.6567 12.2052 56.851 12.8287C57.2854 14.2176 57.5244 15.6676 57.5611 17.1376C57.564 17.2757 57.566 17.4148 57.566 17.5538V18.0252C58.6806 18.2383 59.5265 19.241 59.5265 20.4438V22.1009C59.5275 23.0426 59.0089 23.8611 58.2483 24.2744ZM37.7182 8.97206C37.7182 9.41335 37.8957 9.81462 38.1823 10.1048L38.1833 10.1058C38.1972 10.1208 38.2141 10.1328 38.2289 10.1478C38.5125 10.413 38.8904 10.5771 39.3069 10.5771H40.6942C41.1107 10.5771 41.4885 10.414 41.7721 10.1478C41.787 10.1338 41.8028 10.1208 41.8167 10.1058C41.8177 10.1058 41.8177 10.1048 41.8177 10.1048C42.1043 9.81462 42.2818 9.41335 42.2818 8.97206V3.96968C42.2818 3.84059 42.2649 3.7105 42.2292 3.57041C42.2272 3.56341 42.2272 3.5564 42.2253 3.5494C42.0418 2.86894 41.426 2.3656 40.6942 2.3656H39.3069C38.575 2.3656 37.9582 2.86894 37.7748 3.5504C37.7728 3.5574 37.7728 3.56441 37.7708 3.57141C37.7351 3.71151 37.7182 3.84159 37.7182 3.97068V8.97206Z" fill="#F6364D"/>
</svg>
