<svg width="80" height="80" viewBox="0 0 80 80" fill="none" xmlns="http://www.w3.org/2000/svg">
<path fill-rule="evenodd" clip-rule="evenodd" d="M76.8701 79.9549C76.6836 79.9839 76.4942 79.9999 76.3038 79.9999H64.7925H15.2092H3.69791C2.80839 79.9999 1.94564 79.6717 1.27725 79.0873C1.18205 79.0042 1.09082 78.9152 1.00355 78.8221C0.959919 78.7751 0.917277 78.728 0.876619 78.678C0.302443 77.9936 -0.00993175 77.116 -1.50736e-05 76.2194C0.000976594 76.1553 0.00295993 76.0913 0.0069266 76.0272L0.335168 70.8188C0.375827 70.1674 0.931161 69.673 1.57872 69.7141C2.22429 69.7561 2.71517 70.3175 2.67451 70.9689L2.34627 76.1783C2.34329 76.2264 2.3423 76.2734 2.34429 76.3204C2.35619 76.6507 2.48411 76.9599 2.7112 77.204C2.74393 77.2391 2.77764 77.2721 2.81235 77.3031C3.05729 77.5182 3.3667 77.6353 3.69692 77.6353H14.037V54.1498L9.98211 55.5957C6.0432 57.0006 3.32604 60.6311 3.06027 64.8448L2.97598 66.1767C2.93433 66.8282 2.37701 67.3205 1.73243 67.2815C1.08685 67.2394 0.595977 66.6781 0.636635 66.0256L0.720927 64.6937C1.04619 59.5323 4.37423 55.0854 9.20067 53.3642L25.0564 47.7095C26.066 47.3493 27.1965 47.4063 28.1653 47.8646L31.9594 46.6828V43.5367C28.0146 40.864 24.9662 35.9967 24.8026 31.5028H24.6925C22.962 31.5028 21.5539 30.0818 21.5539 28.3347V25.3667C21.5539 25.0625 21.6094 24.7733 21.6897 24.4951H58.31C58.3903 24.7733 58.4459 25.0625 58.4459 25.3667V28.3357C58.4459 30.0818 57.0377 31.5028 55.3073 31.5028H55.1962C55.0197 35.9927 51.9782 40.8389 48.0393 43.5047V46.6818L51.8325 47.8636C51.881 47.8406 51.9296 47.8176 51.9792 47.7966C52.9144 47.4003 53.9834 47.3663 54.9423 47.7075L70.7981 53.3622C75.6245 55.0834 78.9526 59.5303 79.2778 64.6907L79.9522 75.3848L79.9928 76.0242C79.9968 76.0883 79.9988 76.1523 79.9998 76.2164C80.0107 77.177 79.6507 78.1156 78.9972 78.8181C78.4329 79.4305 77.6793 79.8268 76.8701 79.9549ZM24.7936 24.5672H24.6935C24.2552 24.5672 23.8982 24.9264 23.8982 25.3697V28.3377C23.8982 28.78 24.2552 29.1402 24.6935 29.1402H24.7936V24.5672ZM55.2081 29.1402H55.3082C55.7466 29.1402 56.1036 28.78 56.1036 28.3377V25.3697C56.1036 24.9264 55.7466 24.5672 55.3082 24.5672H55.2081V29.1402ZM16.3813 53.3142V77.6353H38.8287V57.1107L34.9622 59.6694C34.277 60.1227 33.4816 60.3629 32.6635 60.3629C31.7502 60.3629 30.8468 60.0547 30.1199 59.4953L20.2845 51.9223L16.3813 53.3142ZM27.1895 50.015C26.772 49.8129 26.2752 49.7849 25.8379 49.941L22.9244 50.9797L31.541 57.6141C31.8662 57.8642 32.254 57.9963 32.6625 57.9963C33.0235 57.9963 33.3736 57.8912 33.676 57.6901L37.6228 55.0784L27.1895 50.015ZM52.8638 31.0955V30.323V24.5662H27.1379V30.322V31.1265C27.1379 35.3353 30.6167 40.3596 34.5913 42.3479C34.5993 42.3519 34.6072 42.3559 34.6151 42.36C34.8779 42.491 35.1427 42.6061 35.4085 42.7092C35.4144 42.7122 35.4204 42.7142 35.4263 42.7162C35.463 42.7302 35.5007 42.7442 35.5384 42.7572C35.6177 42.7862 35.697 42.8133 35.7764 42.8403C35.7942 42.8463 35.8121 42.8533 35.8299 42.8583L35.942 42.8953C36.0719 42.9353 36.2018 42.9734 36.3317 43.0064C36.5003 43.0494 36.6609 43.0894 36.8186 43.1285C36.8434 43.1345 36.8692 43.1405 36.893 43.1465C36.9009 43.1485 36.9079 43.1505 36.9158 43.1525C38.1584 43.4557 39.0548 43.6178 39.9275 43.6178C40.4233 43.6178 40.937 43.5637 41.5141 43.4617C42.0913 43.3596 42.7329 43.2115 43.4836 43.0234L43.6373 42.9854C43.7682 42.9523 43.8991 42.9143 44.03 42.8743C44.0677 42.8623 44.1054 42.8503 44.1441 42.8373C44.2432 42.8052 44.3414 42.7712 44.4396 42.7352C44.4753 42.7222 44.511 42.7092 44.5477 42.6952C44.8164 42.5931 45.0832 42.477 45.3479 42.3469C45.3688 42.3359 45.3896 42.3259 45.4094 42.3159C45.5334 42.2539 45.6573 42.1888 45.7813 42.1208C45.7902 42.1158 45.7982 42.1118 45.8071 42.1068C49.6151 39.9934 52.8638 35.1682 52.8638 31.0955ZM47.126 48.8753C46.2712 48.6091 45.697 47.8236 45.697 46.921V44.7816C45.5721 44.8336 45.4471 44.8826 45.3231 44.9297C45.2656 44.9507 45.2071 44.9707 45.1496 44.9917C45.0415 45.0297 44.9334 45.0667 44.8263 45.1008C44.7757 45.1168 44.7262 45.1328 44.6756 45.1478C44.5179 45.1958 44.3602 45.2409 44.2026 45.2799L44.0489 45.3179C43.6294 45.423 43.2387 45.517 42.8708 45.6001C41.764 45.8463 40.8517 45.9833 39.9275 45.9833C39.9225 45.9833 39.9166 45.9833 39.9116 45.9833C39.0637 45.9813 38.2208 45.8643 37.2292 45.6501C37.2173 45.6481 37.2044 45.6451 37.1925 45.6421C37.0913 45.6201 36.9892 45.5971 36.885 45.5731C36.532 45.493 36.1591 45.402 35.7595 45.2999C35.6127 45.2619 35.4571 45.2178 35.2855 45.1648C35.23 45.1478 35.1754 45.1298 35.1199 45.1118L35.109 45.1088C35.0852 45.1008 35.0634 45.0928 35.0396 45.0848C34.7926 45.0027 34.5477 44.9116 34.3047 44.8116V46.92C34.3047 47.8226 33.7306 48.6081 32.8747 48.8743L31.2742 49.3726L33.8664 50.6304L39.9999 53.6084L48.7256 49.3726L47.126 48.8753ZM54.1629 49.941C53.7414 49.7909 53.2664 49.8119 52.8588 49.995C52.844 50.002 52.8271 50.008 52.8122 50.015L52.4344 50.1981L42.3779 55.0794L46.3247 57.6921C46.6272 57.8922 46.9772 57.9973 47.3382 57.9973C47.7468 57.9973 48.1355 57.8652 48.4598 57.6151L57.0764 50.9807L54.1629 49.941ZM63.6204 53.3142L59.7172 51.9213L49.8818 59.4943C49.1559 60.0537 48.2515 60.3619 47.3382 60.3619C46.5191 60.3619 45.7248 60.1227 45.0395 59.6684L41.173 57.1097V77.6343H63.6214V53.3142H63.6204ZM77.6545 76.1773L76.9405 64.8448C76.6995 61.0263 74.4454 57.6861 71.0936 56.048C70.7465 55.8789 70.3885 55.7278 70.0186 55.5957L65.9637 54.1498V77.6353H76.3038C76.6806 77.6353 77.0307 77.4822 77.2895 77.204C77.354 77.134 77.4115 77.0589 77.4591 76.9799C77.5801 76.7817 77.6475 76.5566 77.6564 76.3204C77.6584 76.2724 77.6574 76.2254 77.6545 76.1773Z" fill="#2BAAE1"/>
<path fill-rule="evenodd" clip-rule="evenodd" d="M57.6268 72.405H48.8902C47.6586 72.405 46.656 71.3943 46.656 70.1505V66.7192C46.656 65.4764 47.6586 64.4647 48.8902 64.4647H57.6268C58.8584 64.4647 59.861 65.4754 59.861 66.7192V70.1505C59.861 71.3933 58.8584 72.405 57.6268 72.405ZM57.5177 66.8293H49.0003V70.0384H57.5177V66.8293ZM58.2496 24.2741C58.2763 24.3461 58.2892 24.4242 58.311 24.4982H21.6908C21.7126 24.4242 21.7255 24.3461 21.7522 24.2741C20.9916 23.8608 20.473 23.0423 20.473 22.1006V20.4435C20.473 19.2417 21.3189 18.2381 22.4335 18.0259V17.5536C22.4335 17.4145 22.4355 17.2764 22.4385 17.1384C22.5357 13.2568 24.047 9.58035 26.6907 6.7865C29.1382 4.20178 32.3502 2.57971 35.8042 2.16844C36.4557 0.882585 37.7806 0 39.3077 0H40.6951C42.2212 0 43.5461 0.882585 44.1976 2.16744C48.2853 2.65476 52.0169 4.83821 54.5249 8.23746C54.9116 8.7608 54.8035 9.5023 54.2849 9.89155C53.7652 10.2818 53.0314 10.1737 52.6447 9.64939C50.6683 6.97062 47.7974 5.18443 44.627 4.61906V8.97094V8.97395C44.627 10.0537 44.1966 11.0333 43.5005 11.7498C43.4916 11.7588 43.4826 11.7688 43.4737 11.7778C43.4638 11.7878 43.4539 11.7968 43.444 11.8058C42.7349 12.5073 41.7651 12.9416 40.6961 12.9416H40.6941H39.3067H39.3048C38.2357 12.9416 37.2659 12.5073 36.5568 11.8058C36.5469 11.7968 36.537 11.7878 36.5271 11.7778C36.5182 11.7688 36.5092 11.7588 36.5003 11.7498C35.8042 11.0333 35.3738 10.0537 35.3738 8.97395V8.97194V4.62106C29.4863 5.67776 24.9365 10.9583 24.7798 17.1984C24.7768 17.3165 24.7748 17.4345 24.7748 17.5536V19.1667C24.7748 19.8201 24.2503 20.3495 23.6027 20.3495H22.8718C22.852 20.3495 22.8143 20.3825 22.8143 20.4435V22.1006C22.8143 22.1627 22.852 22.1957 22.8718 22.1957H57.126C57.1458 22.1957 57.1835 22.1627 57.1835 22.1006V20.4435C57.1835 20.3825 57.1458 20.3495 57.126 20.3495H56.3961C55.7486 20.3495 55.224 19.8201 55.224 19.1667V17.5536C55.224 17.4345 55.223 17.3155 55.219 17.1974C55.1873 15.9486 54.985 14.7188 54.6171 13.539C54.4227 12.9166 54.7648 12.2521 55.3817 12.056C55.9985 11.8589 56.6569 12.2051 56.8513 12.8285C57.2857 14.2174 57.5247 15.6674 57.5613 17.1374C57.5643 17.2754 57.5663 17.4145 57.5663 17.5536V18.0249C58.6809 18.2381 59.5268 19.2407 59.5268 20.4435V22.1006C59.5288 23.0423 59.0102 23.8608 58.2496 24.2741ZM37.7191 8.97194C37.7191 9.41324 37.8966 9.8145 38.1832 10.1047L38.1842 10.1057C38.1981 10.1207 38.2149 10.1327 38.2298 10.1477C38.5134 10.4129 38.8912 10.577 39.3077 10.577H40.6951C41.1116 10.577 41.4894 10.4139 41.773 10.1477C41.7879 10.1337 41.8038 10.1207 41.8186 10.1057L41.8196 10.1047C42.1062 9.8145 42.2837 9.41324 42.2837 8.97194V3.96963C42.2837 3.84054 42.2669 3.71046 42.2312 3.57037C42.2292 3.56336 42.2292 3.55636 42.2272 3.54935C42.0437 2.8689 41.4279 2.36557 40.6961 2.36557H39.3087C38.5769 2.36557 37.9601 2.8689 37.7766 3.55035C37.7746 3.55736 37.7746 3.56436 37.7726 3.57137C37.7369 3.71146 37.7201 3.84154 37.7201 3.97063V8.97194H37.7191Z" fill="#F6364D"/>
</svg>
