<svg width="72" height="80" viewBox="0 0 72 80" fill="none" xmlns="http://www.w3.org/2000/svg">
<path d="M43.2556 21.2588H64.0032V18.5958H43.2556V21.2588ZM43.2556 13.2709V15.9328H48.5258V13.2709H43.2556ZM66.4153 0H45.3374C45.3344 0 45.3087 0 45.282 0C44.8528 0 41.4824 0 41.0531 0H40.9978H5.58471C2.50506 0 0 2.53107 0 5.6427V51.9144V60.8386C0 62.7341 1.52697 64.277 3.40305 64.277H6.6083C8.48438 64.277 10.0113 62.7341 10.0113 60.8386V57.5561H52.5084V55.119H5.58373C3.85501 55.119 2.41111 53.6581 2.41111 51.9134V5.6427C2.41111 3.87504 3.83424 2.43714 5.58373 2.43714H40.9988H41.0541C41.4833 2.43714 44.8528 2.43714 45.283 2.43714H45.3384H66.4153C68.1648 2.43714 69.5879 3.87504 69.5879 5.6427V51.9144C69.5879 53.6581 68.144 55.12 66.4153 55.12H54.9195V57.5561H61.9887V60.8386C61.9887 62.7341 63.5146 64.276 65.3917 64.276H68.597C70.473 64.276 72 62.7341 72 60.8386V51.9144V5.6427C71.999 2.53107 69.4939 0 66.4153 0ZM5.58471 57.5561H7.59925V60.8376C7.59925 61.3892 7.15421 61.8388 6.6083 61.8388H3.40305C2.85714 61.8388 2.4121 61.3892 2.4121 60.8376V56.5539C3.33876 57.2044 4.45729 57.5561 5.58471 57.5561ZM68.597 61.8398H65.3917C64.8448 61.8398 64.4008 61.3902 64.4008 60.8386V57.5561H66.4153C67.5427 57.5561 68.6612 57.2034 69.5879 56.5549V60.8386C69.5879 61.3902 69.1429 61.8398 68.597 61.8398ZM38.8596 37.5813H7.87023V40.2433H38.8596V37.5813ZM38.8596 32.2564H18.1427V34.9184H38.8596V32.2564ZM64.0032 13.2709H51.1604V15.9328H64.0032V13.2709ZM7.87023 32.2564V34.9184H15.7414V32.2564H7.87023ZM28.9699 46.3586V43.6967H8.25296V46.3586H28.9699Z" fill="#2BAAE1"/>
<path fill-rule="evenodd" clip-rule="evenodd" d="M59.3985 40.5805C57.1377 40.5805 55.2992 38.7219 55.2992 36.4377C55.2992 34.1534 57.1387 32.2948 59.3985 32.2948C61.6593 32.2948 63.4987 34.1534 63.4987 36.4377C63.4987 38.7229 61.6593 40.5805 59.3985 40.5805ZM59.3985 34.733C58.4679 34.733 57.7103 35.4984 57.7103 36.4387C57.7103 37.379 58.4679 38.1444 59.3985 38.1444C60.3291 38.1444 61.0866 37.379 61.0866 36.4387C61.0866 35.4974 60.3291 34.733 59.3985 34.733ZM57.9338 46.3071C57.9338 48.2357 56.66 49.8674 54.9194 50.393V55.1204V57.5566V60.6212C54.9194 63.6779 52.4579 66.165 49.4326 66.165H26.7634C24.8686 66.165 23.3268 67.7228 23.3268 69.6374C23.3268 71.5519 24.8686 73.1087 26.7625 73.1097C27.2105 71.2211 28.8947 69.8122 30.8993 69.8122H47.4379C47.4379 69.8102 47.4389 69.8092 47.4389 69.8082V67.9786H49.85V69.8542C52.2878 70.0151 55.3763 70.6416 57.4502 71.8097L59.3698 72.8919H60.605V72.8809H62.7689V75.317H61.6088C61.589 75.318 61.5712 75.329 61.5515 75.329H59.3698L57.4502 76.4112C55.3773 77.5793 52.2878 78.2058 49.851 78.3667V80.0004H47.4398V78.4616C47.4398 78.4516 47.4339 78.4426 47.4339 78.4326V78.4097H30.8993C29.0519 78.4097 27.4765 77.2136 26.89 75.5468H26.7634C23.5384 75.5468 20.9157 72.8959 20.9157 69.6384C20.9157 66.3798 23.5394 63.7289 26.7634 63.7289H49.4326C51.1287 63.7289 52.5073 62.3349 52.5073 60.6222V57.5566V55.1194V50.392C50.7658 49.8664 49.4929 48.2337 49.4929 46.3061C49.4929 43.9549 51.3858 42.0414 53.7129 42.0414C56.0399 42.0424 57.9338 43.9559 57.9338 46.3071ZM56.2743 74.2828L56.5799 74.1099L56.2743 73.9381C54.6514 73.0238 51.9921 72.4602 49.85 72.2973V75.9226C51.9921 75.7607 54.6514 75.1971 56.2743 74.2828ZM30.8993 75.9715H47.4329V72.2484H30.8993C29.8836 72.2484 29.0569 73.0827 29.0569 74.1099C29.0569 75.1362 29.8836 75.9715 30.8993 75.9715ZM53.7129 44.4795C52.716 44.4795 51.9041 45.2989 51.9041 46.3071C51.9041 47.3144 52.715 48.1348 53.7129 48.1348C54.7108 48.1348 55.5217 47.3154 55.5217 46.3071C55.5217 45.2989 54.7108 44.4795 53.7129 44.4795ZM48.2468 40.5805C45.9861 40.5805 44.1476 38.7219 44.1476 36.4377C44.1476 34.1534 45.987 32.2948 48.2468 32.2948C50.5076 32.2948 52.3471 34.1534 52.3471 36.4377C52.3471 38.7229 50.5076 40.5805 48.2468 40.5805ZM48.2468 34.733C47.3162 34.733 46.5587 35.4984 46.5587 36.4387C46.5587 37.379 47.3162 38.1444 48.2468 38.1444C49.1775 38.1444 49.935 37.379 49.935 36.4387C49.935 35.4974 49.1775 34.733 48.2468 34.733ZM35.4506 26.6341H11.198C9.35262 26.6341 7.85236 25.1173 7.85236 23.2527V11.3228C7.85236 9.45825 9.35361 7.94141 11.198 7.94141H35.4496C37.295 7.94141 38.7953 9.45825 38.7953 11.3228V23.2527C38.7962 25.1163 37.295 26.6341 35.4506 26.6341ZM36.3851 11.3228C36.3851 10.8022 35.9658 10.3785 35.4506 10.3785H11.198C10.6828 10.3785 10.2635 10.8022 10.2635 11.3228V16.4769H17.5561L20.3381 13.666C20.8019 13.1974 21.5793 13.1974 22.0431 13.666L26.7308 18.4024L28.418 16.8066C28.6415 16.5948 28.9362 16.4769 29.2418 16.4769H36.3841V11.3228H36.3851ZM36.3851 18.913H29.7195L27.5289 20.9865C27.0601 21.4301 26.3055 21.4171 25.8516 20.9585L21.1916 16.2501L18.909 18.5563C18.6826 18.7851 18.376 18.913 18.0566 18.913H10.2645V23.2517C10.2645 23.7723 10.6838 24.196 11.199 24.196H35.4506C35.9658 24.196 36.3851 23.7723 36.3851 23.2517V18.913Z" fill="#F6364D"/>
</svg>
