<svg width="74" height="80" viewBox="0 0 74 80" fill="none" xmlns="http://www.w3.org/2000/svg">
<path fill-rule="evenodd" clip-rule="evenodd" d="M59.6768 48.9325C52.8544 48.9325 47.1409 44.135 45.7088 37.7384C43.9975 39.0783 42.9677 41.1178 42.9677 43.3544V56.1307H40.5808V43.3534C40.5808 39.9019 42.4142 36.7977 45.3806 35.0974C45.3746 34.9343 45.3555 34.7752 45.3555 34.6101C45.3555 26.7134 51.7806 20.2887 59.6778 20.2887C67.575 20.2887 74 26.7134 74 34.6101C73.999 42.5078 67.574 48.9325 59.6768 48.9325ZM59.6768 22.6754C53.0956 22.6754 47.7414 28.0293 47.7414 34.6101C47.7414 41.1909 53.0956 46.5447 59.6768 46.5447C66.2579 46.5447 71.6121 41.1909 71.6121 34.6101C71.6121 28.0293 66.2579 22.6754 59.6768 22.6754ZM38.1929 28.5817V58.5164H35.8061V28.5817C28.4653 27.9723 22.6768 21.8158 22.6768 14.3214C22.6768 6.42466 29.1018 0 37 0C44.8972 0 51.3222 6.42466 51.3222 14.3214C51.3222 21.8158 45.5337 27.9723 38.1929 28.5817ZM37 2.38673C30.4188 2.38673 25.0646 7.74061 25.0646 14.3214C25.0646 20.9022 30.4188 26.256 37 26.256C43.5812 26.256 48.9354 20.9022 48.9354 14.3214C48.9354 7.74061 43.5812 2.38673 37 2.38673ZM28.6445 34.6101C28.6445 34.7752 28.6254 34.9343 28.6194 35.0964C31.5858 36.7977 33.4182 39.9009 33.4182 43.3534V56.1297H31.0313V43.3534C31.0313 41.1168 30.0015 39.0773 28.2892 37.7374C26.857 44.134 21.1436 48.9315 14.3212 48.9315C6.42504 48.9325 0 42.5078 0 34.6101C0 26.7134 6.42504 20.2887 14.3222 20.2887C22.2194 20.2887 28.6445 26.7134 28.6445 34.6101ZM14.3222 22.6754C7.74107 22.6754 2.38687 28.0293 2.38687 34.6101C2.38687 41.1909 7.74107 46.5447 14.3222 46.5447C20.9034 46.5447 26.2576 41.1909 26.2576 34.6101C26.2576 28.0293 20.9034 22.6754 14.3222 22.6754ZM26.2956 63.7772C26.2786 63.6161 26.2576 63.455 26.2576 63.2899C26.2576 60.657 28.3993 58.5154 31.0323 58.5154C33.6654 58.5154 35.8061 60.657 35.8061 63.2899V75.2245C35.8061 77.8574 33.6654 79.999 31.0323 79.999C28.3993 79.999 26.2576 77.8584 26.2576 75.2245C26.2576 75.0614 26.2826 74.9023 26.2986 74.7412C24.1719 73.8265 22.6778 71.714 22.6778 69.2572C22.6768 66.8425 24.1289 64.7059 26.2956 63.7772ZM28.6445 72.8388C29.2749 72.8388 29.8944 72.6727 30.4329 72.3615L31.6308 74.427C30.7271 74.9503 29.6963 75.2265 28.6445 75.2265C28.6445 76.5425 29.7153 77.6133 31.0313 77.6133C32.3474 77.6133 33.4182 76.5425 33.4182 75.2265V63.2909C33.4182 61.9739 32.3474 60.9042 31.0313 60.9042C29.7143 60.9042 28.6445 61.9749 28.6445 63.2909C28.6445 64.3006 29.284 65.2053 30.2357 65.5415L29.4411 67.7911C28.4793 67.4519 27.6797 66.8204 27.1213 66.0209C25.8863 66.6023 25.0646 67.8512 25.0646 69.2572C25.0646 71.2316 26.6709 72.8388 28.6445 72.8388ZM42.9667 58.5164C45.5997 58.5164 47.7404 60.658 47.7404 63.2909C47.7404 63.455 47.7194 63.6171 47.7024 63.7782C49.8701 64.7069 51.3212 66.8435 51.3212 69.2582C51.3212 71.716 49.8271 73.8285 47.7004 74.7422C47.7154 74.9033 47.7414 75.0624 47.7414 75.2255C47.7414 77.8584 45.5997 80 42.9677 80C40.3346 80 38.1929 77.8594 38.1929 75.2255V63.2909C38.1929 60.658 40.3346 58.5164 42.9667 58.5164ZM40.5798 75.2245C40.5798 76.5405 41.6506 77.6113 42.9667 77.6113C44.2827 77.6113 45.3535 76.5405 45.3535 75.2245C44.3017 75.2245 43.2709 74.9493 42.3672 74.425L43.5651 72.3595C44.1036 72.6707 44.7231 72.8368 45.3525 72.8368C47.3261 72.8368 48.9334 71.2306 48.9334 69.2562C48.9334 67.8492 48.1117 66.6013 46.8767 66.0209C46.3183 66.8204 45.5187 67.4519 44.5569 67.7911L43.7623 65.5415C44.714 65.2033 45.3535 64.2986 45.3535 63.2899C45.3535 61.9729 44.2827 60.9032 42.9667 60.9032C41.6506 60.9032 40.5798 61.9739 40.5798 63.2899V75.2245Z" fill="#2BAAE1"/>
<path fill-rule="evenodd" clip-rule="evenodd" d="M62.5089 30.4225C65.0519 31.5233 66.8383 34.0542 66.8383 36.9973C66.8383 40.9462 63.6267 44.1585 59.6777 44.1585C55.7286 44.1585 52.516 40.9472 52.516 36.9973C52.516 34.0542 54.3014 31.5233 56.8454 30.4235L55.029 26.7909C54.8439 26.4216 54.8629 25.9813 55.081 25.6301C55.2992 25.2778 55.6825 25.0626 56.0968 25.0626H63.2585C63.6728 25.0626 64.0561 25.2768 64.2743 25.6281C64.4924 25.9803 64.5114 26.4196 64.3263 26.7889L62.5089 30.4225ZM58.0274 27.4504L59.2323 29.8601C59.3794 29.8501 59.5255 29.8371 59.6766 29.8371C59.8268 29.8371 59.9739 29.8501 60.122 29.8601L61.3259 27.4504H58.0274ZM59.6766 32.2238C57.0436 32.2238 54.9019 34.3654 54.9019 36.9983C54.9019 39.6312 57.0436 41.7718 59.6766 41.7718C62.3097 41.7718 64.4504 39.6302 64.4504 36.9983C64.4504 34.3654 62.3097 32.2238 59.6766 32.2238ZM44.1605 14.3219H42.9666V20.2892C42.9666 20.9487 42.4331 21.483 41.7726 21.483H32.2251C31.5646 21.483 31.0312 20.9487 31.0312 20.2892V14.3219H29.8373C29.3549 14.3219 28.9185 14.0316 28.7344 13.5853C28.5493 13.139 28.6523 12.6256 28.9936 12.2844L36.1552 5.12319C36.6216 4.65685 37.3762 4.65685 37.8425 5.12319L45.0031 12.2844C45.3444 12.6256 45.4475 13.139 45.2624 13.5853C45.0792 14.0316 44.6429 14.3219 44.1605 14.3219ZM33.4191 19.0963H40.5797V14.3219H33.4191V19.0963ZM36.9999 7.65503L32.7195 11.9351H41.2792L36.9999 7.65503ZM21.4837 40.5779H20.2898V41.7708H17.9029V40.5779H10.7413V41.7708H8.35442V40.5779H7.16049C6.49997 40.5779 5.96655 40.0445 5.96655 39.385V35.8044C5.96655 34.8417 6.543 34.0141 7.36665 33.6369L8.38945 29.5479C8.52356 29.0155 8.99893 28.6432 9.54736 28.6432H19.0958C19.6433 28.6432 20.1196 29.0155 20.2527 29.5479L21.2756 33.6369C22.1002 34.0141 22.6767 34.8417 22.6767 35.8044V39.385C22.6767 40.0445 22.1432 40.5779 21.4837 40.5779ZM18.1641 31.031H10.4811L9.88362 33.4177H18.7626L18.1641 31.031ZM20.2898 35.8044H8.35442V38.1912H20.2898V35.8044Z" fill="#F6364D"/>
</svg>
