<svg width="68" height="80" viewBox="0 0 68 80" fill="none" xmlns="http://www.w3.org/2000/svg">
<path fill-rule="evenodd" clip-rule="evenodd" d="M47.8872 40.9177H20.1208C18.7734 40.9177 17.6777 39.8294 17.6777 38.4933V30.9781C17.6777 29.641 18.7734 28.5537 20.1208 28.5537H21.3827C21.3968 28.5537 21.4089 28.5617 21.424 28.5617H22.5649V30.9042H20.2044V30.8972H20.1208C20.0755 30.8972 20.0393 30.9332 20.0393 30.9781V38.4933C20.0393 38.5372 20.0755 38.5742 20.1208 38.5742H47.8872C47.9325 38.5742 47.9688 38.5382 47.9688 38.4933V30.9781C47.9688 30.9332 47.9325 30.8972 47.8872 30.8972H27.5992V30.9042H25.2387V28.5617H26.3897C26.4038 28.5617 26.4159 28.5537 26.43 28.5537H47.8862C49.2336 28.5537 50.3293 29.641 50.3293 30.9781V38.4933C50.3303 39.8304 49.2336 40.9177 47.8872 40.9177ZM45.282 34.7357C45.282 35.3833 44.7533 35.9079 44.1007 35.9079H23.9063C23.8953 35.9079 23.8862 35.9019 23.8751 35.9019H22.722V33.5595H25.0826V33.5645H44.1017C44.7533 33.5645 45.282 34.0891 45.282 34.7357Z" fill="#F6364D"/>
<path fill-rule="evenodd" clip-rule="evenodd" d="M66.8187 79.998C66.1662 79.998 65.6375 79.4733 65.6375 78.8258V62.8511C65.6375 60.1669 63.9235 57.7625 61.3726 56.869L55.3776 54.7694V55.0282C55.3776 57.4007 54.4129 59.5533 52.854 61.1233V67.0214C54.3595 67.8689 55.3776 69.4738 55.3776 71.3106V78.8258C55.3776 78.8288 55.3756 78.8308 55.3756 78.8338V79.998H53.0151V76.5942V71.3116C53.0151 69.8856 51.8459 68.7263 50.4099 68.7263H44.0997C44.0846 68.7263 44.0725 68.7183 44.0574 68.7173H42.8943V66.3759H45.2548V66.3829H45.4431V63.7166H22.5629V66.3829H37.8902V66.3759H40.2508V68.7173H39.0947C39.0796 68.7183 39.0675 68.7263 39.0524 68.7263H17.5962C16.1591 68.7263 14.9909 69.8856 14.9909 71.3116V78.8268C14.9909 78.8457 14.9809 78.8607 14.9809 78.8787V79.999H12.6203V76.5952H12.6294V71.3126C12.6294 69.4758 13.6485 67.8709 15.1541 67.0234V61.1253C13.5942 59.5553 12.6294 57.4027 12.6294 55.0302V54.7714L6.63444 56.871C4.08358 57.7645 2.36959 60.1679 2.36959 62.8531V78.8278C2.36959 78.8437 2.36153 78.8567 2.36052 78.8717V80H0V77.3137H0.00805639V62.8531C0.00805639 59.1765 2.35448 55.8847 5.84794 54.6615L12.6294 52.286V31.1507H10.0232C8.67573 31.1507 7.58006 30.0635 7.58006 28.7263V24.9688C7.58006 23.6316 8.67573 22.5443 10.0232 22.5443H12.6284V21.2112C12.6284 9.51581 22.2175 0 34.004 0C45.7905 0 55.3787 9.51581 55.3787 21.2112V22.5443H57.9839C59.3313 22.5443 60.427 23.6316 60.427 24.9688V28.7263C60.427 30.0635 59.3313 31.1507 57.9839 31.1507H55.3787V52.284L62.1591 54.6595C65.6526 55.8827 68 59.1745 68 62.8511V78.8258C68 79.4733 67.4713 79.998 66.8187 79.998ZM12.6284 24.8878H10.0232C9.97785 24.8878 9.94159 24.9248 9.94159 24.9688V28.7263C9.94159 28.7713 9.97785 28.8073 10.0232 28.8073H12.6284V24.8878ZM47.8066 66.3819H50.4119C50.4391 66.3819 50.4663 66.3839 50.4935 66.3839V62.8192C49.6636 63.2259 48.7593 63.5067 47.8066 63.6346V66.3819ZM17.5146 66.3839C17.5418 66.3839 17.569 66.3819 17.5962 66.3819H20.2014V63.6346C19.2487 63.5067 18.3444 63.2269 17.5146 62.8192V66.3839ZM53.0171 21.2112C53.0171 10.807 44.4874 2.34348 34.004 2.34348C23.5206 2.34348 14.9909 10.808 14.9909 21.2112V22.5443H17.6777V21.2112C17.6777 21.1962 17.6858 21.1822 17.6868 21.1672V20.036H20.0473V22.3785H20.0403V22.5443H47.9698V22.3785H47.9627V20.036H50.3233V21.1672C50.3243 21.1822 50.3323 21.1962 50.3323 21.2112V22.5443H53.0191V21.2112H53.0171ZM53.0171 24.8878H14.9909V55.0282C14.9909 58.526 17.858 61.3711 21.3827 61.3711H46.6254C50.15 61.3711 53.0171 58.525 53.0171 55.0282V24.8878ZM55.3787 28.8073H57.9839C58.0292 28.8073 58.0655 28.7713 58.0655 28.7263V24.9688C58.0655 24.9238 58.0292 24.8878 57.9839 24.8878H55.3787V28.8073ZM20.1098 73.7511H17.7492V71.4096H20.1098V73.7511ZM50.3213 73.7511H47.9607V71.4096H50.3213V73.7511Z" fill="#2BAAE1"/>
</svg>
