<svg width="80" height="80" viewBox="0 0 80 80" fill="none" xmlns="http://www.w3.org/2000/svg">
<path fill-rule="evenodd" clip-rule="evenodd" d="M74.6663 80H13.3327C10.3875 80 8 77.6468 8 74.7452V73.4328H6.66633C2.98506 73.4328 0 70.4903 0 66.8636C0 63.2359 2.98506 60.2934 6.66633 60.2934H8V1.31344C8 0.588301 8.59761 0 9.33267 0H38.1992H43.1952H70.6663C71.4024 0 71.999 0.588301 71.999 1.31344V57.6655H78.6663C79.4024 57.6655 80 58.2538 80 58.979V74.7452C80 77.6478 77.6115 80 74.6663 80ZM6.66633 62.9203C4.45717 62.9203 2.66633 64.6842 2.66633 66.8636C2.66633 69.039 4.45717 70.8039 6.66633 70.8039V62.9203ZM9.33267 70.8039H11.999V62.9213H9.33267V70.8039ZM69.3327 74.7452V2.62788H42.7291H38.6663H10.6663V60.2944H53.3327C53.5388 60.2974 53.741 60.3503 53.9233 60.4452V60.4322L64.5896 65.688C64.8496 65.8148 65.0588 66.0216 65.1882 66.2773C65.5169 66.9265 65.249 67.7156 64.5896 68.0392L53.9243 73.294V73.281C53.742 73.3769 53.5398 73.4278 53.3337 73.4328H10.6663V74.7462C10.6663 76.1975 11.8606 77.3741 13.3327 77.3741H70.0737C69.5946 76.5781 69.3386 75.6711 69.3327 74.7452ZM52 65.5492V62.9213H14.6663V65.5492H52ZM14.6663 68.176V70.8039H52V68.176H14.6663ZM54.6663 63.7333V69.9919L61.0189 66.8636L54.6663 63.7333ZM77.3327 60.2934H71.999V74.7452C71.999 76.1965 73.1932 77.3731 74.6653 77.3731C76.1384 77.3731 77.3317 76.1965 77.3317 74.7452V60.2934H77.3327ZM22.6663 52.9122H65.3327V55.54H22.6663V52.9122ZM17.3337 52.9122H20V55.54H17.3337V52.9122Z" fill="#2BAAE1"/>
<path d="M42.6116 29.7065L36.9951 28.3241V27.4702C38.6684 26.3415 39.6664 24.4737 39.6614 22.4781V14.8991L39.1943 12.2712C37.7291 8.17107 33.1694 6.01763 29.009 7.46191C26.7261 8.25397 24.9313 10.0239 24.1275 12.2712L23.6614 14.8991V22.4711C23.6544 24.4707 24.6534 26.3415 26.3277 27.4712V28.3251L20.7112 29.7075C17.7411 30.4366 15.6574 33.0665 15.6604 36.0809V45.1162H18.3267V36.0809C18.3267 34.2721 19.5757 32.6969 21.3556 32.2575L27.9821 30.6244C28.5747 30.4786 28.9921 29.9532 28.9921 29.3499V26.722C28.9921 26.2246 28.7072 25.7692 28.255 25.5464C27.0688 24.9671 26.3208 23.7745 26.3267 22.4701V14.8981C26.3267 11.9945 28.7142 9.64233 31.6594 9.64233C34.6056 9.64233 36.9931 11.9955 36.9931 14.8981V22.4701C36.9981 23.7745 36.25 24.9681 35.0638 25.5464C34.6116 25.7692 34.3267 26.2236 34.3267 26.722V29.3499C34.3267 29.9532 34.7441 30.4786 35.3377 30.6244L41.9642 32.2575C43.7441 32.696 44.9931 34.2721 44.9931 36.0809V45.1162H47.6594V36.0809C47.6654 33.0645 45.5817 30.4356 42.6116 29.7065ZM20.9961 47.7431H23.6624V38.546H20.9961V47.7431ZM39.6624 47.7431H42.3287V38.546H39.6624V47.7431ZM51.6624 21.4653H54.3287V18.8384H51.6624V21.4653ZM56.9961 18.8384V21.4653H66.3297V18.8384H56.9961ZM51.6624 26.722H54.3287V24.0952H51.6624V26.722ZM56.9961 26.722H66.3297V24.0952H56.9961V26.722ZM51.6624 33.2902H54.3287V30.6634H51.6624V33.2902ZM56.9961 33.2902H66.3297V30.6634H56.9961V33.2902ZM51.6624 38.546H54.3287V35.9191H51.6624V38.546ZM56.9961 38.546H66.3297V35.9191H56.9961V38.546Z" fill="#F6364D"/>
</svg>
