<svg width="70" height="80" viewBox="0 0 70 80" fill="none" xmlns="http://www.w3.org/2000/svg">
<path d="M54.4047 18.6661H53.0779V17.3329C53.0779 15.124 51.296 13.3325 49.0967 13.3325H25.2122V10.6652C25.2122 9.92956 24.6186 9.33205 23.8855 9.33205H19.5347L19.194 7.48646C21.1105 6.40452 21.7908 3.96542 20.713 2.03976C20.0098 0.781674 18.686 0.00300259 17.2507 0H14.5972C12.3989 0.00400345 10.62 1.79755 10.623 4.00746C10.6259 5.4497 11.4009 6.77985 12.6529 7.48646L12.3133 9.33305H7.96149C7.22839 9.33305 6.63474 9.92956 6.63474 10.6662V13.3335H3.98124C1.78195 13.3335 0 15.124 0 17.3329V70.6669C0 72.8769 1.78195 74.6674 3.98124 74.6674H5.30799V76.0005C5.30799 78.2094 7.08994 80 9.28924 80H54.4047C56.603 80 58.3859 78.2094 58.3859 76.0005V22.6665C58.3859 20.4576 56.603 18.6661 54.4047 18.6661ZM22.5577 12.0003V17.334H21.0079L20.0247 12.0003H22.5577ZM13.3382 3.73722C13.4597 3.1297 13.9807 2.68632 14.5962 2.6663H17.2497C17.9818 2.68932 18.5566 3.30585 18.5327 4.04249C18.5127 4.66102 18.0715 5.18547 17.4669 5.30658C16.7437 5.42668 16.2547 6.11327 16.3742 6.8389C16.3762 6.84691 16.3772 6.85591 16.3792 6.86492L16.8344 9.33305H15.0116L15.4668 6.86492C15.5315 6.51262 15.4528 6.1503 15.2477 5.85705C15.0435 5.5638 14.7297 5.36463 14.3781 5.30658C13.6599 5.16245 13.1938 4.45985 13.3382 3.73722ZM18.3115 17.3329H13.5344L14.5175 11.9993H17.3224L18.3115 17.3329ZM9.28824 12.0003H11.8212L10.8381 17.334H9.28824V12.0003ZM3.98124 72.0001C3.24814 72.0001 2.65449 71.4036 2.65449 70.6669V17.3329C2.65449 16.5963 3.24814 15.9998 3.98124 15.9998H6.63474V18.6661C6.63474 19.4027 7.22839 19.9992 7.96149 19.9992H23.8845C24.6176 19.9992 25.2112 19.4027 25.2112 18.6661V15.9998H37.154H45.1154H49.0957C49.8288 15.9998 50.4224 16.5963 50.4224 17.3329V70.6669C50.4224 71.4036 49.8288 72.0001 49.0957 72.0001H3.98124ZM55.7314 76.0005C55.7314 76.7372 55.1378 77.3337 54.4047 77.3337H9.28824C8.55514 77.3337 7.96149 76.7372 7.96149 76.0005V74.6674H49.0967C51.295 74.6674 53.0779 72.8769 53.0779 70.6669V21.3334H54.4047C55.1378 21.3334 55.7314 21.9299 55.7314 22.6665V76.0005ZM23.8845 42.6668H7.96149V45.3331H23.8845V42.6668ZM26.539 45.3341H45.1164V42.6668H26.539V45.3341ZM31.847 48.0004H7.96149V50.6677H31.846V48.0004H31.847ZM34.5005 50.6667H45.1164V47.9994H34.5005V50.6667ZM7.96149 56.0003H45.1164V53.334H7.96149V56.0003ZM23.8845 58.6676H7.96149V61.3339H23.8845V58.6676ZM26.539 58.6676V61.3339H34.5005V58.6676H26.539ZM37.154 61.3339H45.1154V58.6676H37.154V61.3339ZM7.96149 66.6675H15.923V64.0002H7.96149V66.6675ZM18.5775 66.6675H45.1164V64.0002H18.5775V66.6675Z" fill="#2BAAE1"/>
<path d="M42.462 20.9342L42.2389 20.5979C41.7827 19.9854 40.9191 19.8593 40.3095 20.3187C40.2039 20.3978 40.1103 20.4918 40.0316 20.5979L39.8085 20.9342V16.001H37.155V25.334C37.155 26.0707 37.7487 26.6682 38.4818 26.6682C38.925 26.6682 39.3404 26.446 39.5864 26.0747L41.1363 23.7346L42.6861 26.0707C43.0925 26.6832 43.9162 26.8493 44.5258 26.44C44.8934 26.1938 45.1155 25.7784 45.1165 25.334V16.001H42.462V20.9342ZM66.0197 18.6663C63.8214 18.6663 62.0385 20.4578 62.0385 22.6667V68.0008C62.0385 68.144 62.0624 68.2861 62.1072 68.4222L64.7607 76.4221C64.9898 77.1217 65.7398 77.502 66.4361 77.2728C66.8365 77.1407 67.1503 76.8244 67.2827 76.4221L69.9362 68.4222C69.9801 68.2861 70.001 68.144 70 68.0008V22.6667C70.001 20.4578 68.219 18.6663 66.0197 18.6663ZM66.0197 71.7841L64.7647 68.0008H67.2758L66.0197 71.7841ZM67.3475 65.3335H64.694V33.3329H67.3475V65.3335ZM67.3475 30.6666H64.694V29.3335H67.3475V30.6666ZM67.3475 26.6662H64.694V22.6667C64.694 21.9301 65.2876 21.3336 66.0207 21.3336C66.7538 21.3336 67.3475 21.9301 67.3475 22.6667V26.6662ZM7.96155 37.3334H31.846V34.6671H7.96155V37.3334ZM13.2695 29.3335H7.96155V31.9998H13.2695V29.3335ZM15.923 32.0008H31.846V29.3345H15.923V32.0008Z" fill="#F6364D"/>
</svg>
