<svg width="72" height="80" viewBox="0 0 72 80" fill="none" xmlns="http://www.w3.org/2000/svg">
<path d="M54.8984 14.4126V11.9446H52.4304V14.4126H54.8984ZM49.9625 14.4126V11.9446H41.2701V14.4126H49.9625ZM59.8333 7.00969H41.2491V9.47765H59.8333V7.00969ZM59.8333 14.4126V11.9446H57.3653V14.4126H59.8333ZM64.7842 0.000976562H36.5953C35.4908 0.000976562 34.5945 0.896324 34.5945 2.00175V29.0482C34.5945 30.1537 35.4908 31.049 36.5953 31.049H64.7842C65.8897 31.049 66.785 30.1527 66.785 29.0482V2.00175C66.785 0.896324 65.8897 0.000976562 64.7842 0.000976562ZM64.312 27.3696C64.312 27.9218 63.8639 28.37 63.3116 28.37H38.1669C37.6147 28.37 37.1665 27.9218 37.1665 27.3696V3.50634C37.1665 2.95412 37.6147 2.50595 38.1669 2.50595H63.3116C63.8639 2.50595 64.312 2.95412 64.312 3.50634V27.3696ZM41.2551 19.4815H59.8403V17.0136H41.2551V19.4815ZM41.2621 24.4825H54.8454V22.0155H41.2621V24.4825Z" fill="#F6364D"/>
<path fill-rule="evenodd" clip-rule="evenodd" d="M70.8385 41.8028H69.6771V78.8382C69.6771 79.4794 69.1569 79.9996 68.5156 79.9996H1.16145C0.520202 79.9996 0 79.4794 0 78.8382V54.5768C0 53.9355 0.520202 53.4153 1.16145 53.4153H2.38493L4.64481 12.7045C4.67982 12.0893 5.18902 11.6081 5.80626 11.6081V10.4467C5.80726 10.0505 5.87628 9.65836 6.01034 9.28522C3.75746 9.38426 1.75868 7.84966 1.27149 5.64781C0.718279 3.14384 2.29989 0.663878 4.80487 0.110664C7.30984 -0.443551 9.78981 1.13806 10.343 3.64303C11.7896 4.10421 12.772 5.44673 12.774 6.96432C12.773 7.57656 12.6099 8.17779 12.2998 8.706C12.6089 9.2342 12.773 9.83543 12.774 10.4487V11.6101C13.3902 11.6091 13.9004 12.0903 13.9354 12.7065L16.1953 53.4173H16.3203L18.5802 12.7065C18.6142 12.0913 19.1244 11.6101 19.7417 11.6101V10.4487C19.7427 10.0525 19.8117 9.66037 19.9458 9.28722C17.6929 9.38626 15.6941 7.85166 15.2069 5.64981C14.6527 3.14484 16.2343 0.664879 18.7393 0.110664C21.2443 -0.443551 23.7242 1.13806 24.2784 3.64303C25.725 4.10421 26.7074 5.44673 26.7094 6.96432C26.7084 7.57656 26.5453 8.17779 26.2352 8.706C26.5443 9.2342 26.7084 9.83543 26.7094 10.4487V11.6101C27.3266 11.6091 27.8358 12.0903 27.8708 12.7065L29.0983 34.8361H70.8385C71.4798 34.8361 72 35.3563 72 35.9976V40.6424C72 41.2826 71.4798 41.8028 70.8385 41.8028ZM59.226 77.6767H61.5489V70.0308H59.226V77.6767ZM49.9354 77.6767H52.2583V70.0308H49.9354V77.6767ZM40.6458 77.6767H42.9687V70.0308H40.6458V77.6767ZM31.3552 77.6767H33.6781V70.0308H31.3552V77.6767ZM25.5479 77.6767H29.0323V68.8693C29.0323 68.2281 29.5525 67.7079 30.1937 67.7079H34.8385C35.4798 67.7079 36 68.2281 36 68.8693V77.6767H38.3229V68.8693C38.3229 68.2281 38.8431 67.7079 39.4844 67.7079H44.1292C44.7704 67.7079 45.2906 68.2281 45.2906 68.8693V77.6767H47.6135V68.8693C47.6135 68.2281 48.1337 67.7079 48.775 67.7079H53.4208C54.062 67.7079 54.5822 68.2281 54.5822 68.8693V77.6767H56.9051V68.8693C56.9051 68.2281 57.4253 67.7079 58.0666 67.7079H62.7124C63.3536 67.7079 63.8738 68.2281 63.8738 68.8693V77.6767H67.3582V64.0635H25.5519V77.6767H25.5479ZM25.5479 61.7406H67.3542V41.8028H25.5479V61.7406ZM16.2583 77.6767H18.5812V67.0296H16.2583V77.6767ZM6.96771 77.6767H9.29061V67.0296H6.96771V77.6767ZM10.4521 10.4477C10.4501 10.1135 10.303 9.79742 10.0479 9.58033C10.0089 9.54632 9.97188 9.50931 9.93786 9.46929C9.5157 8.9861 9.56472 8.25282 10.0479 7.83066C10.303 7.61357 10.4501 7.29745 10.4521 6.96332C10.4521 6.32207 9.93186 5.80187 9.29061 5.80187C8.64936 5.80187 8.12916 5.28267 8.12916 4.64142C8.12916 4.3353 8.06914 4.03218 7.95109 3.74907C7.4579 2.56462 6.09937 2.0034 4.91491 2.49659C3.73045 2.98878 3.16923 4.34731 3.66242 5.53277C4.15462 6.71723 5.51414 7.27744 6.6986 6.78525H6.6996C7.29184 6.53816 7.9711 6.81826 8.2192 7.40949C8.29523 7.56956 8.40727 7.71161 8.54632 7.82265C8.58734 7.85867 8.62535 7.89668 8.66137 7.9387C9.07853 8.42489 9.02351 9.15817 8.53832 9.57633C8.28122 9.79242 8.13116 10.1115 8.12916 10.4477V11.6091H10.4521V10.4477ZM11.6755 13.932H6.90468L6.77563 16.2549H11.8046L11.6755 13.932ZM11.9336 18.5768H6.64758L4.71183 53.4153H13.8694L11.9336 18.5768ZM2.3229 55.7382V77.6767H4.64581V65.8682C4.64581 65.2269 5.16601 64.7067 5.80726 64.7067H10.4521C11.0933 64.7067 11.6135 65.2259 11.6135 65.8682V77.6767H13.9364V65.8682C13.9364 65.2269 14.4566 64.7067 15.0979 64.7067H19.7427C20.3839 64.7067 20.9041 65.2259 20.9041 65.8682V77.6767H23.227V55.7382H2.3229ZM24.3875 10.4477C24.3855 10.1135 24.2384 9.79742 23.9833 9.58033C23.9443 9.54632 23.9073 9.50931 23.8733 9.46929C23.4511 8.9861 23.5011 8.25282 23.9833 7.83066C24.2384 7.61357 24.3855 7.29745 24.3875 6.96332C24.3875 6.32207 23.8673 5.80187 23.226 5.80187C22.5848 5.80187 22.0646 5.28267 22.0646 4.64042C22.0646 4.3343 22.0036 4.03118 21.8865 3.74807C21.3943 2.56361 20.0348 2.0034 18.8503 2.49559C17.6659 2.98778 17.1047 4.34731 17.5978 5.53177C18.09 6.71622 19.4496 7.27644 20.634 6.78425H20.635C21.2273 6.53716 21.9075 6.81726 22.1546 7.40849C22.2316 7.56956 22.3427 7.71161 22.4817 7.82265C22.5228 7.85867 22.5608 7.89668 22.5968 7.9387C23.0149 8.42489 22.9599 9.15817 22.4737 9.57633C22.2166 9.79242 22.0666 10.1115 22.0656 10.4477V11.6091H24.3885V10.4477H24.3875ZM25.611 13.932H20.8401L20.7111 16.2549H25.74L25.611 13.932ZM25.8691 18.5768H20.583L18.6472 53.4153H23.226V41.8028H22.0646C21.4233 41.8028 20.9031 41.2826 20.9031 40.6414V35.9966C20.9031 35.3553 21.4233 34.8351 22.0646 34.8351H26.7724L25.8691 18.5768ZM69.6771 37.157H23.226V39.4799H69.6771V37.157ZM4.97593 59.5867H20.8711V61.8976H4.97593V59.5867ZM28.9853 56.7346H63.8878V59.0455H28.9853V56.7346ZM62.7104 53.4153H58.0646C57.4233 53.4153 56.9031 52.8951 56.9031 52.2539V45.2862C56.9031 44.6449 57.4233 44.1247 58.0646 44.1247H62.7104C63.3516 44.1247 63.8718 44.6449 63.8718 45.2862V52.2539C63.8708 52.8951 63.3516 53.4153 62.7104 53.4153ZM61.5489 46.4476H59.226V51.0924H61.5489V46.4476ZM53.4198 53.4153H48.774C48.1327 53.4153 47.6125 52.8951 47.6125 52.2539V45.2862C47.6125 44.6449 48.1327 44.1247 48.774 44.1247H53.4198C54.061 44.1247 54.5812 44.6449 54.5812 45.2862V52.2539C54.5812 52.8951 54.061 53.4153 53.4198 53.4153ZM52.2583 46.4476H49.9354V51.0924H52.2583V46.4476ZM44.1292 53.4153H39.4844C38.8431 53.4153 38.3229 52.8951 38.3229 52.2539V45.2862C38.3229 44.6449 38.8431 44.1247 39.4844 44.1247H44.1292C44.7704 44.1247 45.2906 44.6449 45.2906 45.2862V52.2539C45.2906 52.8951 44.7704 53.4153 44.1292 53.4153ZM42.9677 46.4476H40.6458V51.0924H42.9687V46.4476H42.9677ZM34.8385 53.4153H30.1937C29.5525 53.4153 29.0323 52.8951 29.0323 52.2539V45.2862C29.0323 44.6449 29.5525 44.1247 30.1937 44.1247H34.8385C35.4798 44.1247 36 44.6449 36 45.2862V52.2539C36 52.8951 35.4798 53.4153 34.8385 53.4153ZM33.6781 46.4476H31.3552V51.0924H33.6781V46.4476Z" fill="#2BAAE1"/>
</svg>
