<svg width="84" height="80" viewBox="0 0 84 80" fill="none" xmlns="http://www.w3.org/2000/svg">
<path fill-rule="evenodd" clip-rule="evenodd" d="M56.2737 56.6552H44.3497V53.7494C44.3497 53.2356 44.0371 52.7757 43.5643 52.5898L42.3239 52.105C42.3022 52.095 42.2883 52.076 42.2656 52.067L13.2494 40.7224V34.05H13.2781V30.5823H12.0862C12.0625 30.5813 12.0437 30.5693 12.0199 30.5693C11.9962 30.5693 11.9764 30.5813 11.9527 30.5823H10.7746V34.05H10.7894V39.7598L4.50253 37.2987C4.12468 37.1508 3.69737 37.2008 3.36206 37.4327C3.02773 37.6646 2.82694 38.0484 2.82694 38.4583V77.4752H1.23048C0.550946 77.4742 0 78.0309 0 78.7177C0 79.4044 0.550946 79.9612 1.23048 79.9612H82.1147V80.0002H84V77.4702H82.1147V77.4742H81.1671V70.187C81.1671 68.1878 79.5578 66.5624 77.5805 66.5624H72.6873C72.6853 66.5404 55.3043 66.6114 55.3043 66.6114C55.3043 66.6114 56.0996 58.6245 56.2737 56.6552ZM16.6263 77.4742H30.5503V71.5605H16.6263V77.4742ZM41.8887 54.601L40.3605 54.0023C40.3388 53.9943 40.3249 53.9753 40.3041 53.9653L5.28691 40.2706V77.4732H14.1654V70.3159C14.1654 69.6292 14.7163 69.0724 15.3958 69.0724H31.7808C32.4603 69.0724 33.0113 69.6292 33.0113 70.3159V77.4732H41.8887V54.601ZM44.3497 66.5624H55.2301L55.5595 64.1193H44.3497V66.5624ZM44.3497 59.1423V61.6333H55.9384L56.065 59.1423H44.3497ZM78.7062 70.188C78.7062 69.5602 78.2007 69.0494 77.5805 69.0494H44.3497V77.4742H78.7062V70.188ZM51.235 74.9401H48.7622V71.2856H51.235V74.9401ZM58.9324 74.9401H56.4596V71.2856H58.9324V74.9401ZM66.5982 74.9401H64.1254V71.2856H66.5982V74.9401ZM74.2946 74.9401H71.8218V71.2856H74.2946V74.9401ZM9.38883 65.9666V61.4134H9.3829V52.3549H9.38883V48.0726C9.38883 47.6697 9.58271 47.2909 9.90813 47.0579C10.2336 46.825 10.652 46.7661 11.0278 46.9L36.9658 56.1444C37.4574 56.3194 37.7868 56.7892 37.7868 57.317V65.9666C37.7868 66.6534 37.2359 67.2101 36.5563 67.2101H10.6193C9.93978 67.2091 9.38883 66.6524 9.38883 65.9666ZM28.9954 64.7231H35.3258V58.1976L28.9954 55.9415V64.7231ZM20.6412 64.7231H26.5354V55.0638L20.6412 52.9637V64.7231ZM11.8488 64.7231H18.1802V52.086L11.8498 49.8299V52.3549H11.8557V61.4134H11.8498V64.7231H11.8488Z" fill="#2BAAE1"/>
<path fill-rule="evenodd" clip-rule="evenodd" d="M72.6873 66.5622C72.6854 66.5402 69.2412 29.1987 69.2353 29.1317C69.1482 28.0901 68.2699 27.2744 67.2362 27.2744H60.6991C59.6486 27.2744 58.7891 28.0721 58.7 29.1307C54.697 76.8452 58.7802 26.7966 56.2737 56.6541L55.0956 66.5622H72.6873ZM66.8188 29.7625H61.1165L60.4231 38.0203H67.5112L66.8188 29.7625ZM67.7209 40.5073H60.2154L59.522 48.7651H68.4143L67.7209 40.5073ZM68.623 51.2511H59.3133C59.25 52.0108 58.5309 58.7582 58.4676 59.5089H60.1372V59.5079H68.1126V59.5089H69.3154L68.623 51.2511ZM69.5241 61.996H68.1126V62.007H60.1372V61.996H58.2589C58.1422 63.3864 57.9008 64.3811 57.7178 66.5622H70.2175L69.5241 61.996ZM68.3856 20.664C67.352 20.664 66.5102 21.5147 66.5102 22.5593V24.3766C66.5102 24.3866 66.5043 24.3945 66.5043 24.4045V25.6151H65.3055C65.2966 25.6151 65.2886 25.6211 65.2797 25.6211C65.2708 25.6211 65.2629 25.6161 65.254 25.6151H64.0631V24.4435C64.0621 24.4205 64.0502 24.4005 64.0502 24.3776V22.5603C64.0502 20.1442 65.9959 18.179 68.3866 18.179C70.1799 18.179 71.6399 16.7045 71.6399 14.8912V13.1439C71.6399 11.3316 70.1809 9.85618 68.3866 9.85618H64.1254C61.709 9.85618 59.7426 7.86895 59.7426 5.4269V1.24352C59.7426 1.19954 59.7634 1.16255 59.7673 1.11957V0H62.2401V2.49903H62.2035V5.4259C62.2035 6.49648 63.0661 7.36815 64.1264 7.36815H68.3876C71.538 7.36815 74.1008 9.95814 74.1008 13.1429V14.8902C74.0998 18.074 71.537 20.664 68.3856 20.664ZM65.7011 3.67358C65.7001 3.65458 65.6902 3.63859 65.6902 3.6186V1.25451C65.6902 1.23452 65.7001 1.21853 65.7011 1.19954V0H68.1739V4.87311H65.7011V3.67358ZM61.8 21.1568V21.9295H61.8069V24.4285H59.3341V21.9295H59.34V21.1568C59.34 20.3111 58.6595 19.6224 57.8227 19.6224C55.6288 19.6224 53.8444 17.8191 53.8444 15.602V14.1505H53.8325V11.6515H56.3053V14.1505V15.602C56.3053 16.4476 56.9859 17.1354 57.8227 17.1354C60.0156 17.1354 61.8 18.9397 61.8 21.1568Z" fill="#F6364D"/>
</svg>
