<svg width="76" height="80" viewBox="0 0 76 80" fill="none" xmlns="http://www.w3.org/2000/svg">
<path d="M48.0007 55.9998C48.0218 50.5626 46.1757 45.2843 42.7721 41.0459C39.6679 37.1621 35.4399 34.3311 30.667 32.9406V29.1037C32.7495 28.3665 33.8403 26.081 33.103 23.9982C32.5381 22.4019 31.0286 21.3341 29.3338 21.3341H18.6671C16.4584 21.3351 14.6685 23.1261 14.6685 25.3348C14.6695 27.0299 15.7362 28.5393 17.3339 29.1037V32.9406C12.561 34.3311 8.33298 37.1621 5.22883 41.0459C1.82519 45.2843 -0.0198718 50.5626 0.000161432 55.9998C0.000161432 69.2326 10.767 80 23.9999 80C37.2339 80 48.0007 69.2326 48.0007 55.9998ZM18.6671 24.0002H29.3338C30.07 24.0002 30.667 24.5966 30.667 25.3328C30.667 26.069 30.07 26.6663 29.3338 26.6663H18.6671C17.9309 26.6663 17.3339 26.069 17.3339 25.3328C17.3339 24.5966 17.9309 24.0002 18.6671 24.0002ZM24.0009 77.3339C12.2244 77.3199 2.68061 67.7761 2.66658 55.9998C2.64755 51.169 4.28827 46.476 7.31329 42.7091C10.2722 39.0051 14.375 36.3869 18.9796 35.2621C19.5776 35.1182 19.9993 34.5828 20.0003 33.9665V29.3335H28.0006V33.9665C28.0006 34.5828 28.4223 35.1192 29.0213 35.2621C33.6269 36.3869 37.7297 39.0061 40.6886 42.7091C43.7136 46.477 45.3533 51.168 45.3343 55.9998C45.3203 67.7761 35.7765 77.3199 24.0009 77.3339ZM69.3341 0H10.6668C6.98674 0.0039957 4.0048 2.98679 4.00079 6.66683V34.6667H6.66721V6.66683C6.66922 4.45921 8.45919 2.67013 10.6668 2.66713H69.3341C71.5418 2.66913 73.3317 4.45921 73.3337 6.66683V73.3342C73.3307 75.5418 71.5418 77.3319 69.3341 77.3339H40.0005V80H69.3341C73.0142 79.996 75.9961 77.0142 76.0002 73.3332V6.66683C75.9961 2.98679 73.0142 0.0039957 69.3341 0ZM52.0004 45.3333H69.3341V42.6651H52.0004V45.3333ZM52.0004 50.6665H69.3341V48.0014H52.0004V50.6665ZM52.0004 55.9998H66.6667V53.3337H52.0004V55.9998ZM69.3341 37.3339H61.3338V40H69.3341V37.3339ZM56 37.3339V40H58.6664V37.3339H56ZM50.6672 73.3332H69.3341V70.666H66.6667V63.9992H64.0003V70.666H61.3338V61.3341H58.6674V70.667H56.001V66.6663H53.3346V70.667H50.6682V73.3332H50.6672ZM10.6668 6.66683V20.0005H13.3343V17.3334H28.0016V14.6672H13.3343V12.0001H33.3344V9.33297H13.3343V6.66683H10.6668ZM33.3334 17.3334V14.6672H30.667V17.3334H33.3334ZM36.0008 9.33297V12.0001H38.6683V9.33297H36.0008ZM9.28656 44.5121L11.388 46.1544C13.3533 43.6301 16.0327 41.7541 19.0778 40.7722L18.2584 38.2349C14.7055 39.3797 11.5794 41.5673 9.28656 44.5121ZM6.2335 50.257L8.7707 51.0761C9.04516 50.228 9.38973 49.4069 9.80141 48.6167L7.43649 47.3831C6.95669 48.3061 6.55403 49.267 6.2335 50.257Z" fill="#2BAAE1"/>
<path d="M42.5998 53.6354C42.5467 52.9012 41.9077 52.3488 41.1734 52.4027C40.8539 52.4257 40.5534 52.5636 40.327 52.7893L39.3094 53.8062C37.4813 55.6303 34.5214 55.6303 32.6924 53.8062L31.862 52.9761C28.9913 50.1132 24.3435 50.1132 21.4728 52.9761L20.6424 53.8062C18.8144 55.6303 15.8545 55.6303 14.0254 53.8062C11.9931 51.7884 8.97507 51.1331 6.28762 52.124C5.80582 52.3018 5.46826 52.7394 5.42118 53.2518C5.36108 53.8871 5.33203 54.4605 5.33203 55.0019C5.33203 65.3119 13.6889 73.6689 23.999 73.6689C34.3081 73.6689 42.6659 65.3128 42.6659 55.0019C42.6659 54.5594 42.6349 54.1409 42.6058 53.7363L42.5998 53.6354ZM24.001 71.0017C15.1683 70.9918 8.01047 63.8334 8.00046 55.0009C8.00046 54.8101 8.00546 54.6124 8.01348 54.4086C9.51597 54.1379 11.0555 54.6173 12.1393 55.6912C15.0101 58.5561 19.6578 58.5561 22.5285 55.6912L23.3589 54.8611C25.1879 53.037 28.1469 53.037 29.9759 54.8611L30.8063 55.6912C33.2323 58.1116 37.0055 58.5361 39.9094 56.7181C39.0209 64.8394 32.1675 70.9908 24.001 71.0017ZM13.3343 63.0013H16.0007V60.3352H13.3343V63.0013ZM21.3336 68.3346H24V65.6675H21.3336V68.3346ZM25.3342 60.3352H28.0016V57.6681H25.3342V60.3352ZM30.667 64.3339H33.3335V61.6678H30.667V64.3339ZM66.6667 17.6681V12.3358C66.6667 11.8293 66.3812 11.3698 65.9295 11.1421L61.3329 8.84455V5.66797H58.6675V8.84455L54.3533 11.0012H50.6682V13.6684H53.3346V18.1765L49.334 20.1784L45.3343 18.1765V15.0019H42.6679V18.1765L38.0713 20.475C37.6196 20.7028 37.3341 21.1633 37.3341 21.6688V28.3356C37.3341 28.8401 37.6196 29.3026 38.0713 29.5283L42.6679 31.8268V35.0024H45.3343V31.8258L49.334 29.826L54.0708 32.1945C54.4465 32.3822 54.8882 32.3822 55.2628 32.1945L60.3142 29.6692H63.9993V27.002H61.3329V22.4929L65.647 20.3362H69.3331V17.6681H66.6667ZM48.0008 27.5105L44.0001 29.5103L40.0005 27.5105V22.4919L44.0001 20.493L48.0008 22.4919V27.5105ZM58.6675 27.5105L54.6678 29.5103L50.6672 27.5105V22.4919L54.6678 20.493L58.6675 22.4919V27.5105ZM64.0003 18.1765L60.0007 20.1784L56.001 18.1765V13.1589L60.0007 11.1591L64.0013 13.1589V18.1765H64.0003Z" fill="#F6364D"/>
</svg>
