<svg width="66" height="80" viewBox="0 0 66 80" fill="none" xmlns="http://www.w3.org/2000/svg">
<path d="M62.0406 0H11.8801C9.69274 0 7.91972 1.79092 7.91972 4.00035V66.6675H1.32012C0.591334 66.6665 0 67.2638 0 68V73.3337C0.00395541 77.0135 2.95667 79.996 6.5996 80H59.4004C63.0433 79.995 65.996 77.0135 66 73.3337V4.00035C66 1.79092 64.227 0 62.0406 0ZM50.1606 2.6669H55.441V10.6676L53.8569 8.53408C53.3773 7.94476 52.515 7.86086 51.9316 8.3453C51.8634 8.40223 51.8011 8.46516 51.7447 8.53408L50.1606 10.6676V2.6669ZM6.5996 77.3331C4.41226 77.3331 2.63925 75.5422 2.63925 73.3337V69.3334H52.7998V73.3337C52.7978 74.7761 53.2616 76.1804 54.1199 77.3331H6.5996ZM63.3607 73.3337C63.3607 75.5422 61.5877 77.3331 59.4004 77.3331C57.213 77.3331 55.44 75.5422 55.44 73.3337V68C55.44 67.2638 54.8487 66.6665 54.1199 66.6665H10.56V4.00035C10.56 3.26421 11.1513 2.6669 11.8801 2.6669H47.5203V14.6669C47.5203 15.4031 48.1116 16.0004 48.8404 16.0004C49.2557 16.0004 49.6473 15.8026 49.8965 15.467L52.8008 11.5566L55.705 15.467C55.9542 15.8026 56.3458 16.0004 56.7611 16.0004C56.9025 16.0004 57.044 15.9774 57.1784 15.9325C57.7174 15.7507 58.0813 15.2413 58.0813 14.6669V2.6669H62.0416C62.7704 2.6669 63.3617 3.26421 63.3617 4.00035V73.3337H63.3607ZM15.8404 24.0001H31.6809V21.3332H15.8404V24.0001ZM42.2398 24.0001H58.0803V21.3332H42.2398V24.0001ZM23.7602 26.667H15.8404V29.3329H23.7602V26.667ZM50.1606 29.3329H58.0803V26.667H50.1606V29.3329ZM21.1199 31.9998H15.8394V34.6667H21.1199V31.9998ZM52.8008 34.6667H58.0813V31.9998H52.8008V34.6667ZM18.4797 37.3336H15.8394V40.0005H18.4797V37.3336ZM18.4797 42.6664H15.8394V45.3333H18.4797V42.6664ZM55.44 45.3333H58.0803V42.6664H55.44V45.3333ZM18.4797 48.0002H15.8394V50.6671H18.4797V48.0002ZM52.8008 50.6671H58.0813V48.0002H52.8008V50.6671ZM21.1199 53.334H15.8394V56.0009H21.1199V53.334ZM50.1606 56.0009H58.0803V53.334H50.1606V56.0009ZM15.8404 61.3337H31.6809V58.6668H15.8404V61.3337ZM55.44 40.0005H58.0803V37.3336H55.44V40.0005ZM42.2398 61.3337H58.0803V58.6668H42.2398V61.3337Z" fill="#2BAAE1"/>
<path d="M30.3598 13.3338H15.8405V16.0007H30.3608V13.3338H30.3598ZM18.4797 8.00098H15.8395V10.6679H18.4797V8.00098ZM30.3598 8.00098H21.12V10.6679H30.3598V8.00098ZM36.9604 25.3338C28.212 25.3338 21.12 32.4975 21.12 41.3342C21.12 50.171 28.212 57.3346 36.9604 57.3346C45.7048 57.3246 52.7909 50.167 52.8008 41.3342C52.8008 32.4975 45.7088 25.3338 36.9604 25.3338ZM36.9604 54.6667C29.6706 54.6667 23.7602 48.6967 23.7602 41.3332C23.7602 33.9698 29.6706 27.9997 36.9604 27.9997C44.2502 27.9997 50.1606 33.9698 50.1606 41.3332C50.1527 48.6947 44.2472 54.6587 36.9604 54.6667ZM36.9604 37.3339C38.0966 37.3349 39.1784 37.8283 39.9299 38.6893L41.9096 36.9254C39.4988 34.1636 35.3278 33.8989 32.5936 36.334C29.8594 38.7692 29.5974 42.9823 32.0082 45.7441C34.419 48.5059 38.59 48.7706 41.3242 46.3344C41.5309 46.1506 41.7267 45.9529 41.9086 45.7441L39.9299 43.9791C38.4832 45.6362 35.9814 45.795 34.3409 44.3337C32.7004 42.8724 32.5432 40.3454 33.9889 38.6883C34.7414 37.8273 35.8232 37.3339 36.9604 37.3339Z" fill="#F6364D"/>
</svg>
