<svg width="72" height="80" viewBox="0 0 72 80" fill="none" xmlns="http://www.w3.org/2000/svg">
<path fill-rule="evenodd" clip-rule="evenodd" d="M70.8385 41.8056H69.6771V78.8391C69.6771 79.4803 69.1569 80.0005 68.5156 80.0005H1.16145C0.520202 80.0005 0 79.4803 0 78.8391V54.5789C0 53.9377 0.520202 53.4175 1.16145 53.4175H2.38493L4.64481 12.7098C4.67982 12.0946 5.18902 11.6134 5.80626 11.6134V10.452C5.80726 10.0559 5.87628 9.66376 6.01034 9.29064C3.75746 9.38967 1.75868 7.85515 1.27149 5.65341C0.718279 3.14856 2.29989 0.669728 4.80487 0.115541C7.30984 -0.438646 9.78981 1.14289 10.343 3.64773C11.7896 4.10889 12.772 5.45134 12.774 6.96885C12.773 7.58106 12.6099 8.18226 12.2998 8.71044C12.6089 9.23862 12.773 9.83982 12.774 10.453V11.6144C13.3902 11.6134 13.9004 12.0946 13.9354 12.7108L16.1953 53.4185H16.3203L18.5802 12.7108C18.6142 12.0956 19.1244 11.6144 19.7417 11.6144V10.453C19.7427 10.0569 19.8117 9.66476 19.9458 9.29164C17.6929 9.39067 15.6941 7.85615 15.2069 5.65441C14.6527 3.14956 16.2343 0.669728 18.7393 0.115541C21.2443 -0.438646 23.7242 1.14289 24.2784 3.64773C25.725 4.10889 26.7074 5.45134 26.7094 6.96885C26.7084 7.58106 26.5453 8.18226 26.2352 8.71044C26.5443 9.23862 26.7084 9.83982 26.7094 10.453V11.6144C27.3266 11.6134 27.8358 12.0946 27.8708 12.7108L29.0983 34.8393H70.8385C71.4798 34.8393 72 35.3594 72 36.0006V40.6452C72 41.2854 71.4798 41.8056 70.8385 41.8056ZM59.226 77.6777H61.5489V70.0321H59.226V77.6777ZM49.9354 77.6777H52.2583V70.0321H49.9354V77.6777ZM40.6458 77.6777H42.9687V70.0321H40.6458V77.6777ZM31.3552 77.6777H33.6781V70.0321H31.3552V77.6777ZM25.5479 77.6777H29.0323V68.8707C29.0323 68.2295 29.5525 67.7093 30.1937 67.7093H34.8385C35.4798 67.7093 36 68.2295 36 68.8707V77.6777H38.3229V68.8707C38.3229 68.2295 38.8431 67.7093 39.4844 67.7093H44.1292C44.7704 67.7093 45.2906 68.2295 45.2906 68.8707V77.6777H47.6135V68.8707C47.6135 68.2295 48.1337 67.7093 48.775 67.7093H53.4208C54.062 67.7093 54.5822 68.2295 54.5822 68.8707V77.6777H56.9051V68.8707C56.9051 68.2295 57.4253 67.7093 58.0666 67.7093H62.7124C63.3536 67.7093 63.8738 68.2295 63.8738 68.8707V77.6777H67.3582V64.0651H25.5519V77.6777H25.5479ZM25.5479 61.7423H67.3542V41.8056H25.5479V61.7423ZM16.2583 77.6777H18.5812V67.0311H16.2583V77.6777ZM6.96771 77.6777H9.29061V67.0311H6.96771V77.6777ZM10.4521 10.452C10.4501 10.1179 10.303 9.80081 10.0479 9.58474C10.0089 9.55072 9.97188 9.51371 9.93786 9.4747C9.5157 8.99154 9.56472 8.25829 10.0479 7.83615C10.303 7.61907 10.4501 7.30297 10.4521 6.96785C10.4521 6.32664 9.93186 5.80646 9.29061 5.80646C8.64936 5.80646 8.12916 5.28729 8.12916 4.64607C8.12916 4.33997 8.06914 4.03686 7.95109 3.75377C7.4579 2.56937 6.09937 2.00818 4.91491 2.50135C3.73045 2.99351 3.16923 4.35297 3.66242 5.53737C4.15462 6.72077 5.51414 7.28196 6.6986 6.78979H6.6996C7.29083 6.54171 7.9711 6.8218 8.2182 7.413C8.29523 7.57406 8.40627 7.7161 8.54532 7.82714C8.58634 7.86315 8.62535 7.90217 8.66037 7.94418C9.07853 8.42935 9.02351 9.16259 8.53832 9.58173C8.28122 9.79781 8.13116 10.1169 8.12916 10.453V11.6144H10.4521V10.452ZM11.6755 13.9362H6.90468L6.77563 16.259H11.8046L11.6755 13.9362ZM11.9336 18.5808H6.64758L4.71183 53.4175H13.8694L11.9336 18.5808ZM2.3229 55.7403V77.6777H4.64581V65.8697C4.64581 65.2285 5.16601 64.7083 5.80726 64.7083H10.4521C11.0933 64.7083 11.6135 65.2275 11.6135 65.8697V77.6777H13.9364V65.8697C13.9364 65.2285 14.4566 64.7083 15.0979 64.7083H19.7427C20.3839 64.7083 20.9041 65.2275 20.9041 65.8697V77.6777H23.227V55.7403H2.3229ZM24.3875 10.452C24.3855 10.1179 24.2384 9.80081 23.9833 9.58474C23.9443 9.55072 23.9073 9.51371 23.8733 9.4747C23.4511 8.99154 23.5011 8.25829 23.9833 7.83615C24.2384 7.61907 24.3855 7.30297 24.3875 6.96785C24.3875 6.32664 23.8673 5.80646 23.226 5.80646C22.5848 5.80646 22.0646 5.28729 22.0646 4.64507C22.0646 4.33897 22.0036 4.03586 21.8865 3.75277C21.3943 2.56837 20.0348 2.00818 18.8503 2.50035C17.6659 2.99251 17.1047 4.35197 17.5978 5.53637C18.09 6.71977 19.4496 7.28096 20.634 6.78879H20.635C21.2273 6.54171 21.9075 6.8218 22.1546 7.413C22.2316 7.57406 22.3427 7.7161 22.4817 7.82714C22.5228 7.86315 22.5608 7.90117 22.5968 7.94318C23.0149 8.42935 22.9599 9.16259 22.4737 9.58073C22.2166 9.79681 22.0666 10.1159 22.0656 10.452V11.6134H24.3885V10.452H24.3875ZM25.611 13.9362H20.8401L20.7111 16.259H25.74L25.611 13.9362ZM25.8691 18.5808H20.583L18.6472 53.4175H23.226V41.8056H22.0646C21.4233 41.8056 20.9031 41.2854 20.9031 40.6442V35.9996C20.9031 35.3584 21.4233 34.8383 22.0646 34.8383H26.7724L25.8691 18.5808ZM69.6771 37.16H23.226V39.4828H69.6771V37.16ZM4.97593 59.5886H20.8711V61.8994H4.97593V59.5886ZM28.9853 56.7366H63.8878V59.0474H28.9853V56.7366ZM62.7104 53.4175H58.0646C57.4233 53.4175 56.9031 52.8973 56.9031 52.2561V45.2888C56.9031 44.6476 57.4233 44.1274 58.0646 44.1274H62.7104C63.3516 44.1274 63.8718 44.6476 63.8718 45.2888V52.2561C63.8708 52.8983 63.3516 53.4175 62.7104 53.4175ZM61.5489 46.4512H59.226V51.0957H61.5489V46.4512ZM53.4198 53.4175H48.774C48.1327 53.4175 47.6125 52.8973 47.6125 52.2561V45.2888C47.6125 44.6476 48.1327 44.1274 48.774 44.1274H53.4198C54.061 44.1274 54.5812 44.6476 54.5812 45.2888V52.2561C54.5812 52.8983 54.061 53.4175 53.4198 53.4175ZM52.2583 46.4512H49.9354V51.0957H52.2583V46.4512ZM44.1292 53.4175H39.4844C38.8431 53.4175 38.3229 52.8973 38.3229 52.2561V45.2888C38.3229 44.6476 38.8431 44.1274 39.4844 44.1274H44.1292C44.7704 44.1274 45.2906 44.6476 45.2906 45.2888V52.2561C45.2906 52.8983 44.7704 53.4175 44.1292 53.4175ZM42.9677 46.4512H40.6458V51.0957H42.9687V46.4512H42.9677ZM34.8385 53.4175H30.1937C29.5525 53.4175 29.0323 52.8973 29.0323 52.2561V45.2888C29.0323 44.6476 29.5525 44.1274 30.1937 44.1274H34.8385C35.4798 44.1274 36 44.6476 36 45.2888V52.2561C36 52.8983 35.4798 53.4175 34.8385 53.4175ZM33.6781 46.4512H31.3552V51.0957H33.6781V46.4512Z" fill="#2BAAE1"/>
<path fill-rule="evenodd" clip-rule="evenodd" d="M66.0797 31.0668H36.7573C36.081 31.0668 35.4168 30.8917 34.8285 30.5586C32.9438 29.4933 32.2805 27.1025 33.346 25.2188L46.9432 2.61321C47.4034 1.79893 48.0757 1.12671 48.889 0.667551C51.361 -0.72992 54.4972 0.141374 55.8947 2.61321L69.492 25.2188C69.8251 25.807 69.9992 26.4713 69.9992 27.1475C69.9992 29.3122 68.2445 31.0668 66.0797 31.0668ZM67.4702 26.3612L53.8729 3.75559C53.6208 3.30944 53.2517 2.94032 52.8055 2.68823C51.45 1.92297 49.7313 2.40014 48.965 3.75559L35.3637 26.3612C35.2277 26.6013 35.1557 26.8744 35.1567 27.1505C35.1587 28.0328 35.8749 28.745 36.7573 28.743H66.0797C66.3558 28.743 66.6259 28.672 66.866 28.536C67.6343 28.1028 67.9044 27.1285 67.4702 26.3612ZM52.5804 20.9034H50.2575C49.6613 20.9034 49.1621 20.4512 49.1021 19.858L47.9406 10.2528C47.9366 10.2138 47.9346 10.1758 47.9346 10.1367C47.9346 9.49553 48.4548 8.97535 49.0961 8.97535H53.7409C53.7819 8.97535 53.8219 8.97735 53.8629 8.98136C54.5012 9.04538 54.9664 9.61457 54.9023 10.2528L53.7409 19.858C53.6819 20.4542 53.1787 20.9064 52.5804 20.9034ZM50.3856 11.2971L51.3149 18.5806H51.536L52.4654 11.2971H50.3856ZM52.8585 26.0361H49.7373V22.9151H52.8585V26.0361Z" fill="#F6364D"/>
</svg>
