<svg width="74" height="80" viewBox="0 0 74 80" fill="none" xmlns="http://www.w3.org/2000/svg">
<path fill-rule="evenodd" clip-rule="evenodd" d="M70.301 75.068H44.401V76.301C44.401 78.344 42.744 80.001 40.701 80.001H3.7C1.657 80.001 0 78.344 0 76.301V20.967C0 18.923 1.657 17.267 3.7 17.267H18.5V3.7C18.5 1.656 20.157 0 22.2 0H59.201C61.244 0 62.901 1.656 62.901 3.7V12.333H70.301C72.344 12.333 74.001 13.99 74.001 16.034V71.368C74.001 73.411 72.345 75.068 70.301 75.068ZM3.7 19.733C3.019 19.733 2.467 20.285 2.467 20.966V76.3C2.467 76.981 3.019 77.533 3.7 77.533H40.701C41.382 77.533 41.934 76.981 41.934 76.3V60.475V33.054V20.967C41.934 20.286 41.382 19.734 40.701 19.734H37.001V28.367C37.001 28.835 36.737 29.263 36.318 29.472C35.708 29.776 34.968 29.528 34.664 28.918L33.301 26.191L31.938 28.918C31.729 29.337 31.301 29.602 30.833 29.601C30.152 29.601 29.6 29.048 29.601 28.366V19.733H3.7ZM34.534 23.143V19.734H32.067V23.143L32.197 22.882C32.306 22.699 32.459 22.545 32.643 22.436C33.253 22.073 34.041 22.273 34.405 22.882L34.534 23.143ZM53.034 2.467H50.567V4.564L50.774 4.253C50.847 4.155 50.934 4.068 51.033 3.994C51.6 3.57 52.403 3.686 52.827 4.253L53.034 4.564V2.467ZM60.434 3.7C60.434 3.018 59.882 2.466 59.201 2.466H55.501V8.633C55.5 9.044 55.294 9.428 54.952 9.656C54.385 10.034 53.62 9.881 53.242 9.314L51.801 7.153L50.36 9.317C50.131 9.661 49.746 9.867 49.334 9.866C48.653 9.866 48.101 9.314 48.101 8.632V2.467H22.2C21.519 2.467 20.967 3.019 20.967 3.701V17.268H29.6V16.035C29.6 13.991 31.256 12.334 33.3 12.334H60.434V3.7ZM64.134 14.8H61.667L61.679 18.209L61.802 17.949C61.911 17.766 62.064 17.613 62.248 17.503C62.858 17.139 63.646 17.339 64.01 17.949L64.133 18.209V14.8H64.134ZM71.535 16.034C71.535 15.352 70.983 14.8 70.302 14.8H66.602V23.434C66.607 23.912 66.336 24.35 65.906 24.558C65.293 24.854 64.555 24.598 64.259 23.985L62.902 21.258L61.545 23.985C61.337 24.415 60.899 24.686 60.421 24.681C59.74 24.674 59.194 24.115 59.202 23.434V14.8H33.302C32.621 14.8 32.069 15.352 32.069 16.034V17.267H40.703C42.746 17.267 44.403 18.923 44.403 20.967V34.144V72.601H70.303C70.984 72.601 71.536 72.049 71.536 71.368V16.034H71.535ZM61.668 61.739H66.601V64.206H61.668V61.739ZM61.668 46.867H66.601V49.334H61.668V46.867ZM48.023 41.934H66.601V44.401H48.023V41.934ZM61.668 37H66.601V39.467H61.668V37ZM47.968 32.067H66.601V34.534H47.968V32.067ZM59.201 39.467H48.023V37H59.201V39.467ZM59.201 49.334H48.023V46.867H59.201V49.334ZM59.201 64.206H48.023V61.739H59.201V64.206ZM25.9 6.166H35.767V8.633H25.9V6.166ZM43.167 8.633H38.234V6.166H43.167V8.633ZM7.4 29.601H24.667V32.067H7.4V29.601ZM14.8 24.667H24.667V27.134H14.8V24.667ZM7.4 24.667H12.333V27.134H7.4V24.667ZM37.155 46.867H7.4V44.4H37.155V46.867ZM37.155 51.801H7.4V49.334H37.155V51.801ZM14.8 56.734H7.4V54.267H14.8V56.734ZM17.267 61.668H7.4V59.201H17.267V61.668ZM17.267 54.267H37.134V56.734H17.267V54.267ZM37.067 61.668H19.734V59.201H37.068V61.668H37.067Z" fill="#2BAAE1"/>
<path fill-rule="evenodd" clip-rule="evenodd" d="M64.134 59.2008V56.7338H66.601V59.2008H64.134ZM48.023 51.8008H66.601V54.2668H48.023V51.8008ZM47.867 27.1338H66.601V29.6008H47.867V27.1338ZM12.333 39.4668H37.155V41.9338H12.333V39.4668ZM17.267 34.5338H37.155V36.9998H17.267V34.5338ZM7.40002 34.5338H14.8V36.9998H7.40002V34.5338ZM9.86702 41.9338H7.40002V39.4668H9.86702V41.9338ZM24.7 67.1338H7.54602V64.6668H24.7V67.1338ZM37.033 64.6668V67.1338H27.166V64.6668H37.033ZM37.033 72.0668H19.766V69.5998H37.033V72.0668ZM56.734 59.2008H48.045V56.7338H56.734V59.2008ZM61.668 59.2008H59.201V56.7338H61.668V59.2008Z" fill="#F6364D"/>
</svg>
