<svg width="80" height="80" viewBox="0 0 80 80" fill="none" xmlns="http://www.w3.org/2000/svg">
<path fill-rule="evenodd" clip-rule="evenodd" d="M73.8773 80H6.12273C2.74291 79.996 0.00400571 77.2612 0 73.8886V18.3352C0.00500714 13.7282 3.65621 9.9838 8.22672 9.79688H71.7733C76.3438 9.9838 79.995 13.7282 80 18.3352V73.8886C79.996 77.2612 77.2571 79.996 73.8773 80ZM77.5505 18.3352C77.5495 16.6809 76.8735 15.0986 75.6778 13.9521C75.3063 14.5309 75.106 15.2036 75.101 15.8913V45.2408C75.101 47.2659 73.4567 48.9082 71.4278 48.9082H44.8399L46.1107 46.4633H71.4268C72.1027 46.4633 72.6515 45.9155 72.6515 45.2408V15.8903C72.6535 14.7398 72.981 13.6113 73.5979 12.6387C72.9059 12.3688 72.1698 12.2278 71.4268 12.2228H8.57222C7.82916 12.2278 7.09311 12.3688 6.40112 12.6387C7.018 13.6113 7.34647 14.7388 7.34747 15.8903V45.2398C7.34747 45.9145 7.89625 46.4623 8.57222 46.4623H33.672L34.8577 48.9072H8.57222C6.54332 48.9072 4.89898 47.2649 4.89898 45.2398V15.8903C4.89397 15.2026 4.69369 14.5309 4.32216 13.9511C3.12746 15.0976 2.45149 16.6799 2.44949 18.3342V73.8886C2.44949 75.9138 4.09383 77.5551 6.12373 77.5551H73.8783C75.9072 77.5551 77.5525 75.9138 77.5525 73.8886V18.3352H77.5505ZM47.9654 71.6726H72.8759V74.1405H47.9654V71.6726ZM15.9197 71.6726H43.8345V74.1405H15.9197V71.6726ZM6.90684 71.6726H11.914V74.1405H6.90684V71.6726Z" fill="#2BAAE1"/>
<path fill-rule="evenodd" clip-rule="evenodd" d="M59.4968 9.77884L57.0954 6.18437C56.4064 6.91706 55.444 7.33288 54.4366 7.33488H25.0467C24.0393 7.33388 23.0779 6.91706 22.3879 6.18437L19.9865 9.77884H17.0443L21.4175 3.23063C21.6349 1.39241 23.1931 0.00599745 25.0467 0H54.4366C56.2912 0.00599745 57.8495 1.39241 58.0668 3.23063L62.44 9.77884H59.4968ZM54.4366 2.44496H25.0467C24.3708 2.44496 23.822 2.99273 23.822 3.66644C23.822 4.34115 24.3697 4.88892 25.0467 4.88892H54.4366C55.1126 4.88892 55.6613 4.34115 55.6613 3.66644C55.6613 2.99273 55.1136 2.44496 54.4366 2.44496ZM34.7215 36.2176C36.2026 34.8232 38.2005 34.1105 40.2324 34.2534C44.3662 34.6543 47.4106 38.2967 47.0641 42.428C46.989 43.8134 46.6835 45.1768 46.1598 46.4612L45.1303 48.9062C44.8119 49.6819 44.6446 50.5115 44.6406 51.3512V51.691C45.3957 52.1238 45.8624 52.9265 45.8654 53.7961V56.2411C45.8624 57.1097 45.3957 57.9124 44.6406 58.3452V63.574C44.6406 66.2738 42.4475 68.4629 39.7427 68.4629C37.0378 68.4629 34.8447 66.2738 34.8447 63.574V58.3452C34.0896 57.9124 33.6229 57.1097 33.6199 56.2411V53.7961C33.6229 52.9265 34.0896 52.1248 34.8447 51.691V51.3512C34.8407 50.5115 34.6744 49.6819 34.355 48.9062L33.3215 46.4612C32.6906 44.9089 32.3762 43.2476 32.3962 41.5713C32.3982 39.5442 33.2394 37.607 34.7215 36.2176ZM37.2922 63.575C37.2922 64.9254 38.3887 66.0199 39.7417 66.0199C41.0946 66.0199 42.1911 64.9254 42.1911 63.575V58.685H37.2932V63.575H37.2922ZM36.0684 56.2411H43.4159V53.7961H36.0684V56.2411ZM42.1911 51.3522V46.4622C42.1911 45.7875 41.6424 45.2398 40.9664 45.2398H38.5169C37.8409 45.2398 37.2922 45.7875 37.2922 46.4622V51.3522H42.1911ZM35.3013 44.725C35.9362 43.5405 37.171 42.7998 38.5169 42.7948H40.9664C42.3133 42.8008 43.5481 43.5435 44.182 44.729C44.4283 43.9353 44.5745 43.1137 44.6166 42.284C44.8499 39.5032 42.8421 37.0353 40.0671 36.6934C38.7142 36.6034 37.3843 37.0772 36.3949 38.0018C35.4045 38.9264 34.8427 40.2199 34.8437 41.5733C34.8307 42.6409 34.9849 43.7044 35.3013 44.725Z" fill="#F6364D"/>
</svg>
