<svg width="76" height="80" viewBox="0 0 76 80" fill="none" xmlns="http://www.w3.org/2000/svg">
<path fill-rule="evenodd" clip-rule="evenodd" d="M72.4372 10.0008H74.8124C75.4678 10.0008 76 10.5607 76 11.251V49.9997C76 50.6911 75.4678 51.25 74.8124 51.25H42.7499C39.471 51.25 36.8129 48.4514 36.8129 44.9999V6.25111C36.8119 2.79961 39.471 0 42.7499 0H74.8124C75.4678 0 76 0.559921 76 1.25123C76 1.94254 75.4678 2.50044 74.8124 2.50044H72.4372C70.4691 2.50044 68.8744 4.18021 68.8744 6.25111C68.8744 8.321 70.4691 10.0008 72.4372 10.0008ZM67.6868 2.50044H42.7499C40.7828 2.50044 39.1871 4.18021 39.1871 6.25111C39.1871 8.32201 40.7818 10.0008 42.7499 10.0008H67.6868C66.0545 7.79645 66.0545 4.70576 67.6868 2.50044ZM42.7499 12.5002C41.4642 12.5083 40.2121 12.0686 39.1871 11.251V44.9999C39.1871 47.0708 40.7818 48.7495 42.7499 48.7495H73.6248V12.5002H42.7499ZM61.7497 7.50032H42.7499C42.0945 7.50032 41.5623 6.94141 41.5623 6.25111C41.5623 5.56182 42.0936 5.00088 42.7499 5.00088H61.7497C62.4061 5.00088 62.9373 5.56182 62.9373 6.25111C62.9373 6.94141 62.4051 7.50032 61.7497 7.50032ZM33.2501 8.75054C21.5251 8.70202 11.5431 17.7174 9.80881 29.9245L8.31227 40.188C8.28436 40.3376 8.2324 40.4811 8.15829 40.6125L2.37521 51.5754V53.7504H11.8751C12.5305 53.7504 13.0627 54.3093 13.0627 54.9996V64.7871C13.0627 66.9763 14.7479 68.749 16.8267 68.749H28.4996C29.155 68.749 29.6872 69.31 29.6872 69.9992C29.6872 70.6906 29.156 71.2495 28.4996 71.2495H27.312V78.7498C27.312 79.4411 26.7808 80 26.1244 80C25.469 80 24.9368 79.4411 24.9368 78.7498V71.2495H16.8267C13.439 71.2424 10.6942 68.3528 10.6875 64.7871V56.2498H1.18761C0.532209 56.2498 0 55.6909 0 54.9996V51.25C0.000962403 51.0347 0.0538946 50.8245 0.153984 50.6375L5.93706 39.5866L7.44515 29.5495C9.35167 16.1144 20.3433 6.18844 33.2501 6.25111C33.9055 6.25111 34.4377 6.81103 34.4377 7.50032C34.4377 8.19062 33.9055 8.75054 33.2501 8.75054ZM68.0313 54.1749C68.4971 53.6847 69.2516 53.6847 69.7174 54.1749C70.1832 54.6651 70.1832 55.4605 69.7174 55.9497L61.3455 64.7002C57.7875 68.4135 55.7943 73.475 55.8117 78.7498C55.8117 79.4411 55.2795 80 54.6241 80C53.9687 80 53.4365 79.4411 53.4365 78.7498C53.4519 72.8251 55.7135 67.1501 59.7181 62.9881L68.0313 54.1749Z" fill="#2BAAE1"/>
<path fill-rule="evenodd" clip-rule="evenodd" d="M66.4992 30.0006H46.3118C45.6564 30.0006 45.1242 29.4417 45.1242 28.7504C45.1242 28.0601 45.6555 27.5012 46.3118 27.5012H66.4992C67.1556 27.5012 67.6868 28.0601 67.6868 28.7504C67.6868 29.4417 67.1556 30.0006 66.4992 30.0006ZM66.4992 25.0007H46.3118C45.6564 25.0007 45.1242 24.4408 45.1242 23.7505C45.1242 23.0602 45.6555 22.5013 46.3118 22.5013H66.4992C67.1556 22.5013 67.6868 23.0612 67.6868 23.7505C67.6868 24.4398 67.1556 25.0007 66.4992 25.0007ZM66.4992 20.0008H46.3118C45.6564 20.0008 45.1242 19.4409 45.1242 18.7506C45.1242 18.0603 45.6555 17.5004 46.3118 17.5004H66.4992C67.1556 17.5004 67.6868 18.0603 67.6868 18.7506C67.6868 19.4419 67.1556 20.0008 66.4992 20.0008ZM42.2274 62.0637C42.9636 61.902 43.6999 61.713 44.4121 61.4754L45.0655 63.9001C44.285 64.1639 43.492 64.3842 42.6903 64.5631L42.2274 62.0637ZM37.7147 64.9997V62.5013H37.9996C38.6646 62.5013 39.3296 62.4002 39.9831 62.4002L40.1967 64.9007C39.472 65.0007 38.7358 65.0007 37.9996 65.0007H37.7147V64.9997ZM32.7035 64.3751L33.2501 61.9373C33.9786 62.1091 34.7168 62.2395 35.4588 62.3254L35.174 64.8259C34.3424 64.7258 33.5177 64.5762 32.7035 64.3751ZM31.8132 15.8621L33.0008 15.5508L33.5234 18.0007L32.4311 18.2766L31.8132 15.8621ZM27.9415 62.6135L28.9511 60.3505C29.6353 60.6922 30.3369 60.9923 31.0529 61.2511L30.3167 63.6141C29.5092 63.324 28.7162 62.9894 27.9415 62.6135ZM27.0513 17.8137C27.7952 17.4024 28.5603 17.0345 29.3437 16.7141L30.2108 19.0134C29.5102 19.3045 28.824 19.634 28.1561 20.0019L27.0513 17.8137ZM23.6434 59.9129L25.0803 57.9249C25.6837 58.4029 26.3102 58.8497 26.957 59.262L25.7222 61.3996C25.0023 60.9468 24.3084 60.4496 23.6434 59.9129ZM22.9187 20.7255C23.5597 20.1757 24.2362 19.638 24.9378 19.1509L26.1967 21.2501C25.5798 21.6756 24.9378 22.1506 24.4278 22.6499L22.9187 20.7255ZM19.3559 24.4883C19.8717 23.7909 20.4261 23.1269 21.018 22.5013L22.7156 24.2761C22.1834 24.8309 21.684 25.4202 21.2191 26.0387L19.3559 24.4883ZM18.7505 30.0885L16.6246 28.9889C16.9922 28.1925 17.4041 27.4203 17.8594 26.6764L19.866 28.0156C19.4627 28.6766 19.0951 29.377 18.7505 30.0885ZM17.254 34.5628L14.95 33.9625C15.1521 33.1125 15.437 32.2625 15.6863 31.4246L17.9181 32.2756C17.6582 33.0256 17.4359 33.7886 17.254 34.5628ZM16.6246 39.2757L14.2494 39.2009C14.2648 38.3186 14.3283 37.4372 14.439 36.564L16.8142 36.9006C16.7103 37.6879 16.6467 38.4813 16.6246 39.2757ZM16.9691 44.0259L14.6295 44.4757C14.4765 43.6075 14.3687 42.7312 14.3091 41.8509L16.6843 41.6629C16.7314 42.4563 16.8267 43.2457 16.9691 44.0259ZM18.2395 48.6013L16.0423 49.5513C15.7228 48.7337 15.4457 47.8989 15.2108 47.0509L17.4908 46.3505C17.7054 47.1085 17.9546 47.8584 18.2395 48.6013ZM20.4011 52.7754L18.4416 54.1995C17.9662 53.4698 17.5264 52.7138 17.1231 51.9376L19.2125 50.75C19.5753 51.4474 19.9718 52.1225 20.4011 52.7754ZM23.346 56.3876L21.7196 58.1624C21.1113 57.557 20.5329 56.9182 19.9853 56.2492L21.7898 54.6614C22.2816 55.2648 22.8003 55.8409 23.346 56.3876ZM49.7322 61.7382C49.0104 62.1769 48.2646 62.5741 47.5004 62.9258L46.5265 60.6376C47.2175 60.3182 47.8902 59.9594 48.5456 59.5632L49.7322 61.7382ZM53.8167 58.6506C53.1892 59.2428 52.5309 59.7977 51.8457 60.3131L50.4685 58.2756C51.0863 57.8117 51.6801 57.3154 52.2499 56.7879L53.8167 58.6506ZM56.4652 55.7883C56.1919 56.138 55.9311 56.4624 55.6462 56.7879L53.8888 55.1142L54.6251 54.2136L56.4652 55.7883ZM60.5621 42.5008H66.4992C67.1556 42.5008 67.6868 43.0597 67.6868 43.751C67.6868 44.4413 67.1556 45.0012 66.4992 45.0012H60.5621C59.9058 45.0012 59.3745 44.4403 59.3745 43.751C59.3745 43.0597 59.9058 42.5008 60.5621 42.5008Z" fill="#F6364D"/>
</svg>
