<svg width="76" height="81" viewBox="0 0 76 81" fill="none" xmlns="http://www.w3.org/2000/svg">
<path fill-rule="evenodd" clip-rule="evenodd" d="M74.7279 43.2716H66.2256L71.1129 79.6007C71.1218 79.6617 71.1268 79.7246 71.1268 79.7875C71.1268 80.4907 70.5585 81.0001 69.8567 81.0001L68.7031 80.9401L68.404 78.515H68.3841L63.6574 43.2726H52.7902L50.8242 56.8186L48.1423 58.9401L50.235 43.2726H41.6978C41.2601 43.2726 40.8524 43.0469 40.6201 42.6744C40.2482 42.0781 40.4287 41.293 41.0239 40.9204L51.1871 34.557C51.2878 34.4941 51.3955 34.4461 51.5101 34.4132L52.0824 30.5458H44.2391C43.8014 30.5458 43.3937 30.32 43.1614 29.9475C42.7895 29.3512 42.97 28.5661 43.5652 28.1935L53.3346 22.0768L53.9647 17.8189H46.7794C46.3238 17.8189 45.9021 17.5742 45.6758 17.1776C45.3278 16.5674 45.5392 15.7903 46.1483 15.4407L55.0414 10.3497C55.0504 10.3447 55.0614 10.3407 55.0703 10.3357L55.5668 6.97574L48.6149 2.33225C48.2619 2.09653 48.0496 1.69901 48.0496 1.27351C48.0496 0.568348 48.6179 -0.000976562 49.3197 -0.000976562H67.1049C67.5296 -0.000976562 67.9264 0.211771 68.1617 0.565351C68.5506 1.14966 68.393 1.93972 67.8098 2.33026L60.8578 6.97374L61.3543 10.3338C61.3633 10.3387 61.3743 10.3417 61.3832 10.3477L70.2763 15.4387C70.6721 15.6654 70.9164 16.0869 70.9164 16.5444C70.9164 17.2475 70.3471 17.8169 69.6462 17.8169H62.461L63.0911 22.0748L72.8605 28.1915C73.2324 28.4243 73.4577 28.8318 73.4577 29.2713C73.4577 29.9744 72.8884 30.5438 72.1875 30.5438H64.3443L64.9165 34.4112C65.0302 34.4441 65.1389 34.4921 65.2396 34.555L75.4028 40.9184C75.7747 41.1512 76 41.5587 76 41.9972C75.998 42.7013 75.4287 43.2716 74.7279 43.2716ZM46.1274 40.7257H50.5759L50.6079 40.5119L50.901 38.3405L50.9269 38.3565L51.0306 37.6553L46.1274 40.7257ZM48.6677 27.9988H52.4583L52.8451 25.3829L48.6677 27.9988ZM51.563 15.2709H54.3406L54.5978 13.534L51.563 15.2709ZM62.9096 2.545H53.516L57.3275 5.09098H59.0992L62.9096 2.545ZM57.2856 12.7259L56.9088 15.2709H59.5159L59.14 12.7259H57.2856ZM58.7632 10.1809L58.3873 7.63496H58.0384L57.6615 10.1809H58.7632ZM56.5329 17.8169L55.9686 21.6343H60.458L59.8928 17.8169H56.5329ZM60.8329 24.1813H55.5908L55.0265 27.9988H61.3972L60.8329 24.1813ZM54.6506 30.5438L54.0863 34.3622H62.3394L61.7751 30.5438H54.6506ZM64.8617 15.2709L61.8269 13.534L62.0841 15.2709H64.8617ZM62.7152 36.9072H53.7095L53.2798 39.8137L53.2997 39.8267L53.1671 40.7267H63.2805L62.7152 36.9072ZM67.757 27.9988L63.5796 25.3829L63.9664 27.9988H67.757ZM65.3951 37.6553L65.8487 40.7257H70.2983L65.3951 37.6553Z" fill="#F6364D"/>
<path fill-rule="evenodd" clip-rule="evenodd" d="M58.4381 80.9996H1.27016C0.56828 80.9996 0 80.4303 0 79.7271V56.8183C0 56.7145 0.0139578 56.6106 0.0388823 56.5097H0.0378853L1.30804 51.4197C1.44961 50.8524 1.95708 50.4559 2.54031 50.4559H10.1622C10.7455 50.4559 11.2529 50.8524 11.3945 51.4197L12.4244 55.5468H13.9737V45.3639H10.1622C9.63783 45.3639 9.16825 45.0413 8.97783 44.5529L0.0847435 21.6441C0.0289125 21.4963 0 21.3405 0 21.1826C0 20.4805 0.56828 19.9102 1.27016 19.9102H27.9484C28.4718 19.9102 28.9424 20.2328 29.1328 20.7212L38.0259 43.631C38.0827 43.7778 38.1117 43.9336 38.1127 44.0914C38.1127 44.7946 37.5444 45.3639 36.8425 45.3639H26.6783V46.6364H29.2186V49.1824H26.6783C26.6783 49.8846 26.11 50.4549 25.4081 50.4549H21.5966V55.5458H24.138C24.8398 55.5458 25.4081 56.1152 25.4081 56.8183V58.0339L34.7917 50.7226C35.015 50.5488 35.2892 50.4539 35.5714 50.4539C36.2732 50.4539 36.8415 51.0232 36.8415 51.7264V58.0329L46.2251 50.7216C46.4484 50.5478 46.7226 50.4529 47.0047 50.4529C47.7066 50.4529 48.2749 51.0222 48.2749 51.7254V58.0319L57.6585 50.7206C57.8818 50.5468 58.156 50.4519 58.4381 50.4519C59.14 50.4519 59.7083 51.0212 59.7083 51.7244V79.7241C59.7083 80.4303 59.139 80.9996 58.4381 80.9996ZM2.54031 68.2727H8.89309V63.1818H2.54031V68.2727ZM9.17125 52.9999H3.53231L2.89723 55.5458H9.80632L9.17125 52.9999ZM11.0316 42.818H17.198L15.2219 37.727H9.0556L11.0316 42.818ZM16.515 45.3639V55.5458H19.0563V45.3639H16.515ZM23.127 35.182L21.151 30.0911H14.9847L16.9607 35.182H23.127ZM8.06758 35.182H14.2339L12.2579 30.0911H6.09157L8.06758 35.182ZM9.29387 22.4551H3.12754L5.10356 27.5461H11.2699L9.29387 22.4551ZM18.187 22.4551H12.0206L13.9966 27.5461H20.163L18.187 22.4551ZM27.0791 22.4551H20.9127L22.8887 27.5461H29.0551L27.0791 22.4551ZM28.8178 42.818H34.9841L33.0081 37.727H26.8418L28.8178 42.818ZM32.0201 35.182L30.0441 30.0911H23.8777L25.8538 35.182H32.0201ZM26.091 42.818L24.115 37.727H17.9487L19.9247 42.818H26.091ZM24.137 47.9089V45.3629H21.5956V47.9089H24.137ZM22.8668 58.0908H2.54031V60.6368H19.0553C19.7572 60.6368 20.3255 61.2061 20.3255 61.9103V69.5462C20.3255 70.2494 19.7562 70.8187 19.0553 70.8187H2.54031V78.4546H22.8668V58.0908ZM11.4334 63.1818V68.2727H17.7852V63.1818H11.4334ZM34.3002 54.3303L27.8397 59.3643H34.3002V54.3303ZM34.3002 61.9093H25.4071V78.4546H34.3002V61.9093ZM45.7336 54.3303L39.2731 59.3643H45.7336V54.3303ZM45.7336 61.9093H36.8405V78.4546H45.7336V61.9093ZM57.167 54.3303L50.7065 59.3643H57.167V54.3303ZM57.167 61.9093H48.2739V78.4546H57.167V61.9093ZM54.6267 67.0002H50.8152V64.4543H54.6267V67.0002ZM54.6267 72.0912H50.8152V69.5462H54.6267V72.0912ZM43.1933 67.0002H39.3818V64.4543H43.1933V67.0002ZM43.1933 72.0912H39.3818V69.5462H43.1933V72.0912ZM31.7599 67.0002H27.9484V64.4543H31.7599V67.0002ZM31.7599 72.0912H27.9484V69.5462H31.7599V72.0912ZM7.62193 75.9087H5.08162V73.3637H7.62293V75.9087H7.62193ZM12.7036 75.9087H10.1622V73.3637H12.7036V75.9087ZM17.7852 75.9087H15.2449V73.3637H17.7852V75.9087Z" fill="#2BAAE1"/>
</svg>
