<svg width="72" height="80" viewBox="0 0 72 80" fill="none" xmlns="http://www.w3.org/2000/svg">
<path fill-rule="evenodd" clip-rule="evenodd" d="M46.7396 6.43898H43.2454H15.0582H3.16557C2.70573 6.43997 2.33372 6.81666 2.33273 7.28227C2.33372 7.74788 2.70573 8.12456 3.16557 8.12556H17.8813H40.4222H45.737L44.3338 10.4886H40.4222H17.8813H5.33154V27.4274H26.8038H31.4988H35.1134C35.1834 28.3047 35.5594 29.135 36.1682 29.7894H31.4988H26.8038H3.16557C2.70672 29.7914 2.3347 30.1681 2.33273 30.6327C2.33372 31.0983 2.70573 31.476 3.16557 31.476H25.0216H33.2819H55.138C55.4538 31.476 55.7182 31.2912 55.8593 31.0294H58.2611C58.0717 32.5521 56.8412 33.7421 55.3048 33.821V50.2553H55.288C56.0675 50.2913 56.8066 50.62 57.3592 51.1785C58.5937 52.4235 58.5976 54.4468 57.3681 55.6967C56.8135 56.2603 56.0725 56.594 55.289 56.6329V60.5437H56.2836C57.8131 60.5487 59.0515 61.8026 59.0565 63.3513C59.0565 63.6011 59.2568 63.8029 59.5035 63.8039H65.3758C67.1905 63.8109 68.6608 65.2997 68.6686 67.1372C68.6667 68.9786 67.1934 70.4694 65.3758 70.4714H63.3164C63.1782 70.4704 63.045 70.5253 62.9473 70.6252C62.8496 70.7212 62.7954 70.854 62.7964 70.9909C62.7964 71.2817 63.0292 71.5175 63.3164 71.5175H67.8151C68.9252 71.5155 69.989 71.9631 70.7715 72.7594C71.5579 73.5548 71.999 74.6329 72 75.7579C72.001 78.1 70.1271 79.9994 67.8151 80.0004H3.16557C1.48904 79.9974 0.106566 78.6695 0.0157832 76.9739C-0.0789472 75.2094 1.25715 73.7007 2.99979 73.6057V56.6329C2.21629 56.593 1.47424 56.2603 0.920656 55.6967C-0.308866 54.4468 -0.304919 52.4235 0.929537 51.1785C1.48213 50.62 2.22024 50.2903 3.00078 50.2553V33.821C1.38444 33.7391 0.0917648 32.4302 0.00986256 30.7926C-0.0779604 29.0311 1.26109 27.5323 3.00078 27.4434V10.4716C1.32622 10.3797 0.0147964 8.97885 0.0128229 7.28127C0.00788901 5.51475 1.42095 4.07895 3.16557 4.07695H10.7509V2.38937H10.5812C9.93682 2.38937 9.41481 1.85981 9.41481 1.20835C9.41481 0.5569 9.93682 0.0273438 10.5812 0.0273438H21.2453C21.8896 0.0273438 22.4116 0.5569 22.4116 1.20835C22.4116 1.86081 21.8896 2.38937 21.2453 2.38937H21.0814V4.07695H37.2221H39.5549H43.2454H45.2199H47.5527H48.1428L46.7396 6.43898ZM52.972 33.839H33.2819H25.0216H5.33154V50.2383H24.2085H34.0783H52.9553V33.9849H52.972V33.839ZM58.0944 77.6394H67.8131V77.6384C68.8374 77.6384 69.6683 76.7971 69.6683 75.7599C69.6692 74.7218 68.8384 73.8805 67.8131 73.8795H63.3144C61.7405 73.8795 60.4656 72.5876 60.4656 70.9939C60.4656 69.4003 61.7415 68.1083 63.3144 68.1083H65.3738C65.9037 68.1073 66.333 67.6727 66.3339 67.1362C66.3359 66.8824 66.2353 66.6396 66.0567 66.4617C65.879 66.2719 65.6323 66.166 65.3738 66.166H59.5015C57.9671 66.164 56.7237 64.905 56.7218 63.3513C56.7228 63.2374 56.6784 63.1285 56.5994 63.0486C56.5185 62.9567 56.403 62.9057 56.2817 62.9057H55.287V73.6057C55.8672 73.6377 55.7962 73.6457 55.4508 73.6437C55.6304 73.6647 55.811 73.6807 55.9847 73.7316C57.6336 74.2212 58.5779 75.9698 58.0944 77.6394ZM2.33273 76.7951C2.33273 77.2607 2.70573 77.6394 3.16557 77.6394H47.5655H55.0541C55.514 77.6394 55.887 77.2617 55.887 76.7951C55.887 76.3295 55.514 75.9518 55.0541 75.9518H3.16557C2.70573 75.9518 2.33273 76.3295 2.33273 76.7951ZM52.8911 73.5898V56.6499H5.39568H5.33154V73.5888H52.8911V73.5898ZM2.57745 52.8491C2.42154 53.007 2.33372 53.2218 2.33273 53.4446C2.33273 53.9102 2.70573 54.2879 3.16557 54.2879C3.16557 54.2879 16.1634 54.3189 29.1434 54.3429C42.1234 54.3189 55.1212 54.2879 55.1212 54.2879C55.5811 54.2879 55.9541 53.9102 55.9541 53.4446C55.9531 53.2218 55.8653 53.007 55.7093 52.8491C55.5534 52.6903 55.3423 52.6013 55.1202 52.6013H34.0783H24.2085H3.16557C2.94453 52.6003 2.73336 52.6903 2.57745 52.8491ZM18.7487 2.38937H13.0836V4.07695H15.0582H18.7487V2.38937Z" fill="#2BAAE1"/>
<path fill-rule="evenodd" clip-rule="evenodd" d="M67.8911 31.0292H38.9668C38.2997 31.0292 37.6445 30.8553 37.0643 30.5226C35.2052 29.4585 34.551 27.0705 35.6019 25.188L49.0141 2.60895C49.468 1.79663 50.1312 1.1242 50.9334 0.66558C53.3717 -0.730251 56.4653 0.14102 57.8438 2.60895L71.256 25.189C71.5846 25.7776 71.7563 26.44 71.7563 27.1164C71.7573 29.2776 70.0265 31.0292 67.8911 31.0292ZM69.2618 26.3301L55.8495 3.751C55.6008 3.30537 55.2367 2.93668 54.7966 2.68489C53.4595 1.92053 51.7643 2.39713 51.0084 3.751L37.5922 26.3301C37.458 26.5709 37.387 26.8427 37.3879 27.1194C37.3899 27.9997 38.0964 28.7131 38.9668 28.7101H67.8901C68.1625 28.7101 68.4289 28.6392 68.6657 28.5033C69.4236 28.0696 69.69 27.0965 69.2618 26.3301ZM54.5746 20.8787H52.2833C51.6952 20.8787 51.2018 20.427 51.1436 19.8345L49.9979 10.2406C49.994 10.2016 49.992 10.1636 49.992 10.1247C49.992 9.4842 50.5051 8.96463 51.1377 8.96463H55.7193C55.7597 8.96463 55.8002 8.96663 55.8396 8.97063C56.4692 9.03457 56.9281 9.6031 56.8649 10.2406L55.7193 19.8345C55.661 20.43 55.1647 20.8817 54.5746 20.8787ZM52.4096 11.2837L53.3263 18.5586H53.5444L54.4611 11.2837H52.4096ZM54.8489 26.0054H51.7702V22.888H54.8489V26.0054Z" fill="#F6364D"/>
</svg>
