<svg width="73" height="80" viewBox="0 0 73 80" fill="none" xmlns="http://www.w3.org/2000/svg">
<path fill-rule="evenodd" clip-rule="evenodd" d="M66.3419 80H37.0435V77.3339H66.3419C68.5469 77.3319 70.3347 75.5418 70.3367 73.3342V34.6667H70.3297V6.66683C70.3267 4.45921 68.5399 2.67013 66.3349 2.66713H7.74513C5.54012 2.66913 3.7523 4.45821 3.7503 6.66683V34.6667H3.7433V40.7322C2.56876 41.3366 1.66535 42.3425 1.25016 43.6211C1.16112 43.8958 1.1211 44.1755 1.08008 44.4542V6.66683C1.08408 2.98679 4.06244 0.00299678 7.73812 0H7.74413H66.3339H66.3409C70.0166 0.00299678 72.995 2.98679 73 6.66683V73.3342C72.996 77.0142 70.0176 79.996 66.3419 80ZM1.87844 50.8453C1.45925 51.4607 1.19813 52.1459 1.08008 52.8542V46.0035C1.19813 46.7118 1.45925 47.397 1.87844 48.0124C2.46571 48.8725 2.46571 49.9853 1.87844 50.8453ZM12.0121 10.9632H61.3396V13.6303H12.0121V10.9632ZM61.3396 19.6229H12.0121V16.9568H61.3396V19.6229ZM32.0212 23.0063H61.3396V25.6714H32.0212V23.0063ZM50.6858 37.3339V40H48.0215V37.3339H50.6858ZM61.3396 37.3339V40H53.349V37.3339H61.3396ZM46.0276 42.6661H61.3396V45.3333H46.0276V42.6661ZM61.4687 55.9998H46.0276V53.3337H61.4687V55.9998ZM46.0276 48.0004H61.3396V50.6655H46.0276V48.0004ZM3.7433 58.1255V73.3342C3.7463 75.5418 5.53311 77.3319 7.73812 77.3339H10.4093C10.5124 78.173 10.9876 78.9292 11.738 79.3477C12.5823 79.8192 13.6208 79.7982 14.4472 79.2908L17.6296 77.3339H20.677L23.8595 79.2908C24.6849 79.7972 25.7233 79.8192 26.5687 79.3477C27.3191 78.9292 27.7943 78.173 27.8973 77.3339H37.0375V80H7.73812C4.06244 79.996 1.08408 77.0142 1.08008 73.3342V54.4025C1.1211 54.6822 1.16112 54.9619 1.25016 55.2366C1.66535 56.5142 2.56876 57.5212 3.7433 58.1255Z" fill="#2BAAE1"/>
<path fill-rule="evenodd" clip-rule="evenodd" d="M45.8704 70.9655V68.2993H61.4476V70.9655H45.8704ZM51.2399 62.3068H61.4476V64.9729H51.2399V62.3068ZM45.9125 62.3068H48.5757V64.9729H45.9125V62.3068ZM37.0554 55.2354C36.5692 56.7288 35.4417 57.8895 33.962 58.4189C32.9805 58.7706 32.3253 59.6706 32.2942 60.7115C32.2502 62.1549 31.5879 63.5115 30.4764 64.4325C29.7431 65.0398 28.8617 65.4204 27.9402 65.5473V77.013C27.9402 77.9799 27.415 78.875 26.5686 79.3464C25.7232 79.8179 24.6848 79.796 23.8594 79.2895L19.2343 76.4456C19.1922 76.4196 19.1482 76.3996 19.0722 76.4456L14.4461 79.2895C13.6207 79.797 12.5822 79.8179 11.7368 79.3464C10.8914 78.875 10.3652 77.9809 10.3652 77.013V65.5483C9.44279 65.4214 8.56138 65.0408 7.82805 64.4335C6.71654 63.5125 6.05424 62.1559 6.01022 60.7125C5.9792 59.6716 5.3239 58.7716 4.34146 58.4199C2.86178 57.8905 1.73326 56.7298 1.24804 55.2364C0.761819 53.744 0.990924 52.1427 1.87633 50.8451C2.4636 49.985 2.4636 48.8722 1.87633 48.0111C0.990924 46.7135 0.761819 45.1122 1.24804 43.6199C1.73426 42.1265 2.86178 40.9657 4.34146 40.4363C5.3229 40.0847 5.9782 39.1846 6.01022 38.1437C6.05824 36.5744 6.81459 35.145 8.08717 34.223C9.35975 33.2999 10.9545 33.0222 12.4642 33.4628C13.4656 33.7545 14.5251 33.4108 15.1634 32.5867C16.1258 31.345 17.5795 30.6328 19.1522 30.6328C20.7249 30.6328 22.1786 31.345 23.1401 32.5867C23.7783 33.4108 24.8378 33.7545 25.8393 33.4628C27.348 33.0232 28.9437 33.2999 30.2163 34.223C31.4889 35.146 32.2452 36.5754 32.2932 38.1437C32.3242 39.1846 32.9795 40.0856 33.961 40.4363C35.4407 40.9667 36.5682 42.1265 37.0544 43.6199C37.5406 45.1122 37.3115 46.7135 36.4261 48.0111C35.8389 48.8722 35.8389 49.984 36.4261 50.8441C37.3125 52.1427 37.5416 53.743 37.0554 55.2354ZM12.8884 77.014C12.8884 77.1348 13.0184 77.2087 13.1235 77.1458L17.7486 74.3019C18.609 73.7724 19.6955 73.7734 20.5549 74.3019L25.18 77.1458C25.284 77.2097 25.4151 77.1368 25.4151 77.014V65.3095C24.5477 65.2096 23.6883 65.5613 23.139 66.2705C22.1766 67.5122 20.7229 68.2234 19.1512 68.2234C17.5785 68.2234 16.1248 67.5112 15.1624 66.2705C14.6132 65.5613 13.7538 65.2096 12.8864 65.3095V77.014H12.8884ZM34.3422 46.5927C34.7844 45.9444 34.8994 45.1442 34.6563 44.398C34.4132 43.6518 33.8499 43.0714 33.1096 42.8067C31.1447 42.1035 29.8351 40.3024 29.7721 38.2197C29.7491 37.4355 29.3699 36.7213 28.7346 36.2598C28.0983 35.7993 27.302 35.6604 26.5466 35.8802C24.5427 36.4645 22.4227 35.7763 21.1451 34.1281C20.6639 33.5067 19.9376 33.1521 19.1522 33.1521C18.3659 33.1521 17.6395 33.5077 17.1583 34.1291C15.8817 35.7773 13.7608 36.4645 11.7578 35.8812C11.0025 35.6614 10.2061 35.8003 9.56985 36.2608C8.93355 36.7223 8.55638 37.4365 8.53237 38.2207C8.46934 40.3034 7.15874 42.1045 5.19385 42.8077C4.45451 43.0724 3.89025 43.6528 3.64814 44.398C3.40503 45.1452 3.52008 45.9444 3.96228 46.5937C5.13682 48.3158 5.13682 50.5414 3.96228 52.2636C3.52008 52.9129 3.40503 53.712 3.64814 54.4582C3.89125 55.2044 4.45451 55.7848 5.19385 56.0495C7.15874 56.7537 8.46834 58.5538 8.53237 60.6366C8.55438 61.3688 8.87653 62.0291 9.43979 62.4956C10.0671 63.016 10.9225 63.2198 11.7578 62.976C12.2311 62.8382 12.7113 62.7713 13.1855 62.7713C14.7162 62.7713 16.1829 63.4695 17.1583 64.7282C17.6395 65.3495 18.3659 65.7051 19.1522 65.7051C19.9386 65.7051 20.6649 65.3495 21.1451 64.7282C22.4227 63.0809 24.5427 62.3927 26.5466 62.976C27.374 63.2168 28.2314 63.019 28.8647 62.4946C29.4279 62.0281 29.7501 61.3678 29.7721 60.6356C29.8351 58.5528 31.1447 56.7517 33.1096 56.0485C33.8499 55.7838 34.4132 55.2034 34.6563 54.4572C34.8994 53.711 34.7844 52.9119 34.3422 52.2626C33.1666 50.5414 33.1666 48.3158 34.3422 46.5927ZM19.1522 59.9823C13.3236 59.9823 8.58139 55.2474 8.58139 49.4276C8.58139 43.6069 13.3236 38.873 19.1522 38.873C24.9809 38.873 29.7231 43.6069 29.7231 49.4276C29.7231 55.2474 24.9809 59.9823 19.1522 59.9823ZM19.1522 41.3922C14.7142 41.3922 11.1035 44.9974 11.1035 49.4286C11.1035 53.8598 14.7142 57.464 19.1522 57.464C23.5903 57.464 27.2009 53.8598 27.2009 49.4286C27.2009 44.9974 23.5903 41.3922 19.1522 41.3922Z" fill="#F6364D"/>
</svg>
