<svg width="80" height="80" viewBox="0 0 80 80" fill="none" xmlns="http://www.w3.org/2000/svg">
<path fill-rule="evenodd" clip-rule="evenodd" d="M78.7521 12.84H72.2496V64.597C72.2496 68.163 69.3511 71.063 65.7891 71.063H47V68.567C56.8966 68.566 65.7891 68.565 65.7891 68.565C67.9752 68.565 69.7547 66.785 69.7547 64.596C69.9306 -7.15 69.2611 4.536 70.4811 2.496H14.1889C12.0148 2.496 10.2453 4.267 10.2453 6.443V19.13C10.2453 19.199 10.2173 19.259 10.2063 19.325C10.2173 19.391 10.2453 19.45 10.2453 19.519V59.473V59.476C10.1474 66.044 10.586 66.786 9.51891 68.57C9.61483 68.57 21.1091 68.571 33 68.57V71.064C14.2629 71.067 40.1958 71.056 5.12265 71.067H5.11965C2.29605 71.066 0 68.766 0 65.941V59.477C0 58.787 0.558525 58.228 1.24794 58.228H7.75041V19.52C7.75041 19.451 7.77939 19.391 7.78938 19.326C7.77839 19.26 7.75041 19.2 7.75041 19.131V6.444C7.75041 2.891 10.639 0 14.1889 0H74.8764C77.701 0 79.999 2.299 80 5.127V11.591C80 12.281 79.4415 12.84 78.7521 12.84ZM7.75041 60.725H2.49488V65.941C2.49488 67.391 3.67388 68.571 5.12265 68.571C5.82005 68.571 6.45252 68.296 6.92411 67.851C7.43168 67.372 7.75041 66.694 7.75041 65.942V60.725ZM77.5041 5.127C77.5041 3.677 76.3251 2.497 74.8764 2.497C73.4276 2.497 72.2486 3.677 72.2486 5.127V10.343H77.5041V5.127ZM47.7594 31.063H32.2416V28.563H47.7594V31.063ZM18.0736 64.643C18.0736 62.486 16.3201 60.731 14.165 60.731C13.4755 60.731 12.917 60.172 12.917 59.482V11.582C12.917 10.893 13.4755 10.333 14.165 10.333C16.3201 10.333 18.0736 8.578 18.0736 6.421C18.0736 5.731 18.6322 5.172 19.3216 5.172H60.6774C61.3668 5.172 61.9254 5.731 61.9254 6.421C61.9254 8.578 63.6789 10.333 65.834 10.333C66.5235 10.333 67.082 10.892 67.082 11.582V32.717L67.083 34.951H66.0858C66.0019 34.969 65.924 35.002 65.834 35.002C65.7441 35.002 65.6662 34.969 65.5823 34.951H64.5761V32.717H64.5871V12.708C62.0542 12.205 60.055 10.204 59.5524 7.669H47.076C46.8971 7.769 46.7013 7.84 46.4815 7.84H33.5175C33.2977 7.84 33.1019 7.768 32.923 7.669H20.4466C19.945 10.204 17.9447 12.205 15.4119 12.708V58.355C17.9447 58.858 19.945 60.859 20.4466 63.394L33 63.395V65.892L19.3216 65.891C18.6322 65.891 18.0736 65.332 18.0736 64.643ZM56.7518 25.938H55.5108C55.5068 25.938 55.5038 25.94 55.5008 25.94H24.4992C24.4952 25.94 24.4922 25.938 24.4892 25.938H23.2502V23.438H56.7518V25.938ZM55.5008 15.597H24.4992C24.4942 15.597 24.4902 15.594 24.4852 15.594H23.2502V13.094H56.7518V15.594H55.5148C55.5098 15.594 55.5058 15.597 55.5008 15.597ZM56.7518 20.782H23.2492V18.282H24.4492C24.4662 18.281 24.4812 18.272 24.4992 18.272H55.5008C55.5188 18.272 55.5328 18.281 55.5508 18.282H56.7518V20.782ZM64.5871 58.355V40.191H64.5761V37.957H65.7801C65.7991 37.956 65.8151 37.946 65.834 37.946C65.853 37.946 65.869 37.956 65.888 37.957H67.083V40.191L67.082 59.482C67.082 60.172 66.5235 60.731 65.834 60.731C63.6789 60.731 61.9254 62.486 61.9254 64.643C61.9254 65.333 61.3668 65.892 60.6774 65.892H47V63.395H59.5524C60.054 60.859 62.0542 58.858 64.5871 58.355Z" fill="#2BAAE1"/>
<path fill-rule="evenodd" clip-rule="evenodd" d="M47.7064 62.1948V67.1548L47.7074 74.8238V78.7518C47.7074 79.2318 47.4326 79.6688 47 79.8778C46.5674 80.0858 46.0548 80.0268 45.6801 79.7278L39.9999 75.1798L34.3198 79.7278C33.9451 80.0278 33.4325 80.0858 32.9999 79.8778C32.5673 79.6698 32.2925 79.2318 32.2925 78.7518V67.1548V62.1948C28.4088 59.6638 25.834 55.2838 25.834 50.3098C25.834 42.4928 32.1886 36.1328 39.9989 36.1328C47.8093 36.1328 54.1639 42.4928 54.1639 50.3098C54.1639 55.2838 51.5891 59.6638 47.7064 62.1948ZM34.7874 76.1538L39.2196 72.6058C39.6752 72.2408 40.3227 72.2408 40.7783 72.6058L45.2105 76.1538V63.4878C43.5959 64.1298 41.8394 64.4868 39.9989 64.4868C38.1585 64.4868 36.402 64.1298 34.7874 63.4878V76.1538ZM39.9999 38.6298C33.5654 38.6298 28.3299 43.8698 28.3299 50.3098C28.3299 56.7468 33.5654 61.9898 39.9999 61.9898C46.4205 61.9898 51.67 56.7608 51.67 50.3098C51.669 43.8698 46.4345 38.6298 39.9999 38.6298ZM39.9999 59.3148C35.0382 59.3148 31.0016 55.2748 31.0016 50.3098C31.0016 49.1498 31.2194 48.0198 31.649 46.9508C31.9068 46.3108 32.6342 46.0018 33.2717 46.2578C33.9111 46.5148 34.2209 47.2428 33.9641 47.8818C33.6543 48.6528 33.4965 49.4698 33.4965 50.3088C33.4965 53.8968 36.414 56.8168 39.9999 56.8168C43.5859 56.8168 46.5024 53.8968 46.5024 50.3088C46.5024 46.7198 43.5849 43.7998 39.9999 43.7998C38.8709 43.7998 37.7598 44.0938 36.7857 44.6488C36.1872 44.9908 35.4258 44.7808 35.0841 44.1828C34.7424 43.5838 34.9512 42.8208 35.5507 42.4798C36.9006 41.7098 38.4393 41.3018 40.0009 41.3018C44.9627 41.3018 48.9993 45.3418 48.9993 50.3078C48.9973 55.2758 44.9607 59.3148 39.9999 59.3148Z" fill="#F6364D"/>
</svg>
