<svg width="76" height="80" viewBox="0 0 76 80" fill="none" xmlns="http://www.w3.org/2000/svg">
<path fill-rule="evenodd" clip-rule="evenodd" d="M55.8601 46.341C54.9352 44.2195 53.1789 43.519 50.8205 42.8165V48.0438C50.8284 48.1277 48.5319 48.9371 48.4955 48.9381V42.13L44.3906 40.8639V52.0649C44.3906 53.4679 43.264 54.6091 41.8796 54.6091H35.8619V54.6111H33.5251V53.4319C33.5251 53.4299 33.5241 53.4289 33.5241 53.4269C33.5241 53.4249 33.5251 53.4239 33.5251 53.4219V52.2678H34.5809C34.6173 52.2648 34.6488 52.2468 34.6861 52.2468H41.8796C41.978 52.2468 42.0656 52.1598 42.0656 52.0629V43.521C39.8055 45.6605 36.1729 47.0315 32.1348 47.0315C28.0644 47.0315 24.4662 45.6984 22.2218 43.576V52.0629C22.2218 52.1578 22.3084 52.2468 22.4029 52.2468L29.3612 52.2508C29.3907 52.2508 29.4163 52.2658 29.4458 52.2678H30.5124V53.376C30.5133 53.396 30.5232 53.4119 30.5232 53.4319C30.5232 53.4519 30.5133 53.4679 30.5124 53.4879V54.6101H29.371C29.3671 54.6101 29.3641 54.6121 29.3612 54.6121H29.3602L22.4019 54.6081C21.0205 54.6081 19.8968 53.4669 19.8968 52.0639V40.9398L15.9621 42.152V67.8207H19.8968V60.424C19.8968 59.019 21.0205 57.8748 22.4029 57.8748H41.8324C43.2148 57.8748 44.3394 59.019 44.3394 60.424V67.8207H47.0993C46.9763 67.4589 48.217 70.0381 48.1521 70.183H4.46206C4.18754 70.183 3.93369 70.185 3.69755 70.187C3.50667 70.189 3.32366 70.19 3.14754 70.19C1.8468 70.19 0.956347 70.1051 0.383705 69.3266C-0.34538 68.3373 0.0678666 66.9533 0.75366 64.6599L6.24099 46.283C6.24394 46.276 6.24492 46.269 6.24788 46.262C7.55649 42.156 10.1639 41.4005 13.1826 40.5261C13.5919 40.4082 14.014 40.2853 14.4508 40.1504C14.4548 40.1494 14.4577 40.1484 14.4607 40.1474C14.4616 40.1474 14.4616 40.1474 14.4616 40.1474L22.5131 37.6662C19.8152 35.2119 17.7411 32.0222 16.8624 28.8584C15.9297 28.6406 14.9949 28.111 14.2353 27.3485C13.2583 26.3692 12.6994 25.1331 12.6994 23.9589V22.467C12.6994 21.2938 13.4433 20.2965 14.4764 19.9288C14.4233 19.707 14.3918 19.4761 14.3918 19.2383V17.6174C14.3918 16.3953 15.1415 15.3481 16.1973 14.9234C16.6155 12.2103 17.6928 9.64413 19.3478 7.45669C21.0274 5.23627 23.2274 3.49251 25.7364 2.3883C26.2618 0.993292 27.5921 0 29.1477 0H35.1673C36.7288 0 38.0639 1.00329 38.5815 2.40928C43.6566 4.66068 47.2095 9.34434 48.0675 14.8834C49.1813 15.2791 49.9832 16.3533 49.9832 17.6174V19.2383C49.9832 19.4491 49.9596 19.655 49.9172 19.8529C51.0793 20.1377 51.9471 21.1999 51.9471 22.467V23.9589C51.9471 25.1331 51.3872 26.3702 50.4092 27.3505C49.6201 28.143 48.6421 28.6816 47.6739 28.8824C46.7943 32.0362 44.7221 35.2169 42.0321 37.6672L49.3377 39.9216C49.7716 40.0545 50.2075 40.1814 50.6286 40.3033C53.5046 41.1357 56.4692 41.9961 57.951 45.3077C58.8119 45.0029 55.7942 46.38 55.8601 46.341ZM22.2228 67.8207H42.0134V64.3981L22.2218 64.3871V67.8207H22.2228ZM22.2228 62.0258L42.0134 62.0368V60.424C42.0134 60.324 41.9298 60.2371 41.8324 60.2371H22.4039C22.3074 60.2371 22.2228 60.324 22.2228 60.424V62.0258ZM13.6371 42.8515C10.8969 43.6459 9.36986 44.1436 8.46268 46.9805L2.97929 65.3454C2.77365 66.035 2.42042 67.2161 2.33974 67.8067C2.66739 67.8337 3.19575 67.8297 3.67886 67.8247C3.91992 67.8227 4.18164 67.8207 4.46304 67.8207H13.6381V42.8515H13.6371ZM48.7749 25.6707C49.3052 25.1391 49.6221 24.4985 49.6221 23.9589V22.467C49.6221 22.2851 49.4765 22.1372 49.2974 22.1372H48.1787L48.1393 25.6987C48.1393 25.8616 48.1334 26.0255 48.1265 26.1883C48.3518 26.0464 48.5732 25.8736 48.7749 25.6707ZM32.1358 44.6702C36.6176 44.6702 40.5749 42.7106 41.7733 40.0555L39.7829 39.4419C38.6956 40.1754 37.5464 40.7859 36.3637 41.2336C34.8918 41.7902 33.5822 42.069 32.2736 42.069C30.9718 42.069 29.6701 41.7942 28.209 41.2426C27.0175 40.7939 25.8594 40.1804 24.7653 39.4419L22.5318 40.1304C23.7548 42.7775 27.6334 44.6702 32.1358 44.6702ZM16.4029 25.6857L16.3665 22.1382H15.3501C15.1701 22.1382 15.0245 22.2851 15.0245 22.468V23.9599C15.0245 24.4995 15.3413 25.1401 15.8706 25.6707C16.0418 25.8416 16.2248 25.9895 16.4147 26.1184C16.4088 25.9735 16.4029 25.8296 16.4029 25.6857ZM36.4867 3.70436C36.4867 2.96289 35.8944 2.36132 35.1673 2.36132H29.1477C28.4176 2.36132 27.8233 2.96389 27.8233 3.70436V8.07025C27.8233 8.80872 28.4176 9.4093 29.1477 9.4093H35.1673C35.8944 9.4093 36.4867 8.80872 36.4867 8.07025V3.70436ZM38.8117 5.15633V8.07125C38.8117 10.1118 37.1774 11.7716 35.1673 11.7716H29.1477C27.1355 11.7716 25.4983 10.1108 25.4983 8.07125V5.13334C21.9119 7.12692 19.3872 10.6194 18.5931 14.7185H45.6795C44.8884 10.6404 42.3794 7.1569 38.8117 5.15633ZM45.8133 25.6857L45.8527 22.1382H34.6438C34.6379 22.1382 34.633 22.1352 34.6261 22.1352H33.4946V21.028C33.4927 21.003 33.4808 20.9821 33.4808 20.9571C33.4808 20.9321 33.4936 20.9111 33.4946 20.8861V19.7929H34.5632C34.5907 19.7909 34.6143 19.7769 34.6429 19.7769H47.1278C47.4151 19.7769 47.6572 19.5311 47.6572 19.2393V17.6174C47.6572 17.3267 47.4151 17.0808 47.1278 17.0808H47.0275H47.0265H47.0245H17.2461H17.2442H17.2432C16.9579 17.0808 16.7168 17.3267 16.7168 17.6174V19.2383C16.7168 19.5291 16.9579 19.7759 17.2432 19.7759H17.5177C17.5187 19.7759 17.5207 19.7759 17.5216 19.7759L29.3139 19.7839C29.3267 19.7839 29.3366 19.7909 29.3494 19.7919H30.4819V22.1342H29.372C29.3513 22.1352 29.3336 22.1462 29.313 22.1462H29.312L18.6915 22.1392L18.7279 25.6737C18.7279 26.2103 18.785 26.7599 18.8883 27.3165C18.9493 27.4574 18.9837 27.6123 18.9847 27.7752C18.9847 27.7762 18.9847 27.7782 18.9847 27.7802C20.0454 32.34 24.2772 37.2415 29.0148 39.0272C31.4244 39.9346 33.1345 39.9326 35.551 39.0182C41.0177 36.9517 45.8133 30.7211 45.8133 25.6857Z" fill="#2BAAE1"/>
<path fill-rule="evenodd" clip-rule="evenodd" d="M75.6478 66.7262C74.4317 71.6677 70.1841 76.2214 63.9923 79.2213C62.8322 79.7679 61.9939 79.9997 61.1773 79.9997H61.1763C60.2032 79.9997 59.3669 79.652 58.4528 79.2313C58.4459 79.2273 58.439 79.2243 58.4321 79.2213C53.7172 76.9379 50.1327 73.7532 48.1521 70.1837L47.0993 67.8214C47.18 68.0583 46.444 65.5311 46.4194 64.0271V64.0071V54.7088L46.4283 52.8821C46.4283 50.3589 47.3719 49.1138 48.4965 48.5262L50.8215 48.0445C53.2675 47.8926 54.4345 47.1951 55.6634 46.4586C55.7293 46.4197 57.5505 45.5093 57.951 45.3075C58.8119 45.0027 59.845 44.7988 61.2097 44.7988C63.9844 44.7988 65.3953 45.6422 66.7581 46.4576C68.1001 47.2601 69.3674 48.0185 72.3015 48.0715C72.3389 48.0715 72.3763 48.0745 72.4136 48.0785C74.0381 48.2674 75.9784 49.2497 75.9961 52.8611L76 64.0061C76 64.0131 76 64.0191 76 64.0261C75.9853 64.9165 75.8672 65.8239 75.6478 66.7262ZM73.675 54.7078L73.6711 52.8721C73.6632 51.2412 73.2638 50.5727 72.2001 50.4308C68.6964 50.3579 67.0405 49.3666 65.5783 48.4922C64.3347 47.7467 63.3507 47.1601 61.2107 47.1601C59.0697 47.1601 58.0878 47.7477 56.8451 48.4922C55.3849 49.3666 53.73 50.3569 50.2252 50.4308C49.1547 50.5737 48.7553 51.2432 48.7553 52.8781L48.7464 54.7128V63.9961C48.7592 64.7096 48.8556 65.4351 49.0337 66.1516C50.0806 70.4056 53.8667 74.3877 59.4249 77.0828C60.2406 77.4576 60.7119 77.6364 61.1783 77.6364C61.1783 77.6364 61.1783 77.6364 61.1792 77.6364C61.6289 77.6364 62.1917 77.4646 63.0034 77.0828C68.5557 74.3927 72.3458 70.4076 73.3927 66.1546C73.5688 65.4321 73.6642 64.7046 73.676 63.9961V54.7078H73.675ZM63.2996 74.4157C62.4406 74.8204 61.8129 74.9933 61.1901 74.9933C60.4413 74.9933 59.8224 74.7355 59.1474 74.4257C59.1405 74.4217 59.1337 74.4187 59.1268 74.4157C54.7267 72.2832 51.7041 69.0326 50.8343 65.4971C50.6749 64.8515 50.5873 64.19 50.5775 63.5335V63.5155V57.0551L50.5814 55.784C50.5814 52.8531 52.3358 52.2095 53.3817 52.0866C53.419 52.0826 53.4564 52.0796 53.4938 52.0796C55.443 52.0437 56.2449 51.563 57.1747 51.0064C58.1163 50.4428 59.1838 49.8033 61.2097 49.8033C63.2366 49.8033 64.3052 50.4428 65.2478 51.0064C66.1776 51.562 66.9804 52.0427 68.9266 52.0786C68.964 52.0786 69.0014 52.0816 69.0388 52.0856C70.0867 52.2085 71.844 52.8521 71.844 55.783L71.8489 57.0491V63.5145C71.8489 63.5205 71.8489 63.5275 71.8489 63.5335C71.839 64.169 71.7525 64.8276 71.5931 65.4901C70.7213 69.0316 67.6997 72.2822 63.2996 74.4157ZM69.5219 57.0551L69.517 55.793C69.517 54.6568 69.2316 54.4949 68.8213 54.44C66.3064 54.382 65.0657 53.6395 64.067 53.042C63.2169 52.5333 62.602 52.1656 61.2097 52.1656C59.8175 52.1656 59.2055 52.5333 58.3554 53.041C57.3567 53.6385 56.116 54.381 53.5981 54.439C53.1898 54.4949 52.9064 54.6558 52.9064 55.784L52.9015 57.0591V63.5055C52.9094 63.9772 52.9723 64.4538 53.0894 64.9225C53.79 67.7715 56.3511 70.4516 60.1166 72.2793C60.6351 72.5171 60.9283 72.631 61.1881 72.631C61.4439 72.631 61.7991 72.5191 62.3068 72.2793C66.0683 70.4555 68.6334 67.7735 69.334 64.9245C69.4511 64.4408 69.514 63.9622 69.5219 63.5045V57.0551ZM60.6046 66.6932C60.3754 66.979 60.0408 67.1269 59.7034 67.1269C59.4505 67.1269 59.1966 67.044 58.9831 66.8731L56.2803 64.7026C55.7765 64.2979 55.6899 63.5565 56.0884 63.0438C56.4859 62.5322 57.218 62.4443 57.7217 62.849L59.5292 64.2989L64.5206 58.1033C64.927 57.5987 65.659 57.5238 66.1559 57.9375C66.6528 58.3502 66.7266 59.0936 66.3202 59.5993L60.6046 66.6932Z" fill="#F6364D"/>
</svg>
