<svg width="24" height="24" viewBox="0 0 24 24" fill="none" xmlns="http://www.w3.org/2000/svg">
<path fill-rule="evenodd" clip-rule="evenodd" d="M11.998 23.996C5.382 23.996 0 18.614 0 11.998C0 5.383 5.382 0 11.998 0C18.614 0 23.996 5.383 23.996 11.998C23.996 18.614 18.614 23.996 11.998 23.996ZM11.998 2.182C6.585 2.182 2.181 6.585 2.181 11.998C2.181 17.411 6.585 21.815 11.998 21.815C17.411 21.815 21.815 17.412 21.815 11.998C21.815 6.585 17.411 2.182 11.998 2.182ZM16.652 11.126C16.269 11.126 15.894 10.971 15.624 10.7C15.354 10.43 15.198 10.055 15.198 9.672C15.198 9.289 15.353 8.914 15.624 8.644C15.895 8.373 16.27 8.218 16.652 8.218C17.035 8.218 17.41 8.374 17.68 8.644C17.95 8.914 18.106 9.289 18.106 9.672C18.106 10.055 17.95 10.43 17.68 10.7C17.41 10.971 17.034 11.126 16.652 11.126ZM16.472 14.929C16.898 15.355 16.898 16.045 16.472 16.471C15.239 17.704 13.618 18.321 11.999 18.321C10.379 18.321 8.759 17.704 7.526 16.471C7.1 16.045 7.1 15.355 7.526 14.929C7.952 14.503 8.643 14.503 9.068 14.929C10.684 16.545 13.314 16.545 14.93 14.929C15.355 14.503 16.045 14.503 16.472 14.929ZM7.344 11.126C6.961 11.126 6.586 10.971 6.316 10.7C6.045 10.43 5.89 10.054 5.89 9.672C5.89 9.289 6.045 8.914 6.316 8.644C6.587 8.373 6.961 8.218 7.344 8.218C7.727 8.218 8.102 8.374 8.372 8.644C8.643 8.914 8.798 9.289 8.798 9.672C8.798 10.054 8.643 10.43 8.372 10.7C8.102 10.971 7.727 11.126 7.344 11.126Z" fill="#5ECF54"/>
</svg>
