<svg width="24" height="24" viewBox="0 0 24 24" fill="none" xmlns="http://www.w3.org/2000/svg">
<path d="M12 0C5.37699 0 0 5.37447 0 11.9944C0 14.6199 0.841908 17.0547 2.27877 19.0295L0.785781 23.4839L5.39944 22.014C7.29654 23.2707 9.56408 24 12 24C18.6118 24 24 18.6143 24 12.0056C24 5.39691 18.623 0 12 0ZM18.9822 16.9313C18.6904 17.7504 17.5454 18.4236 16.6249 18.6255C15.9963 18.7602 15.1768 18.8612 12.4266 17.7279C8.90178 16.2693 6.63424 12.69 6.45463 12.4544C6.28625 12.2188 5.029 10.5582 5.029 8.83029C5.029 7.10238 5.90458 6.27209 6.25257 5.91304C6.54443 5.62132 7.0159 5.48668 7.47615 5.48668C7.62208 5.48668 7.75678 5.4979 7.88026 5.4979C8.23948 5.50912 8.40786 5.53156 8.64359 6.09257C8.93545 6.78822 9.64266 8.51613 9.72124 8.68443C9.81104 8.86395 9.88962 9.09958 9.77736 9.3352C9.66511 9.57083 9.56408 9.68303 9.38447 9.88499C9.20486 10.087 9.03648 10.244 8.8681 10.4684C8.69972 10.6592 8.52011 10.8611 8.72217 11.209C8.92423 11.5568 9.63143 12.7013 10.6642 13.6325C12 14.8219 13.0889 15.2034 13.4818 15.3717C13.7736 15.4951 14.1216 15.4614 14.3237 15.237C14.5931 14.9453 14.9186 14.4628 15.2666 13.9916C15.5023 13.655 15.8054 13.6101 16.131 13.7335C16.4565 13.8457 18.174 14.6985 18.522 14.8668C18.87 15.0463 19.1057 15.1248 19.1955 15.2707C19.2741 15.4165 19.2741 16.1122 18.9822 16.9313Z" fill="white"/>
</svg>
