<svg width="506" height="175" viewBox="0 0 506 175" fill="none" xmlns="http://www.w3.org/2000/svg">
<path fill-rule="evenodd" clip-rule="evenodd" d="M482.996 132.75V173.25H478.496V132.75H372.746V131.5L481.496 2H482.996V128.75H505.496V132.75H482.996ZM478.496 13L380.246 128.75H478.496V13ZM252.499 175C228.331 175 207.749 166.461 190.749 149.375C173.749 132.293 165.249 111.668 165.249 87.5C165.249 63.336 173.749 42.711 190.749 25.625C207.749 8.543 228.331 0 252.499 0C276.663 0 297.288 8.543 314.374 25.625C331.456 42.711 339.999 63.336 339.999 87.5C339.999 111.668 331.456 132.293 314.374 149.375C297.288 166.461 276.663 175 252.499 175ZM335.388 82.96L325.368 83.065C325.368 83.065 323.874 80.365 318.32 80.595C315.584 80.71 314.265 82.416 316.022 83.155C322.725 85.973 334.592 86.154 331.038 92.365C328.859 96.174 320.867 98.262 309.233 98.071C304.474 97.992 301.542 96.394 301.542 96.394C301.542 96.394 300.491 98.003 300.447 98.001C299.174 97.922 290.764 98.001 290.764 98.001L295.123 91.265C295.123 91.265 304.18 91.265 304.837 91.265C305.002 92.564 306.282 93.327 307.322 93.682C309.294 94.353 311.827 94.255 313.644 93.867C315.317 93.511 316.642 91.759 313.738 91.038C312.383 90.702 298.452 88.986 300.261 83.5C302.73 77.951 313.811 76.263 323.031 77.425C324.009 77.548 327.976 78.686 327.976 78.686L328.865 77.422L334.949 77.476C332.914 58.612 325.027 42.279 311.25 28.498C295.082 12.334 275.5 4.248 252.5 4.248C229.664 4.248 210.207 12.334 194.125 28.498C178.039 44.666 170 64.334 170 87.498C170 89.286 170.065 91.046 170.161 92.792H173.751L180.782 82.145H176.856L179.863 77.363L223.937 77.416L219.597 83.945L207.625 83.974L208.882 82.147L198.275 82.159L196.071 85.526L204.851 85.606L202.471 89.371H193.408L191.191 92.697L202.13 92.778L203.05 91.275L214.818 91.434L210.464 98.068H170.608C172.724 116.702 180.545 132.852 194.123 146.496C210.205 162.664 229.662 170.746 252.498 170.746C275.498 170.746 295.08 162.664 311.248 146.496C327.412 130.332 335.498 110.664 335.498 87.496C335.499 85.971 335.459 84.459 335.388 82.96ZM288.897 92.771L285.233 98.311L259.488 98.061L262.884 92.781L267.013 92.772L273.884 82.125H269.86L272.878 77.444C272.878 77.444 298.445 77.466 298.885 77.533C297.841 79.127 295.868 82.141 295.868 82.141L291.431 82.132L284.385 92.771H288.897ZM252.091 83.065C252.091 83.065 250.597 80.365 245.043 80.595C242.307 80.71 240.988 82.416 242.746 83.155C249.449 85.973 261.316 86.154 257.762 92.365C255.583 96.174 247.591 98.262 235.957 98.071C231.198 97.992 228.266 96.394 228.266 96.394C228.266 96.394 227.216 98.003 227.17 98.001C225.897 97.922 217.487 98.001 217.487 98.001L221.846 91.265C221.846 91.265 230.903 91.265 231.56 91.265C231.725 92.564 233.005 93.327 234.045 93.682C236.017 94.353 238.55 94.255 240.367 93.867C242.04 93.511 243.365 91.759 240.461 91.038C239.105 90.702 225.175 88.986 226.984 83.5C229.452 77.951 240.534 76.263 249.754 77.425C250.732 77.548 254.699 78.686 254.699 78.686L255.588 77.422L265.842 77.513L262.369 82.955L252.091 83.065ZM110.25 173.25H105.75V132.75H0V131.5L108.75 2H110.25V128.75H132.75V132.75H110.25V173.25ZM105.75 13L7.5 128.75H105.75V13Z" fill="#2BAAE1"/>
<path d="M349.972 24.647C348.248 23.738 346.309 22.908 344.476 21.946C346.004 20.792 347.539 19.633 349.074 18.474C349.032 18.447 348.991 18.421 348.949 18.393C348.647 18.46 348.346 18.529 348.044 18.594C346.17 19.012 344.298 19.43 342.421 19.843C340.554 20.254 340.88 20.237 339.703 19.681C338.17 18.957 336.656 18.221 335.13 17.487C335.049 17.512 334.969 17.536 334.888 17.562C335.06 18.615 335.233 19.667 335.4 20.719C335.505 21.378 335.503 21.379 334.075 21.697C332.161 22.124 330.245 22.548 328.331 22.975C328.024 23.043 327.727 23.123 327.216 23.251C327.765 23.305 328.077 23.343 328.399 23.365C330.485 23.505 332.573 23.639 334.658 23.777C335.888 23.86 335.893 23.861 335.984 24.409C336.14 25.343 336.285 26.278 336.437 27.212C336.464 27.377 336.505 27.542 336.567 27.842C338.272 26.577 339.808 25.436 341.423 24.238C344.231 24.411 347.016 24.58 349.8 24.748C349.858 24.715 349.915 24.681 349.972 24.647ZM386.675 40.19C385.009 40.303 383.342 40.418 381.675 40.532C380.432 40.618 380.43 40.617 380.356 40.053C380.238 39.153 380.125 38.253 380.011 37.35C379.939 37.349 379.867 37.349 379.795 37.348C378.727 38.316 377.667 39.283 376.591 40.244C375.765 40.983 376.035 40.918 374.411 41.033C372.778 41.148 371.148 41.258 369.517 41.37C369.254 41.387 368.992 41.404 368.729 41.423C368.702 41.455 368.674 41.487 368.646 41.519C370.18 42.096 371.714 42.672 373.24 43.244C371.975 44.473 370.592 45.619 369.404 46.779C369.459 46.793 369.514 46.807 369.569 46.821C371.801 46.011 374.035 45.2 376.287 44.382C377.896 44.971 379.425 45.53 381.124 46.152C381.102 45.891 381.096 45.749 381.078 45.606C380.976 44.807 380.869 44.008 380.771 43.208C380.713 42.739 380.717 42.736 381.701 42.372C383.37 41.756 385.043 41.142 386.713 40.523C386.971 40.428 387.216 40.321 387.652 40.144C387.204 40.165 386.942 40.171 386.675 40.19ZM303.043 14.777C301.68 14.839 301.677 14.836 301.607 14.189C301.5 13.208 301.403 12.221 301.292 11.234C301.275 11.086 301.198 10.948 301.111 10.694C299.613 11.999 298.265 13.171 296.922 14.34C296.04 15.107 296.043 15.106 294.43 15.186C293.82 15.217 293.21 15.244 292.6 15.273C290.905 15.353 289.21 15.434 287.515 15.515C287.458 15.559 287.401 15.602 287.345 15.647C287.49 15.718 287.621 15.796 287.782 15.86C289.167 16.402 290.556 16.944 291.946 17.483C292.865 17.841 292.865 17.841 292.035 18.555C290.906 19.526 289.774 20.493 288.655 21.459C288.431 21.652 288.255 21.854 287.941 22.162C288.501 21.99 288.8 21.907 289.087 21.811C290.979 21.172 292.864 20.524 294.764 19.889C296.855 19.188 296.312 19.244 297.734 19.76C299.076 20.248 300.343 20.772 301.652 21.275C301.827 21.343 302.054 21.382 302.383 21.467C302.373 21.154 302.38 20.932 302.357 20.716C302.269 19.902 302.148 19.091 302.084 18.271C302.013 17.349 301.657 17.527 303.735 16.813C305.586 16.178 307.445 15.551 309.297 14.912C309.638 14.795 309.953 14.653 310.539 14.42C309.745 14.457 309.269 14.48 308.793 14.503C306.875 14.595 304.957 14.689 303.043 14.777ZM376.073 50.493C376.029 50.479 375.985 50.467 375.941 50.454C375.645 50.583 375.342 50.706 375.054 50.842C373.622 51.511 372.197 52.185 370.762 52.852C369.946 53.232 369.932 53.232 369.254 53.051C367.839 52.671 366.433 52.288 365.022 51.907C364.964 51.933 364.906 51.961 364.848 51.985C365.147 52.812 365.439 53.641 365.746 54.466C366.011 55.176 366.03 55.068 364.716 55.691C363.444 56.295 362.161 56.89 360.884 57.492C360.587 57.63 360.291 57.768 359.995 57.909C360.001 57.943 360.006 57.977 360.012 58.012C362.198 57.72 364.384 57.43 366.707 57.122C367.111 58.15 367.517 59.186 367.97 60.34C369.195 59.014 370.034 57.803 371.19 56.532C373.394 56.231 375.626 55.929 377.858 55.626C377.896 55.587 377.935 55.55 377.973 55.51C376.465 54.999 374.762 54.624 373.13 54.108C374.109 52.907 375.091 51.7 376.073 50.493ZM151.118 65.731C151.077 65.719 151.035 65.706 150.994 65.694C150.733 65.793 150.464 65.886 150.209 65.987C148.941 66.494 147.651 66.995 146.304 67.49C145.538 67.771 145.518 67.772 144.887 67.607C143.572 67.263 142.31 66.901 141.091 66.539C141.038 66.56 140.984 66.579 140.931 66.599C141.129 67.294 141.316 67.973 141.518 68.641C141.693 69.215 141.725 69.128 140.417 69.593C139.151 70.042 137.875 70.489 136.658 70.943C136.376 71.05 136.097 71.154 135.822 71.262C135.822 71.289 135.822 71.317 135.822 71.347C137.743 71.16 139.844 70.976 142.167 70.784C142.464 71.618 142.781 72.466 143.193 73.471C144.605 72.391 145.533 71.41 146.706 70.415C148.943 70.225 151.183 70.032 153.202 69.834C153.232 69.804 153.263 69.775 153.293 69.743C151.84 69.3 150.168 68.981 148.581 68.541C149.48 67.621 150.314 66.706 151.118 65.731ZM360.968 61.504C360.929 61.485 360.891 61.468 360.852 61.45C360.572 61.533 360.287 61.611 360.014 61.7C358.658 62.148 357.308 62.603 355.949 63.046C355.176 63.299 355.164 63.298 354.568 63.04C353.325 62.503 352.089 61.962 350.851 61.425C350.796 61.443 350.741 61.458 350.686 61.476C350.88 62.292 351.066 63.109 351.267 63.926C351.44 64.629 351.468 64.53 350.222 64.947C349.017 65.353 347.803 65.752 346.592 66.153C346.311 66.246 346.031 66.339 345.75 66.433C345.752 66.465 345.754 66.498 345.756 66.532C347.758 66.536 349.759 66.54 351.887 66.547C352.157 67.567 352.428 68.592 352.73 69.738C353.959 68.646 354.83 67.613 355.993 66.564C358.012 66.563 360.057 66.562 362.102 66.562C362.14 66.531 362.179 66.5 362.217 66.468C360.902 65.795 359.397 65.224 357.971 64.531C358.969 63.527 359.969 62.515 360.968 61.504ZM205.173 21.641C206.69 20.492 208.223 19.347 209.744 18.199C209.964 18.032 210.159 17.861 210.534 17.554C209.823 17.677 209.375 17.739 208.955 17.831C206.152 18.436 203.361 19.055 200.556 19.659C198.922 20.01 198.903 20.006 197.749 19.443C195.801 18.494 193.868 17.534 191.92 16.572C191.609 16.42 191.281 16.273 190.73 16.017C190.706 16.348 190.651 16.551 190.683 16.746C190.898 18.054 191.133 19.357 191.35 20.656C191.511 21.62 191.511 21.625 189.536 22.059C186.855 22.648 184.165 23.226 181.482 23.814C181.096 23.899 180.727 24.002 179.936 24.201C184.158 24.61 188.13 24.764 192.047 25.146C192.335 26.922 192.612 28.657 192.888 30.39C192.998 30.405 193.109 30.421 193.219 30.437C195.385 28.838 197.551 27.237 199.759 25.602C203.803 25.876 207.723 26.139 211.638 26.395C211.695 26.342 211.752 26.289 211.809 26.234C209.676 25.215 207.535 24.193 205.399 23.164C204.038 22.508 204.033 22.503 205.173 21.641ZM360.938 37.009C360.996 37.023 361.054 37.039 361.112 37.053C362.98 35.882 364.848 34.711 366.753 33.517C368.994 33.817 371.168 34.109 373.342 34.399C373.395 34.36 373.449 34.318 373.502 34.279C372.653 33.449 371.801 32.619 370.955 31.786C370.416 31.257 370.416 31.254 371.406 30.625C372.724 29.785 374.049 28.949 375.369 28.11C375.56 27.988 375.739 27.863 376.073 27.639C375.614 27.718 375.33 27.753 375.052 27.814C373.196 28.214 371.342 28.623 369.486 29.02C368.405 29.251 368.395 29.248 367.941 28.8C367.174 28.041 366.421 27.279 365.659 26.521C365.537 26.399 365.403 26.283 365.182 26.079C365.041 26.329 364.932 26.479 364.876 26.626C364.501 27.613 364.139 28.597 363.768 29.584C363.493 30.314 363.491 30.317 362.181 30.605C360.402 30.993 358.621 31.375 356.842 31.764C356.585 31.82 356.332 31.892 355.798 32.025C358.087 32.42 360.331 32.62 362.456 32.998C361.943 34.354 361.44 35.681 360.938 37.009ZM250.018 13.916C248.617 14.036 248.606 14.031 248.104 13.393C247.257 12.316 246.427 11.234 245.588 10.157C245.454 9.98399 245.303 9.81499 245.057 9.52399C244.839 9.81499 244.678 9.98799 244.584 10.166C243.954 11.35 243.342 12.534 242.718 13.718C242.256 14.596 242.253 14.601 240.554 14.754C238.249 14.963 235.943 15.161 233.637 15.368C233.305 15.397 232.974 15.446 232.279 15.53C235.104 16.394 237.902 17.003 240.522 17.815C239.661 19.441 238.817 21.036 237.973 22.631C238.044 22.659 238.115 22.687 238.185 22.714C240.726 21.535 243.268 20.354 245.859 19.151C248.638 19.886 251.333 20.597 254.029 21.309C254.103 21.267 254.177 21.226 254.251 21.183C253.311 20 252.369 18.82 251.433 17.636C250.838 16.883 250.837 16.879 252.186 16.242C253.981 15.393 255.785 14.549 257.583 13.702C257.843 13.579 258.088 13.447 258.545 13.217C257.953 13.243 257.59 13.245 257.229 13.277C254.826 13.489 252.422 13.709 250.018 13.916ZM164.087 33.992C162.654 33.734 162.643 33.725 162.292 33.075C161.7 31.978 161.125 30.882 160.54 29.783C160.446 29.607 160.335 29.431 160.158 29.13C159.87 29.314 159.667 29.412 159.53 29.535C158.616 30.344 157.72 31.159 156.812 31.97C156.14 32.571 156.135 32.574 154.395 32.267C152.033 31.851 149.673 31.427 147.312 31.008C146.972 30.947 146.629 30.902 145.912 30.794C148.539 32.221 151.2 33.433 153.634 34.766C152.383 35.879 151.157 36.97 149.931 38.061C149.995 38.102 150.059 38.141 150.125 38.185C152.955 37.865 155.784 37.545 158.67 37.219C161.282 38.528 163.816 39.798 166.349 41.067C166.433 41.054 166.517 41.038 166.601 41.022C165.94 39.814 165.277 38.607 164.62 37.399C164.202 36.63 164.203 36.627 165.707 36.448C167.709 36.209 169.72 35.978 171.725 35.742C172.015 35.708 172.292 35.663 172.805 35.591C172.205 35.46 171.841 35.371 171.471 35.306C169.01 34.866 166.547 34.434 164.087 33.992ZM134.41 52.138C134.472 52.163 134.533 52.185 134.595 52.208C136.822 51.205 139.049 50.203 141.32 49.18C143.745 49.807 146.098 50.415 148.451 51.023C148.516 50.988 148.581 50.953 148.645 50.917C147.829 49.911 147.011 48.901 146.199 47.894C145.682 47.252 145.682 47.248 146.863 46.706C148.436 45.985 150.017 45.269 151.593 44.547C151.821 44.442 152.036 44.331 152.436 44.136C151.918 44.157 151.601 44.16 151.286 44.186C149.184 44.362 147.082 44.549 144.98 44.723C143.755 44.824 143.745 44.819 143.31 44.275C142.575 43.358 141.855 42.436 141.126 41.516C141.01 41.37 140.879 41.226 140.665 40.977C140.473 41.226 140.332 41.372 140.248 41.523C139.692 42.531 139.151 43.54 138.6 44.548C138.192 45.295 138.189 45.299 136.704 45.429C134.688 45.606 132.671 45.772 130.655 45.948C130.364 45.971 130.075 46.014 129.467 46.083C131.932 46.819 134.375 47.342 136.661 48.036C135.9 49.422 135.155 50.78 134.41 52.138ZM140.346 62.614C139.699 61.869 139.05 61.123 138.405 60.377C137.995 59.903 137.995 59.9 138.879 59.457C140.057 58.867 141.241 58.279 142.421 57.69C142.591 57.604 142.752 57.515 143.052 57.355C142.659 57.384 142.417 57.396 142.178 57.423C140.583 57.613 138.989 57.811 137.394 57.998C136.465 58.108 136.457 58.104 136.112 57.703C135.529 57.025 134.956 56.34 134.377 55.66C134.285 55.552 134.181 55.445 134.012 55.263C133.872 55.456 133.769 55.573 133.709 55.689C133.313 56.47 132.928 57.252 132.535 58.035C132.244 58.612 132.242 58.616 131.115 58.754C129.585 58.94 128.055 59.121 126.526 59.307C126.305 59.332 126.087 59.372 125.625 59.442C127.52 59.939 129.393 60.272 131.15 60.739C130.608 61.812 130.077 62.867 129.545 63.918C129.593 63.935 129.64 63.951 129.688 63.967C131.356 63.146 133.024 62.324 134.725 61.486C136.587 61.899 138.393 62.299 140.199 62.7C140.25 62.67 140.298 62.643 140.346 62.614Z" fill="#F6364D"/>
</svg>
