<svg width="208" height="88" viewBox="0 0 208 88" fill="none" xmlns="http://www.w3.org/2000/svg">
<path d="M8.529 32.223C9.206 32.471 9.206 32.473 8.952 32.86C8.552 33.468 8.148 34.076 7.745 34.683C7.782 34.699 7.82 34.717 7.857 34.734C9.126 34.277 10.396 33.82 11.704 33.349C13.005 33.816 14.282 34.275 15.558 34.734C15.591 34.718 15.624 34.701 15.657 34.685C15.182 33.955 14.706 33.225 14.221 32.481C15.449 31.979 16.773 31.568 18.098 31.034C17.759 31.023 17.598 31.013 17.436 31.013C16.315 31.012 15.195 31.015 14.074 31.013C13.248 31.012 13.247 31.01 12.986 30.608C12.634 30.066 12.288 29.523 11.934 28.981C11.881 28.9 11.796 28.824 11.678 28.693C11.572 28.843 11.506 28.93 11.449 29.02C11.09 29.573 10.736 30.127 10.374 30.681C10.16 31.008 10.154 31.011 9.473 31.013C8.305 31.016 7.137 31.013 5.968 31.014C5.793 31.014 5.617 31.029 5.331 31.042C5.561 31.133 5.685 31.185 5.816 31.233C6.72 31.563 7.627 31.891 8.529 32.223ZM78.349 8.12C79.243 8.326 79.243 8.329 78.984 8.857C78.576 9.687 78.163 10.517 77.752 11.347C77.802 11.363 77.852 11.378 77.902 11.393C79.43 10.617 80.958 9.84 82.533 9.04C84.249 9.424 85.931 9.8 87.613 10.176C87.652 10.15 87.691 10.125 87.73 10.099C87.014 9.253 86.299 8.408 85.569 7.546C87.038 6.72 88.642 5.991 90.228 5.107C89.799 5.148 89.594 5.162 89.39 5.187C87.977 5.363 86.564 5.544 85.15 5.718C84.109 5.847 84.106 5.844 83.714 5.379C83.184 4.752 82.661 4.122 82.128 3.494C82.048 3.4 81.928 3.317 81.759 3.171C81.649 3.378 81.58 3.498 81.522 3.619C81.158 4.373 80.8 5.129 80.431 5.884C80.213 6.331 80.206 6.335 79.348 6.446C77.875 6.635 76.401 6.815 74.928 7.002C74.707 7.03 74.488 7.076 74.129 7.137C74.434 7.215 74.599 7.262 74.771 7.302C75.963 7.574 77.158 7.845 78.349 8.12ZM11.839 41.635C10.973 41.095 9.992 40.588 9.071 40.017C9.915 39.475 10.762 38.931 11.609 38.386C11.588 38.371 11.567 38.355 11.547 38.339C11.387 38.362 11.226 38.386 11.066 38.41C10.07 38.554 9.076 38.7 8.079 38.844C7.087 38.987 7.258 38.99 6.665 38.655C5.892 38.22 5.129 37.778 4.36 37.337C4.317 37.347 4.274 37.357 4.231 37.367C4.28 37.922 4.33 38.476 4.376 39.03C4.405 39.377 4.404 39.378 3.646 39.488C2.629 39.637 1.611 39.784 0.595 39.932C0.43 39.957 0.272 39.988 0 40.034C0.285 40.083 0.447 40.115 0.614 40.139C1.699 40.292 2.785 40.443 3.869 40.594C4.509 40.684 4.511 40.685 4.538 40.974C4.584 41.466 4.623 41.959 4.666 42.45C4.674 42.538 4.688 42.624 4.709 42.783C5.649 42.19 6.496 41.656 7.387 41.094C8.848 41.292 10.297 41.487 11.745 41.682C11.777 41.666 11.808 41.651 11.839 41.635ZM144.87 27.347C146.11 27.204 147.482 27.028 148.852 26.851C149.687 27.294 150.374 27.762 151.364 28.224C151.481 27.569 151.561 27.02 151.631 26.482C153.053 26.295 154.34 26.132 155.52 25.994C155.516 25.977 155.513 25.96 155.509 25.943C155.33 25.915 155.148 25.888 154.965 25.862C154.174 25.748 153.348 25.646 152.528 25.541C151.681 25.433 151.712 25.481 151.742 25.114C151.777 24.687 151.8 24.257 151.829 23.815C151.794 23.81 151.76 23.805 151.725 23.799C151.039 24.174 150.327 24.554 149.582 24.931C149.225 25.112 149.212 25.114 148.715 25.046C147.841 24.925 147 24.792 146.171 24.653C146.004 24.626 145.831 24.605 145.661 24.58C145.638 24.593 145.614 24.606 145.591 24.618C146.201 25.097 146.822 25.537 147.483 25.971C146.586 26.44 145.622 26.848 144.806 27.302C144.825 27.319 144.847 27.333 144.87 27.347ZM18.952 47.077C18.756 47.031 18.559 46.987 18.363 46.942C17.516 46.748 16.668 46.558 15.824 46.362C14.952 46.159 14.978 46.222 15.044 45.762C15.121 45.227 15.188 44.693 15.26 44.16C15.222 44.153 15.183 44.144 15.145 44.136C14.347 44.547 13.551 44.959 12.749 45.371C12.365 45.568 12.357 45.569 11.816 45.448C10.866 45.235 9.921 45.016 8.972 44.802C8.781 44.758 8.583 44.723 8.388 44.685C8.363 44.698 8.338 44.712 8.314 44.726C9.062 45.321 9.81 45.916 10.555 46.509C9.641 47.03 8.666 47.476 7.826 47.978C7.854 47.997 7.882 48.014 7.911 48.032C9.293 47.923 10.675 47.814 12.039 47.708C12.9 48.318 13.563 48.935 14.473 49.569C14.594 48.819 14.704 48.146 14.812 47.478C16.249 47.361 17.602 47.251 18.954 47.141C18.954 47.119 18.953 47.098 18.952 47.077ZM107.326 5.244C108.124 5.612 108.122 5.616 107.39 6.185C106.239 7.079 105.086 7.969 103.936 8.856C103.977 8.882 104.018 8.906 104.06 8.931C106.381 8.268 108.704 7.602 111.1 6.913C112.641 7.605 114.153 8.282 115.664 8.958C115.729 8.934 115.793 8.91 115.857 8.887C115.797 7.814 115.737 6.738 115.678 5.638C117.984 4.9 120.352 4.292 122.838 3.498C122.336 3.482 122.101 3.468 121.858 3.468C120.168 3.464 118.474 3.468 116.785 3.463C115.541 3.46 115.54 3.457 115.511 2.859C115.472 2.053 115.443 1.242 115.402 0.431C115.396 0.309 115.336 0.195 115.279 0C114.981 0.225 114.803 0.356 114.636 0.488C113.59 1.317 112.552 2.143 111.505 2.964C110.885 3.451 110.874 3.455 109.845 3.458C108.079 3.461 106.32 3.453 104.555 3.455C104.29 3.455 104.013 3.476 103.569 3.495C103.834 3.63 103.974 3.707 104.128 3.779C105.193 4.267 106.264 4.753 107.326 5.244ZM141.977 11.861C142.243 11.926 142.387 11.964 142.538 11.997C143.579 12.224 144.624 12.447 145.664 12.676C146.445 12.847 146.446 12.849 146.219 13.301C145.862 14.01 145.501 14.72 145.142 15.429C145.186 15.442 145.229 15.454 145.273 15.467C146.608 14.797 147.944 14.127 149.321 13.437C150.82 13.755 152.29 14.065 153.761 14.376C153.795 14.354 153.829 14.333 153.863 14.31C153.238 13.594 152.612 12.878 151.975 12.147C153.259 11.434 154.66 10.804 156.046 10.043C155.671 10.08 155.492 10.093 155.314 10.116C154.079 10.273 152.844 10.436 151.609 10.592C150.699 10.707 150.697 10.705 150.354 10.311C149.891 9.779 149.434 9.245 148.968 8.714C148.898 8.635 148.794 8.565 148.646 8.441C148.55 8.618 148.49 8.721 148.439 8.824C148.121 9.47 147.808 10.115 147.485 10.76C147.294 11.142 147.289 11.147 146.539 11.245C145.252 11.414 143.964 11.575 142.676 11.743C142.482 11.766 142.291 11.806 141.977 11.861ZM132.993 8.982C133.921 8.894 133.922 8.896 133.771 9.41C133.534 10.218 133.292 11.028 133.053 11.836C133.106 11.835 133.158 11.833 133.211 11.83C134.569 10.741 135.927 9.651 137.327 8.529C139.105 8.349 140.848 8.173 142.592 7.996C142.626 7.962 142.659 7.93 142.692 7.897C141.812 7.403 140.932 6.909 140.035 6.405C141.325 5.291 142.767 4.219 144.161 3.023C143.744 3.181 143.543 3.253 143.347 3.333C141.981 3.891 140.618 4.452 139.252 5.008C138.246 5.418 138.243 5.417 137.76 5.144C137.108 4.776 136.463 4.405 135.807 4.039C135.709 3.983 135.574 3.951 135.377 3.878C135.31 4.081 135.266 4.201 135.233 4.319C135.024 5.052 134.822 5.784 134.609 6.518C134.483 6.953 134.477 6.96 133.649 7.3C132.227 7.885 130.802 8.463 129.38 9.047C129.166 9.135 128.959 9.235 128.615 9.391C128.933 9.368 129.106 9.359 129.285 9.341C130.519 9.223 131.758 9.1 132.993 8.982ZM162.788 34.477L166.97 34.485C166.97 34.485 168.83 31.656 169.814 30.16C169.399 30.098 145.301 30.077 145.301 30.077L142.456 34.47H146.249L139.772 44.462L135.88 44.471L132.679 49.426L156.945 49.661L160.398 44.461H156.146L162.788 34.477ZM188.133 33.035C193.368 32.818 194.776 35.352 194.776 35.352L204.462 35.251L207.735 30.144L198.07 30.058L197.232 31.245C197.232 31.245 193.493 30.177 192.571 30.062C183.881 28.971 173.436 30.555 171.109 35.763C169.405 40.911 182.535 42.521 183.812 42.836C186.549 43.513 185.3 45.156 183.723 45.491C182.01 45.855 179.623 45.947 177.764 45.317C176.784 44.984 175.577 44.268 175.422 43.048C174.803 43.048 166.266 43.048 166.266 43.048L162.158 49.369C162.158 49.369 170.085 49.295 171.284 49.369C171.326 49.371 172.317 47.861 172.317 47.861C172.317 47.861 175.081 49.36 179.566 49.434C190.532 49.613 198.065 47.654 200.119 44.079C203.469 38.25 192.284 38.08 185.966 35.435C184.311 34.744 185.554 33.142 188.133 33.035ZM116.9 35.437C115.243 34.744 116.487 33.142 119.065 33.035C124.3 32.818 125.708 35.352 125.708 35.352L135.394 35.251L138.667 30.144L129.002 30.058L128.164 31.245C128.164 31.245 124.425 30.177 123.503 30.062C114.813 28.971 104.368 30.555 102.041 35.763C100.336 40.911 113.467 42.521 114.744 42.836C117.481 43.513 116.232 45.156 114.655 45.491C112.942 45.855 110.554 45.947 108.696 45.317C107.716 44.984 106.509 44.268 106.354 43.048C105.735 43.048 97.198 43.048 97.198 43.048L93.09 49.369C93.09 49.369 101.017 49.295 102.217 49.369C102.259 49.371 103.25 47.861 103.25 47.861C103.25 47.861 106.014 49.36 110.499 49.434C121.465 49.613 128.998 47.654 131.052 44.079C134.402 38.252 123.218 38.082 116.9 35.437ZM78.617 44.471L68.306 44.395L70.396 41.274H78.938L81.181 37.74L72.905 37.665L74.982 34.506L84.98 34.494L83.795 36.209L95.079 36.182L99.169 30.054L57.627 30.004L54.792 34.492H58.493L51.866 44.484H48.255L45.019 49.437H86.472L90.576 43.211L79.484 43.062L78.617 44.471ZM29.813 22.027C28.913 22.022 28.911 22.021 28.888 21.613C28.851 20.961 28.818 20.31 28.784 19.656C28.732 19.651 28.681 19.647 28.629 19.643C27.807 20.281 26.993 20.918 26.165 21.551C25.53 22.037 25.728 22.005 24.551 22.001C23.368 21.997 22.188 21.99 21.006 21.984C20.816 21.983 20.626 21.982 20.436 21.981C20.415 22.003 20.393 22.024 20.371 22.046C21.445 22.54 22.52 23.035 23.589 23.527C22.612 24.342 21.554 25.09 20.636 25.859C20.675 25.872 20.714 25.885 20.753 25.898C22.405 25.436 24.058 24.973 25.724 24.504C26.852 25.012 27.924 25.495 29.115 26.031C29.113 25.843 29.117 25.739 29.111 25.637C29.08 25.058 29.046 24.479 29.017 23.899C29.001 23.559 29.003 23.558 29.732 23.349C30.968 22.995 32.206 22.644 33.442 22.289C33.633 22.234 33.815 22.17 34.139 22.067C33.815 22.057 33.626 22.047 33.432 22.046C32.228 22.039 31.02 22.034 29.813 22.027ZM48.606 15.819C48.675 16.319 48.708 16.819 48.761 17.319C48.775 17.451 48.808 17.583 48.843 17.772C49.03 17.678 49.162 17.625 49.258 17.562C49.979 17.091 50.673 16.612 51.416 16.146C52.204 15.653 51.87 15.69 53.219 15.837C54.444 15.971 55.662 16.114 56.884 16.251C57.069 16.271 57.26 16.282 57.619 16.312C57.391 16.168 57.258 16.071 57.098 15.984C56.299 15.551 55.492 15.119 54.686 14.684C54.093 14.364 54.094 14.364 54.6 14.031C55.365 13.527 56.13 13.023 56.892 12.518C56.98 12.459 57.049 12.395 57.127 12.334C57.087 12.314 57.047 12.296 57.007 12.277C55.977 12.449 54.947 12.621 53.918 12.793C53.547 12.855 53.177 12.917 52.806 12.978C51.825 13.14 51.827 13.14 51.197 12.795C50.237 12.27 49.273 11.744 48.202 11.157C48.183 11.32 48.154 11.413 48.163 11.504C48.225 12.109 48.296 12.712 48.359 13.314C48.401 13.71 48.4 13.712 47.572 13.852C46.409 14.049 45.244 14.241 44.079 14.436C43.79 14.484 43.501 14.532 43.018 14.613C43.4 14.676 43.609 14.721 43.829 14.747C45.026 14.888 46.226 15.022 47.422 15.162C48.766 15.317 48.529 15.257 48.606 15.819ZM28.086 50.272C27.306 50.189 26.524 50.108 25.746 50.022C24.943 49.934 24.972 49.99 24.984 49.546C24.998 49.031 25.004 48.518 25.014 48.004C24.979 48.001 24.944 47.998 24.908 47.995C24.233 48.478 23.561 48.962 22.883 49.445C22.558 49.676 22.551 49.679 22.053 49.628C21.178 49.539 20.307 49.442 19.433 49.35C19.257 49.332 19.075 49.322 18.896 49.309C18.875 49.324 18.854 49.34 18.833 49.356C19.566 49.831 20.299 50.307 21.029 50.781C20.262 51.381 19.432 51.918 18.728 52.492C18.755 52.506 18.782 52.52 18.81 52.533C20.04 52.267 21.27 52.002 22.484 51.74C23.32 52.217 23.979 52.722 24.86 53.216C24.892 52.49 24.921 51.842 24.95 51.196C26.229 50.915 27.432 50.653 28.635 50.39C28.632 50.369 28.629 50.349 28.626 50.329C28.448 50.311 28.267 50.291 28.086 50.272ZM155.759 17.597C155.421 17.179 155.087 16.761 154.747 16.345C154.696 16.283 154.618 16.226 154.509 16.129C154.431 16.26 154.383 16.338 154.341 16.414C154.082 16.896 153.827 17.38 153.564 17.862C153.409 18.147 153.405 18.15 152.831 18.206C151.847 18.301 150.863 18.39 149.879 18.484C149.731 18.498 149.585 18.523 149.344 18.557C149.545 18.614 149.654 18.646 149.767 18.676C150.553 18.875 151.342 19.073 152.128 19.274C152.718 19.424 152.718 19.427 152.533 19.764C152.243 20.295 151.95 20.825 151.658 21.356C151.691 21.367 151.724 21.377 151.757 21.388C152.791 20.913 153.825 20.439 154.89 19.949C156.022 20.229 157.133 20.505 158.243 20.78C158.269 20.764 158.296 20.748 158.323 20.732C157.866 20.171 157.409 19.609 156.943 19.037C157.939 18.528 159.022 18.086 160.097 17.543C159.811 17.561 159.674 17.566 159.538 17.579C158.594 17.666 157.65 17.757 156.706 17.844C156.011 17.906 156.009 17.904 155.759 17.597Z" fill="#2BAAE1"/>
<path fill-rule="evenodd" clip-rule="evenodd" d="M204.291 62.211C204.071 62.087 203.781 62.024 203.42 62.024L203.193 62.055L202.942 62.133C202.869 62.149 202.803 62.187 202.746 62.251C202.709 62.256 202.673 62.324 202.636 62.454C202.636 62.657 202.709 62.801 202.855 62.885L203.435 63.065C203.702 63.097 203.885 63.132 203.984 63.174L204.368 63.236C204.519 63.236 204.689 63.26 204.878 63.307L205.301 63.354C205.385 63.354 205.486 63.38 205.607 63.433C205.926 63.479 206.198 63.57 206.423 63.706C206.669 63.806 206.92 63.954 207.176 64.152C207.725 64.538 207.999 65.163 207.999 66.028L207.968 66.285C207.968 66.384 207.958 66.458 207.937 66.504C207.937 66.624 207.924 66.711 207.898 66.762C207.898 66.845 207.872 66.958 207.82 67.098C207.632 67.614 207.221 68.063 206.589 68.443C206.328 68.626 205.925 68.774 205.381 68.889C205.161 68.935 204.895 68.975 204.581 69.005C204.267 69.037 203.972 69.052 203.695 69.052C203.303 69.052 202.982 69.04 202.731 69.017C202.48 68.993 202.285 68.969 202.147 68.942C202.008 68.916 201.85 68.877 201.673 68.826C201.066 68.7 200.572 68.476 200.191 68.153C199.888 67.914 199.626 67.562 199.407 67.098C199.224 66.639 199.133 66.262 199.133 65.965H202.536L202.552 66.254C202.578 66.353 202.643 66.446 202.748 66.535C202.92 66.739 203.237 66.84 203.697 66.84C203.911 66.84 204.131 66.773 204.356 66.637C204.46 66.574 204.536 66.453 204.583 66.27C204.583 66.093 204.507 65.963 204.356 65.879C204.183 65.776 203.791 65.664 203.18 65.543L202.858 65.496L202.521 65.433L201.995 65.371L201.368 65.222C201.201 65.176 201.074 65.133 200.988 65.094C200.902 65.055 200.825 65.019 200.757 64.988C200.746 64.983 200.689 64.948 200.584 64.886C200.422 64.814 200.228 64.665 200.004 64.441C199.555 64.034 199.33 63.427 199.33 62.62C199.33 62.172 199.412 61.773 199.577 61.424C199.742 61.076 200.001 60.786 200.357 60.557C200.713 60.328 201.16 60.149 201.698 60.021C202.236 59.893 202.812 59.83 203.423 59.83C204.009 59.83 204.539 59.879 205.015 59.979C205.486 60.047 205.875 60.174 206.183 60.36C206.758 60.72 207.161 61.119 207.391 61.557L207.485 61.815L207.579 62.12L207.634 62.62H204.497C204.494 62.446 204.426 62.31 204.291 62.211ZM202.479 76.235C202.81 76.235 203.087 76.25 203.31 76.282C203.533 76.313 203.776 76.384 204.04 76.493L204.606 76.744V73.446H207.976V85.374H204.754V84.898C204.407 85.163 204.019 85.348 203.589 85.452C203.372 85.499 203.17 85.535 202.983 85.561C202.797 85.587 202.613 85.601 202.432 85.601L202.222 85.616H202.067C201.471 85.616 200.951 85.492 200.506 85.244C200.061 84.996 199.662 84.633 199.31 84.154C198.652 83.243 198.324 82.156 198.324 80.894C198.324 80.555 198.34 80.245 198.371 79.963C198.386 79.813 198.407 79.677 198.433 79.557C198.459 79.437 198.498 79.299 198.55 79.143C198.705 78.627 198.959 78.132 199.311 77.658C200.01 76.71 201.066 76.235 202.479 76.235ZM201.889 81.864C201.951 82.134 202.062 82.377 202.223 82.591C202.471 82.961 202.821 83.146 203.271 83.146C203.613 83.146 203.94 82.961 204.253 82.591C204.566 82.221 204.723 81.666 204.723 80.926C204.723 80.29 204.583 79.745 204.304 79.292C204.201 79.104 204.057 78.956 203.873 78.847C203.689 78.737 203.468 78.683 203.209 78.683C202.774 78.683 202.43 78.893 202.176 79.312C201.922 79.732 201.796 80.269 201.796 80.927C201.796 81.28 201.827 81.592 201.889 81.864ZM194.621 68.316C194.271 68.582 193.878 68.767 193.445 68.87C193.226 68.918 193.022 68.953 192.833 68.98C192.645 69.006 192.459 69.019 192.276 69.019L192.064 69.034H191.907C191.306 69.034 190.78 68.91 190.331 68.663C189.881 68.415 189.479 68.051 189.123 67.572C188.459 66.66 188.127 65.574 188.127 64.312C188.127 63.974 188.143 63.663 188.174 63.382C188.19 63.231 188.21 63.095 188.237 62.975C188.263 62.855 188.302 62.717 188.355 62.561C188.512 62.045 188.768 61.55 189.124 61.075C189.83 60.126 190.897 59.653 192.324 59.653C192.658 59.653 192.938 59.668 193.163 59.699C193.388 59.731 193.634 59.802 193.9 59.911L194.473 60.161V56.863H197.877V68.791H194.622V68.316H194.621ZM194.166 62.712C194.061 62.524 193.917 62.376 193.731 62.265C193.545 62.156 193.322 62.101 193.061 62.101C192.622 62.101 192.274 62.311 192.018 62.73C191.762 63.15 191.634 63.688 191.634 64.344C191.634 64.699 191.665 65.011 191.728 65.282C191.791 65.553 191.903 65.795 192.065 66.009C192.316 66.379 192.669 66.564 193.124 66.564C193.469 66.564 193.8 66.38 194.116 66.009C194.432 65.638 194.59 65.084 194.59 64.344C194.589 63.71 194.448 63.165 194.166 62.712ZM186.527 62.548C186.375 62.548 186.238 62.556 186.115 62.571C185.992 62.587 185.87 62.615 185.75 62.657C185.53 62.719 185.306 62.85 185.075 63.047C184.678 63.444 184.479 64.137 184.479 65.127V68.746H181.178V60.117H184.417V60.618C184.537 60.529 184.647 60.455 184.746 60.395C184.845 60.335 184.95 60.279 185.06 60.228C185.651 60.061 186.244 59.978 186.84 59.978H187.679V62.759L187.342 62.666C186.987 62.587 186.715 62.548 186.527 62.548ZM176.199 68.379L175.477 68.746L174.928 68.871L174.403 68.958L173.643 69.021C172.759 69.021 172.106 68.883 171.682 68.606L171.125 68.152C170.984 68.017 170.866 67.868 170.772 67.707L170.607 67.34L170.513 66.887L170.482 66.441C170.482 65.273 170.895 64.511 171.721 64.151C172.144 63.968 172.727 63.805 173.47 63.659C173.893 63.57 174.466 63.484 175.187 63.401C175.454 63.37 175.608 63.344 175.65 63.323L175.752 63.291L175.846 63.221C175.877 63.18 175.914 63.068 175.956 62.886C175.956 62.782 175.931 62.674 175.881 62.566C175.831 62.456 175.763 62.367 175.677 62.296C175.591 62.225 175.378 62.167 175.038 62.12L174.669 62.135C174.601 62.135 174.512 62.179 174.402 62.268C174.162 62.436 174.041 62.685 174.041 63.019H170.833C170.833 62.612 170.914 62.216 171.076 61.83C171.144 61.653 171.25 61.474 171.394 61.294C171.538 61.115 171.73 60.926 171.971 60.728C172.222 60.483 172.635 60.282 173.21 60.125C173.785 59.969 174.389 59.891 175.022 59.891C175.346 59.891 175.643 59.901 175.912 59.922C176.181 59.943 176.42 59.978 176.629 60.024C177.068 60.086 177.45 60.22 177.774 60.422C178.38 60.808 178.765 61.209 178.927 61.626C179.052 61.871 179.134 62.157 179.17 62.486L179.186 63.158V66.777L179.217 67.512C179.217 67.653 179.243 67.775 179.296 67.879C179.4 68.103 179.589 68.327 179.861 68.551L180.245 68.809H176.339L176.199 68.379ZM175.697 65.111C175.017 65.226 174.623 65.302 174.513 65.338L174.238 65.417L173.917 65.597C173.734 65.691 173.643 65.915 173.643 66.269C173.643 66.488 173.719 66.683 173.87 66.855C174.011 67.037 174.262 67.128 174.623 67.128L174.819 67.097L175.062 67.019C175.308 66.941 175.543 66.759 175.768 66.472C175.857 66.367 175.94 66.174 176.019 65.889C176.097 65.605 176.137 65.304 176.137 64.986L175.697 65.111ZM172.249 77.596C172.425 77.83 172.575 78.151 172.699 78.557C172.751 78.76 172.79 78.977 172.816 79.206C172.842 79.436 172.855 79.694 172.855 79.98V85.326H169.5V80.362L169.484 80.104L169.438 79.768C169.438 79.653 169.402 79.546 169.329 79.448L169.135 79.198C169.104 79.136 169.024 79.086 168.894 79.049L168.513 78.971C168.13 78.971 167.844 79.114 167.655 79.4C167.466 79.687 167.372 80.052 167.372 80.494V85.325H164.018V76.664H167.271V77.031L167.527 76.86C167.765 76.709 168.034 76.598 168.334 76.527C168.634 76.457 168.942 76.421 169.258 76.421H169.864C170.376 76.421 170.77 76.471 171.044 76.57C171.433 76.702 171.835 77.043 172.249 77.596ZM165.776 68.316C165.426 68.582 165.034 68.767 164.6 68.87C164.381 68.918 164.177 68.953 163.988 68.98C163.8 69.006 163.614 69.019 163.431 69.019L163.219 69.034H163.062C162.461 69.034 161.935 68.91 161.486 68.663C161.036 68.415 160.634 68.051 160.278 67.572C159.614 66.66 159.282 65.574 159.282 64.312C159.282 63.974 159.298 63.663 159.329 63.382C159.345 63.231 159.366 63.095 159.392 62.975C159.418 62.855 159.457 62.717 159.51 62.561C159.667 62.045 159.923 61.55 160.279 61.075C160.985 60.126 162.051 59.653 163.479 59.653C163.813 59.653 164.093 59.668 164.318 59.699C164.543 59.731 164.789 59.802 165.055 59.911L165.628 60.161V56.863H169.032V68.791H165.777V68.316H165.776ZM165.321 62.712C165.216 62.524 165.071 62.376 164.886 62.265C164.7 62.156 164.477 62.101 164.216 62.101C163.777 62.101 163.429 62.311 163.173 62.73C162.917 63.15 162.789 63.688 162.789 64.344C162.789 64.699 162.82 65.011 162.883 65.282C162.946 65.553 163.058 65.795 163.22 66.009C163.471 66.379 163.824 66.564 164.279 66.564C164.624 66.564 164.955 66.38 165.271 66.009C165.587 65.638 165.745 65.084 165.745 64.344C165.745 63.71 165.603 63.165 165.321 62.712ZM161.876 77.865C162.572 78.54 162.92 79.585 162.92 81.003C162.92 82.389 162.576 83.428 161.887 84.122C161.328 84.653 160.766 85.037 160.202 85.274C159.638 85.512 158.91 85.63 158.02 85.63L157.546 85.614H157.29L157.049 85.552L156.195 85.403C155.455 85.226 154.742 84.796 154.056 84.114C153.37 83.431 153.027 82.394 153.027 81.003C153.027 79.591 153.362 78.564 154.032 77.923C154.702 77.282 155.428 76.832 156.21 76.572L157.064 76.423L157.879 76.377L158.803 76.423L159.657 76.572C160.441 76.759 161.179 77.191 161.876 77.865ZM159.457 80.761C159.457 80.662 159.447 80.574 159.426 80.495C159.426 80.313 159.392 80.13 159.325 79.948L159.139 79.464C159.077 79.323 158.986 79.186 158.867 79.05C158.717 78.826 158.414 78.714 157.959 78.714C157.56 78.714 157.247 78.831 157.02 79.066C156.953 79.139 156.87 79.267 156.772 79.449L156.578 79.981C156.516 80.168 156.485 80.332 156.485 80.473L156.47 81.005C156.47 81.755 156.581 82.305 156.804 82.654C156.959 82.873 157.127 83.032 157.308 83.131C157.489 83.24 157.707 83.295 157.96 83.295C158.364 83.295 158.666 83.178 158.868 82.944L159.14 82.561L159.326 82.06L159.427 81.482L159.458 80.974V80.761H159.457ZM154.671 63.782L154.655 63.525L154.608 63.189C154.608 63.074 154.571 62.967 154.498 62.869L154.302 62.619C154.271 62.557 154.19 62.507 154.059 62.47L153.675 62.391C153.288 62.391 152.999 62.534 152.808 62.821C152.617 63.108 152.522 63.473 152.522 63.915V68.745H149.134V60.085H152.42V60.452L152.679 60.281C152.919 60.13 153.191 60.019 153.495 59.949C153.798 59.878 154.109 59.843 154.428 59.843H155.04C155.558 59.843 155.955 59.892 156.232 59.991C156.624 60.121 157.029 60.463 157.447 61.016C157.625 61.251 157.776 61.571 157.902 61.977C157.954 62.181 157.993 62.398 158.019 62.626C158.045 62.856 158.058 63.114 158.058 63.401V68.746H154.67V63.782H154.671ZM152.179 75.461H148.584V73.445H152.179V75.461ZM144.155 68.379L143.433 68.746L142.884 68.871L142.359 68.958L141.598 69.021C140.714 69.021 140.061 68.883 139.637 68.606L139.08 68.152C138.939 68.017 138.821 67.868 138.727 67.707L138.562 67.34L138.468 66.887L138.437 66.441C138.437 65.273 138.85 64.511 139.676 64.151C140.099 63.968 140.682 63.805 141.425 63.659C141.848 63.57 142.421 63.484 143.142 63.401C143.409 63.37 143.563 63.344 143.605 63.323L143.707 63.291L143.801 63.221C143.832 63.18 143.869 63.068 143.911 62.886C143.911 62.782 143.886 62.674 143.837 62.566C143.787 62.456 143.719 62.367 143.633 62.296C143.547 62.225 143.334 62.167 142.994 62.12L142.625 62.135C142.557 62.135 142.468 62.179 142.358 62.268C142.118 62.436 141.997 62.685 141.997 63.019H138.789C138.789 62.612 138.87 62.216 139.032 61.83C139.1 61.653 139.206 61.474 139.35 61.294C139.494 61.115 139.686 60.926 139.927 60.728C140.178 60.483 140.591 60.282 141.166 60.125C141.741 59.969 142.345 59.891 142.978 59.891C143.302 59.891 143.599 59.901 143.868 59.922C144.137 59.943 144.376 59.978 144.585 60.024C145.024 60.086 145.406 60.22 145.73 60.422C146.336 60.808 146.721 61.209 146.883 61.626C147.008 61.871 147.089 62.157 147.126 62.486L147.142 63.158V66.777L147.173 67.512C147.173 67.653 147.199 67.775 147.252 67.879C147.356 68.103 147.545 68.327 147.817 68.551L148.201 68.809H144.295L144.155 68.379ZM143.652 65.111C142.972 65.226 142.578 65.302 142.468 65.338L142.193 65.417L141.872 65.597C141.689 65.691 141.598 65.915 141.598 66.269C141.598 66.488 141.674 66.683 141.825 66.855C141.966 67.037 142.217 67.128 142.578 67.128L142.774 67.097L143.017 67.019C143.263 66.941 143.498 66.759 143.723 66.472C143.812 66.367 143.895 66.174 143.974 65.889C144.052 65.605 144.092 65.304 144.092 64.986L143.652 65.111ZM139.142 79.065L139.157 79.738V83.357L139.188 84.092C139.188 84.232 139.214 84.355 139.266 84.459C139.369 84.683 139.556 84.907 139.825 85.131L140.205 85.389H136.338L136.198 84.959L135.484 85.326L134.94 85.451L134.42 85.537L133.667 85.6C132.792 85.6 132.145 85.462 131.726 85.185L131.175 84.732C131.035 84.596 130.919 84.448 130.826 84.287L130.663 83.919L130.57 83.466L130.539 83.02C130.539 81.853 130.948 81.09 131.766 80.73C132.185 80.548 132.763 80.384 133.498 80.238C133.917 80.15 134.484 80.063 135.198 79.98C135.462 79.948 135.614 79.923 135.656 79.902L135.757 79.871L135.85 79.801C135.881 79.759 135.917 79.647 135.959 79.465C135.959 79.361 135.934 79.253 135.885 79.145C135.836 79.036 135.768 78.946 135.683 78.875C135.598 78.804 135.386 78.746 135.05 78.699L134.685 78.714C134.618 78.714 134.53 78.759 134.421 78.848C134.183 79.014 134.064 79.264 134.064 79.598H130.889C130.889 79.191 130.969 78.796 131.129 78.41C131.196 78.233 131.301 78.054 131.444 77.875C131.586 77.695 131.776 77.506 132.015 77.308C132.263 77.063 132.672 76.862 133.241 76.705C133.81 76.55 134.408 76.472 135.035 76.472C135.356 76.472 135.65 76.482 135.916 76.503C136.183 76.524 136.419 76.558 136.627 76.604C137.062 76.666 137.44 76.8 137.76 77.003C138.36 77.389 138.741 77.79 138.901 78.206C139.026 78.45 139.106 78.736 139.142 79.065ZM135.703 81.692C135.03 81.806 134.639 81.882 134.531 81.917L134.259 81.996L133.941 82.176C133.76 82.27 133.669 82.494 133.669 82.848C133.669 83.067 133.744 83.263 133.894 83.434C134.034 83.616 134.282 83.708 134.639 83.708L134.833 83.677L135.074 83.599C135.317 83.522 135.55 83.338 135.773 83.052C135.861 82.947 135.944 82.754 136.021 82.47C136.099 82.185 136.138 81.885 136.138 81.566L135.703 81.692ZM135.159 68.957L134.563 68.988C133.705 68.988 133.06 68.77 132.626 68.332C132.438 68.144 132.289 67.87 132.179 67.508C132.069 67.146 132.014 66.728 132.014 66.253V62.329H130.547V59.96H132.014V57.537H135.371V59.96H137.104V62.329H135.371V65.83C135.371 66.007 135.413 66.163 135.496 66.295C135.58 66.428 135.703 66.502 135.865 66.519L136.233 66.502C136.343 66.487 136.424 66.451 136.476 66.393H137.103V68.683L135.88 68.87L135.159 68.957ZM124.783 83.2L124.985 83.279L125.272 83.293C125.484 83.293 125.66 83.223 125.8 83.082L126.048 82.863L126.196 82.605L126.32 82.254L126.452 81.629H129.728C129.728 81.973 129.635 82.423 129.448 82.981C129.262 83.539 129.042 83.953 128.788 84.224C128.581 84.464 128.37 84.659 128.155 84.81C127.94 84.96 127.661 85.109 127.316 85.251C126.972 85.394 126.644 85.495 126.334 85.553L125.084 85.615C124.307 85.615 123.627 85.511 123.042 85.301C122.457 85.094 121.965 84.765 121.567 84.317C120.77 83.488 120.371 82.389 120.371 81.018L120.418 80.268L120.565 79.447C120.808 78.645 121.269 77.941 121.947 77.337C122.273 77.054 122.736 76.811 123.337 76.605C123.937 76.399 124.572 76.297 125.239 76.297C125.513 76.297 125.78 76.312 126.039 76.344C126.298 76.375 126.567 76.429 126.847 76.507C127.338 76.632 127.747 76.827 128.073 77.093L128.485 77.429L128.819 77.812C128.99 78.015 129.158 78.299 129.324 78.664C129.443 78.935 129.534 79.205 129.596 79.473C129.658 79.742 129.689 80 129.689 80.251H126.421C126.307 79.599 126.172 79.199 126.017 79.047C125.94 78.969 125.833 78.896 125.699 78.828L125.179 78.695C124.992 78.695 124.806 78.749 124.62 78.859C124.527 78.907 124.47 78.943 124.449 78.969C124.356 79.036 124.255 79.138 124.146 79.274C123.923 79.592 123.812 80.12 123.812 80.86C123.812 81.6 123.923 82.17 124.146 82.571C124.296 82.851 124.508 83.059 124.783 83.2ZM129.058 66.519C128.917 66.847 128.73 67.15 128.497 67.429C128.264 67.707 127.941 67.993 127.529 68.285C127.22 68.499 126.724 68.679 126.039 68.825C125.689 68.903 125.337 68.962 124.984 69.004C124.631 69.046 124.274 69.067 123.913 69.067C123.207 69.067 122.582 69.007 122.039 68.887C121.767 68.834 121.506 68.762 121.254 68.667C121.003 68.573 120.776 68.462 120.572 68.331C119.85 67.862 119.333 67.339 119.019 66.76L118.776 66.182L118.627 65.611L118.517 64.376H122.226C122.226 64.553 122.215 64.691 122.195 64.79V65.08L122.273 65.323C122.32 65.521 122.486 65.73 122.771 65.952C123.056 66.174 123.481 66.284 124.046 66.284L124.383 66.269L124.752 66.215C125.029 66.141 125.245 66.049 125.399 65.937C125.553 65.824 125.63 65.636 125.63 65.37C125.63 65.026 125.45 64.773 125.089 64.612C124.728 64.45 124.171 64.276 123.419 64.089L122.627 63.917C121.754 63.761 120.936 63.445 120.172 62.971C119.764 62.726 119.458 62.374 119.254 61.912C119.05 61.45 118.948 60.879 118.948 60.196C118.948 58.951 119.398 58.029 120.297 57.43C120.658 57.221 121.086 57.033 121.583 56.867C122.007 56.758 122.516 56.656 123.112 56.562L123.818 56.546L124.171 56.531C125.687 56.531 126.776 56.809 127.438 57.367C128.099 57.925 128.547 58.581 128.783 59.337L128.877 59.799L128.94 60.682H125.442L125.426 60.181C125.426 60.124 125.395 60.041 125.332 59.931C125.285 59.879 125.253 59.843 125.238 59.822C125.175 59.755 125.099 59.678 125.011 59.595C124.786 59.402 124.415 59.306 123.897 59.306C123.427 59.306 123.079 59.402 122.854 59.595C122.65 59.736 122.548 59.915 122.548 60.134C122.548 60.347 122.645 60.52 122.838 60.65L123.144 60.791L123.819 61.002L124.156 61.08L124.509 61.142C125.199 61.257 125.811 61.395 126.344 61.557C126.621 61.646 126.881 61.74 127.124 61.842C127.367 61.944 127.604 62.057 127.834 62.182C128.817 62.682 129.308 63.613 129.308 64.973V65.387L129.23 65.825C129.215 65.968 129.157 66.201 129.058 66.519ZM124.149 27.667C124.149 27.667 108.421 23.284 82.249 29.023C56.7 34.626 43.677 33.102 36.012 29.226C27.655 25 26.407 20.394 26.723 17.105C27.018 14.031 28.648 13.591 28.648 13.591C28.648 13.591 31.378 29.512 75.982 18.62C118.167 8.32 125.343 14.937 125.343 14.937L118.168 19.409L124.149 27.667ZM32.974 80.237C33.393 80.149 33.96 80.062 34.674 79.979C34.938 79.947 35.09 79.922 35.132 79.901L35.233 79.87L35.326 79.8C35.357 79.758 35.393 79.646 35.435 79.464C35.435 79.36 35.41 79.252 35.361 79.144C35.312 79.035 35.244 78.945 35.159 78.874C35.074 78.803 34.862 78.745 34.526 78.698L34.161 78.713C34.094 78.713 34.006 78.758 33.897 78.847C33.659 79.013 33.54 79.263 33.54 79.597H30.365C30.365 79.19 30.445 78.795 30.605 78.409C30.672 78.232 30.777 78.053 30.92 77.874C31.062 77.694 31.252 77.505 31.491 77.307C31.739 77.062 32.148 76.861 32.718 76.704C33.287 76.549 33.885 76.471 34.511 76.471C34.832 76.471 35.126 76.481 35.392 76.502C35.659 76.523 35.895 76.557 36.103 76.603C36.538 76.665 36.916 76.799 37.236 77.002C37.836 77.388 38.217 77.789 38.377 78.205C38.501 78.45 38.581 78.736 38.618 79.065L38.633 79.738V83.357L38.664 84.092C38.664 84.232 38.69 84.355 38.742 84.459C38.845 84.683 39.032 84.907 39.301 85.131L39.682 85.389H35.815L35.675 84.959L34.961 85.326L34.417 85.451L33.897 85.537L33.144 85.6C32.269 85.6 31.622 85.462 31.203 85.185L30.652 84.732C30.512 84.596 30.396 84.448 30.302 84.287L30.14 83.919L30.047 83.466L30.016 83.02C30.016 81.853 30.425 81.09 31.243 80.73C31.662 80.548 32.239 80.383 32.974 80.237ZM33.37 83.434C33.51 83.616 33.758 83.708 34.115 83.708L34.309 83.677L34.55 83.599C34.793 83.522 35.026 83.338 35.249 83.052C35.337 82.947 35.42 82.754 35.497 82.47C35.574 82.185 35.613 81.885 35.613 81.566L35.178 81.692C34.505 81.806 34.114 81.882 34.006 81.917L33.734 81.996L33.415 82.176C33.234 82.27 33.143 82.494 33.143 82.848C33.145 83.067 33.22 83.263 33.37 83.434ZM40.641 65.83V68.745H30.485V56.865H40.477V59.78H34.117V61.288H39.724V64.087H34.117V65.83H40.641ZM43.701 77.032L43.957 76.861C44.195 76.71 44.464 76.599 44.764 76.528C45.064 76.458 45.372 76.422 45.688 76.422H46.294C46.806 76.422 47.2 76.472 47.474 76.571C47.862 76.7 48.263 77.042 48.677 77.595C48.853 77.829 49.003 78.15 49.127 78.556C49.179 78.759 49.217 78.976 49.244 79.205C49.27 79.435 49.283 79.693 49.283 79.979V85.325H45.929V80.361L45.913 80.103L45.867 79.767C45.867 79.652 45.831 79.545 45.758 79.447L45.564 79.197C45.533 79.135 45.453 79.085 45.323 79.048L44.943 78.97C44.56 78.97 44.274 79.113 44.085 79.399C43.896 79.686 43.802 80.051 43.802 80.493V85.324H40.448V76.663H43.701V77.032ZM47.158 60.116H50.546V68.793H47.252V68.44L46.789 68.604C46.449 68.729 46.133 68.813 45.84 68.855L45.26 68.941L44.766 68.973L44.554 68.988C44.418 68.988 44.29 68.967 44.17 68.926L43.895 68.888C43.79 68.888 43.668 68.861 43.526 68.809C43.056 68.684 42.616 68.364 42.209 67.847C42.021 67.608 41.874 67.284 41.77 66.878C41.665 66.472 41.613 65.99 41.613 65.432V60.117H45.009V65.065V65.338V65.542L45.088 65.949C45.104 66.016 45.161 66.1 45.261 66.199C45.418 66.382 45.648 66.473 45.951 66.473L46.147 66.458C46.382 66.458 46.607 66.371 46.821 66.2C46.947 66.106 47.033 65.983 47.08 65.833L47.143 65.552L47.159 65.279V64.928V60.116H47.158ZM52.24 68.746V60.117H55.479V60.618C55.599 60.529 55.709 60.455 55.808 60.395C55.907 60.335 56.012 60.279 56.122 60.228C56.713 60.061 57.306 59.978 57.902 59.978H58.741V62.759L58.404 62.666C58.048 62.588 57.776 62.549 57.588 62.549C57.436 62.549 57.299 62.557 57.176 62.572C57.053 62.588 56.931 62.616 56.811 62.658C56.591 62.72 56.367 62.851 56.136 63.048C55.739 63.445 55.54 64.138 55.54 65.128V68.747H52.24V68.746ZM50.444 79.557C50.47 79.437 50.509 79.299 50.561 79.143C50.716 78.627 50.97 78.132 51.322 77.658C52.021 76.709 53.076 76.235 54.49 76.235C54.821 76.235 55.098 76.25 55.321 76.282C55.544 76.313 55.787 76.384 56.051 76.493L56.618 76.744V73.446H59.988V85.374H56.766V84.898C56.419 85.163 56.031 85.348 55.602 85.452C55.385 85.499 55.183 85.535 54.996 85.561C54.81 85.587 54.626 85.601 54.445 85.601L54.235 85.616H54.08C53.484 85.616 52.964 85.492 52.519 85.244C52.074 84.996 51.675 84.633 51.323 84.154C50.665 83.243 50.337 82.156 50.337 80.894C50.337 80.555 50.353 80.245 50.384 79.963C50.397 79.813 50.418 79.678 50.444 79.557ZM53.899 81.864C53.961 82.134 54.072 82.377 54.233 82.591C54.481 82.961 54.831 83.146 55.281 83.146C55.622 83.146 55.95 82.961 56.263 82.591C56.576 82.221 56.733 81.666 56.733 80.926C56.733 80.29 56.593 79.745 56.314 79.292C56.21 79.104 56.067 78.956 55.883 78.847C55.699 78.737 55.478 78.683 55.219 78.683C54.784 78.683 54.44 78.893 54.186 79.312C53.932 79.732 53.806 80.269 53.806 80.927C53.806 81.28 53.837 81.592 53.899 81.864ZM60.204 61.344C60.881 60.703 61.614 60.252 62.404 59.991L63.267 59.843L64.09 59.796L65.024 59.843L65.887 59.991C66.676 60.179 67.422 60.61 68.126 61.286C68.829 61.961 69.181 63.006 69.181 64.424C69.181 65.81 68.833 66.849 68.138 67.543C67.573 68.074 67.006 68.459 66.436 68.696C65.866 68.933 65.132 69.051 64.232 69.051L63.754 69.036H63.495L63.252 68.974L62.389 68.826C61.642 68.648 60.921 68.218 60.229 67.535C59.536 66.852 59.19 65.815 59.19 64.424C59.189 63.011 59.527 61.985 60.204 61.344ZM63 66.073C63.157 66.292 63.327 66.451 63.51 66.55C63.693 66.659 63.913 66.714 64.169 66.714C64.577 66.714 64.882 66.596 65.086 66.362L65.361 65.979L65.549 65.479L65.651 64.901L65.682 64.393V64.182C65.682 64.083 65.672 63.994 65.651 63.916C65.651 63.733 65.617 63.551 65.549 63.369L65.361 62.884C65.298 62.743 65.207 62.605 65.086 62.47C64.934 62.246 64.628 62.133 64.169 62.133C63.766 62.133 63.45 62.251 63.22 62.485C63.152 62.559 63.068 62.686 62.969 62.868L62.773 63.4C62.71 63.587 62.679 63.751 62.679 63.892L62.663 64.424C62.663 65.174 62.776 65.724 63 66.073ZM70.006 73.597C70.78 73.282 71.648 73.124 72.611 73.124C72.916 73.124 73.202 73.14 73.469 73.172C73.735 73.203 73.915 73.225 74.008 73.238C74.101 73.251 74.277 73.284 74.536 73.336C75.24 73.461 75.791 73.658 76.19 73.93C77.107 74.545 77.722 75.206 78.038 75.915C78.224 76.363 78.317 77.051 78.317 77.979H74.761V77.689C74.761 77.569 74.752 77.458 74.734 77.356C74.716 77.254 74.645 77.105 74.52 76.907C74.458 76.787 74.378 76.686 74.279 76.602C74.206 76.508 74.1 76.412 73.961 76.312C73.682 76.12 73.301 76.023 72.82 76.023C72.08 76.023 71.529 76.322 71.166 76.922C70.762 77.579 70.56 78.425 70.56 79.462L70.606 80.236C70.606 80.319 70.61 80.394 70.618 80.459C70.626 80.525 70.642 80.593 70.668 80.667C70.684 80.74 70.738 80.898 70.831 81.144C70.893 81.374 70.978 81.571 71.087 81.738C71.18 81.899 71.333 82.068 71.545 82.242C71.757 82.417 71.975 82.548 72.197 82.636C72.43 82.721 72.678 82.762 72.942 82.762C73.403 82.762 73.77 82.644 74.045 82.409L74.309 82.19C74.418 82.081 74.524 81.909 74.628 81.674L74.869 80.846L74.915 80.65H78.448C78.448 80.953 78.432 81.197 78.401 81.385L78.254 81.948C78.244 82.052 78.231 82.136 78.215 82.198C78.2 82.261 78.176 82.331 78.145 82.409L77.92 82.925C77.812 83.227 77.605 83.542 77.299 83.871C77.024 84.193 76.686 84.514 76.282 84.833C75.92 85.093 75.428 85.299 74.807 85.45C74.491 85.528 74.17 85.588 73.844 85.63C73.518 85.672 73.176 85.692 72.819 85.692C71.861 85.692 71.071 85.594 70.447 85.399C69.823 85.202 69.134 84.817 68.378 84.238C67.866 83.821 67.468 83.22 67.186 82.436C66.904 81.652 66.763 80.7 66.763 79.579C66.763 77.735 67.224 76.192 68.145 74.952C68.612 74.364 69.232 73.912 70.006 73.597ZM70.45 71.881V60.085H73.689V60.374L74.042 60.21C74.329 60.101 74.578 60.022 74.787 59.976L75.328 59.858L75.877 59.827C76.614 59.827 77.256 59.938 77.802 60.159C78.348 60.381 78.805 60.748 79.171 61.258C79.845 62.118 80.183 63.204 80.183 64.517C80.183 65.143 80.103 65.722 79.944 66.256C79.784 66.791 79.539 67.278 79.207 67.718C78.875 68.159 78.414 68.501 77.823 68.745C77.75 68.771 77.637 68.807 77.485 68.851C77.333 68.895 77.179 68.936 77.023 68.973C76.699 69.046 76.348 69.108 75.972 69.16L75.101 69.113C74.881 69.082 74.63 69.011 74.348 68.902L73.869 68.683V71.881H70.45ZM74.364 66.87C74.584 67.011 74.858 67.081 75.188 67.081C75.831 67.081 76.309 66.828 76.623 66.32C76.937 65.812 77.093 65.201 77.093 64.487C77.093 63.705 76.918 63.078 76.568 62.603C76.385 62.373 76.181 62.201 75.957 62.087C75.732 61.972 75.476 61.914 75.188 61.914C74.717 61.914 74.273 62.138 73.855 62.587C73.51 62.987 73.337 63.564 73.337 64.314V64.697C73.337 65.004 73.368 65.279 73.431 65.522C73.494 65.764 73.606 66.028 73.768 66.315C73.919 66.55 74.118 66.735 74.364 66.87ZM81.807 76.751C82.433 76.533 83.132 76.423 83.903 76.423C84.343 76.423 84.725 76.445 85.048 76.486C85.372 76.528 85.668 76.598 85.937 76.697C86.485 76.853 87.016 77.199 87.529 77.737C87.736 77.946 87.959 78.368 88.197 79.003C88.508 79.863 88.663 80.759 88.663 81.692H82.444L82.584 82.411C82.646 82.604 82.747 82.782 82.887 82.943C83.099 83.24 83.443 83.388 83.92 83.388L84.339 83.342C84.432 83.316 84.558 83.24 84.715 83.115C84.873 82.99 85.006 82.795 85.115 82.529H88.516L88.377 83.186L88.33 83.343L88.151 83.662C87.985 83.954 87.789 84.209 87.561 84.429C87.421 84.575 87.147 84.773 86.738 85.023C86.433 85.211 86.024 85.354 85.511 85.453C85.257 85.5 84.995 85.536 84.723 85.562C84.451 85.588 84.168 85.602 83.873 85.602H83.384H83.182C83.115 85.602 83.048 85.602 82.98 85.602C82.923 85.591 82.882 85.587 82.856 85.587C82.711 85.587 82.563 85.565 82.413 85.524C82.154 85.492 81.831 85.375 81.443 85.172C80.842 84.952 80.271 84.521 79.727 83.875C79.215 83.187 78.958 82.23 78.958 81.006C78.958 79.635 79.393 78.53 80.262 77.691C80.666 77.282 81.181 76.969 81.807 76.751ZM85.224 79.917C85.208 79.756 85.172 79.623 85.115 79.518C85.084 79.393 85.019 79.248 84.921 79.08C84.74 78.794 84.406 78.651 83.919 78.651C83.577 78.651 83.282 78.753 83.034 78.957L82.778 79.246L82.568 79.598L82.459 79.918H85.224V79.917ZM87.665 68.871C87.409 68.919 87.143 68.954 86.869 68.981C86.594 69.007 86.308 69.02 86.01 69.02H85.516H85.312C85.244 69.02 85.176 69.02 85.108 69.02C85.05 69.009 85.009 69.004 84.982 69.004C84.836 69.004 84.687 68.983 84.535 68.942C84.273 68.911 83.947 68.794 83.554 68.591C82.948 68.371 82.37 67.939 81.821 67.293C81.303 66.606 81.045 65.649 81.045 64.425C81.045 63.054 81.484 61.95 82.362 61.11C82.77 60.704 83.29 60.391 83.923 60.173C84.556 59.954 85.261 59.845 86.041 59.845C86.485 59.845 86.871 59.866 87.198 59.907C87.524 59.949 87.824 60.019 88.096 60.118C88.65 60.274 89.186 60.621 89.704 61.158C89.913 61.368 90.138 61.789 90.379 62.425C90.693 63.285 90.849 64.181 90.849 65.113H84.567L84.708 65.833C84.771 66.026 84.873 66.203 85.014 66.365C85.229 66.662 85.576 66.81 86.057 66.81L86.48 66.763C86.574 66.737 86.701 66.661 86.86 66.537C87.019 66.411 87.154 66.217 87.264 65.951H90.7L90.559 66.608L90.512 66.764L90.332 67.084C90.165 67.377 89.966 67.632 89.736 67.85C89.595 67.997 89.318 68.193 88.905 68.444C88.596 68.629 88.182 68.772 87.665 68.871ZM87.375 63.337C87.359 63.175 87.323 63.042 87.265 62.938C87.234 62.813 87.168 62.667 87.069 62.501C86.886 62.214 86.549 62.071 86.057 62.071C85.712 62.071 85.414 62.173 85.163 62.376L84.904 62.665L84.692 63.017L84.582 63.337H87.375ZM93.015 77.197C93.134 77.109 93.243 77.035 93.341 76.974C93.44 76.914 93.543 76.858 93.652 76.806C94.237 76.639 94.824 76.556 95.414 76.556H96.245V79.338L95.911 79.244C95.559 79.166 95.29 79.126 95.104 79.126C94.954 79.126 94.818 79.135 94.696 79.15C94.574 79.166 94.454 79.194 94.335 79.236C94.118 79.298 93.895 79.429 93.667 79.627C93.274 80.022 93.077 80.716 93.077 81.706V85.325H89.808V76.696H93.015V77.197ZM95.084 69.02C94.201 69.02 93.547 68.882 93.123 68.605L92.566 68.151C92.425 68.016 92.307 67.867 92.213 67.706L92.048 67.339L91.954 66.886L91.923 66.44C91.923 65.272 92.336 64.51 93.162 64.15C93.585 63.967 94.168 63.804 94.911 63.658C95.334 63.569 95.907 63.483 96.628 63.4C96.895 63.369 97.049 63.343 97.091 63.322L97.193 63.29L97.287 63.22C97.318 63.179 97.355 63.067 97.397 62.885C97.397 62.781 97.372 62.673 97.322 62.565C97.272 62.455 97.204 62.366 97.118 62.295C97.032 62.224 96.819 62.166 96.479 62.119L96.11 62.134C96.042 62.134 95.953 62.178 95.843 62.267C95.603 62.435 95.482 62.684 95.482 63.018H92.274C92.274 62.611 92.355 62.215 92.517 61.829C92.585 61.652 92.691 61.473 92.835 61.293C92.979 61.114 93.171 60.925 93.412 60.727C93.663 60.482 94.076 60.281 94.651 60.124C95.226 59.968 95.83 59.89 96.463 59.89C96.787 59.89 97.084 59.9 97.353 59.921C97.622 59.942 97.861 59.977 98.07 60.023C98.509 60.085 98.891 60.219 99.215 60.421C99.821 60.807 100.206 61.208 100.368 61.625C100.493 61.87 100.574 62.156 100.611 62.485L100.627 63.157V66.776L100.658 67.511C100.658 67.652 100.684 67.774 100.737 67.878C100.841 68.102 101.03 68.326 101.302 68.55L101.686 68.808H97.78L97.639 68.378L96.917 68.745L96.368 68.87L95.843 68.957L95.084 69.02ZM96.26 67.097L96.503 67.019C96.749 66.941 96.984 66.759 97.209 66.472C97.298 66.367 97.381 66.174 97.46 65.889C97.538 65.605 97.578 65.304 97.578 64.986L97.139 65.11C96.46 65.225 96.065 65.301 95.955 65.337L95.68 65.416L95.359 65.596C95.176 65.69 95.085 65.914 95.085 66.268C95.085 66.487 95.161 66.682 95.312 66.854C95.453 67.036 95.704 67.127 96.065 67.127L96.26 67.097ZM98.376 74.117H101.699V76.541H103.415V78.91H101.699V82.411C101.699 82.588 101.74 82.743 101.823 82.876C101.906 83.009 102.027 83.083 102.188 83.099L102.553 83.083C102.662 83.068 102.742 83.031 102.794 82.974H103.415V85.264L102.204 85.452L101.49 85.538L100.9 85.569C100.051 85.569 99.412 85.35 98.982 84.912C98.796 84.725 98.648 84.45 98.539 84.088C98.431 83.726 98.376 83.307 98.376 82.833V78.909H96.924V76.54H98.376V74.117ZM108.155 75.461H104.56V73.445H108.155V75.461ZM108.124 85.326H104.607V76.697H108.124V85.326ZM108.095 63.189C108.095 63.074 108.058 62.967 107.985 62.869L107.789 62.619C107.757 62.557 107.677 62.507 107.546 62.47L107.162 62.391C106.775 62.391 106.486 62.534 106.295 62.821C106.104 63.108 106.009 63.473 106.009 63.915V68.745H102.621V60.085H105.907V60.452L106.166 60.281C106.406 60.13 106.679 60.019 106.982 59.949C107.285 59.878 107.596 59.843 107.915 59.843H108.526C109.044 59.843 109.441 59.892 109.718 59.991C110.11 60.121 110.515 60.463 110.933 61.016C111.111 61.251 111.262 61.571 111.388 61.977C111.44 62.181 111.479 62.398 111.505 62.626C111.531 62.856 111.544 63.114 111.544 63.401V68.746H108.156V63.782L108.14 63.525L108.095 63.189ZM110.077 75.837C110.077 75.331 110.135 74.957 110.252 74.711C110.369 74.467 110.605 74.185 110.963 73.867C111.227 73.627 111.533 73.446 111.883 73.323C112.232 73.201 112.583 73.14 112.935 73.14L113.401 73.179L113.89 73.227H114.146L114.317 73.289L115.21 73.5V75.961L114.783 75.837C114.415 75.738 114.139 75.688 113.952 75.688C113.781 75.688 113.644 75.719 113.541 75.782C113.494 75.839 113.44 75.936 113.378 76.071L113.347 76.493H115.21V78.807H113.4V85.326H110.077V78.807H108.61V76.493H110.077V75.837ZM119.522 75.461H115.927V73.445H119.522V75.461ZM119.491 85.326H115.974V76.697H119.491V85.326ZM142.4 74.117H145.723V76.541H147.439V78.91H145.723V82.411C145.723 82.588 145.764 82.743 145.847 82.876C145.93 83.009 146.051 83.083 146.212 83.099L146.577 83.083C146.685 83.068 146.766 83.031 146.818 82.974H147.439V85.264L146.228 85.452L145.514 85.538L144.924 85.569C144.075 85.569 143.436 85.35 143.006 84.912C142.82 84.725 142.672 84.45 142.563 84.088C142.455 83.726 142.4 83.307 142.4 82.833V78.909H140.948V76.54H142.4V74.117ZM152.147 85.326H148.63V76.697H152.147V85.326ZM178.317 84.99L178.247 85.506C178.247 85.818 178.167 86.137 178.006 86.46C177.928 86.616 177.826 86.776 177.699 86.94C177.572 87.104 177.421 87.265 177.245 87.422C177.11 87.547 176.688 87.679 175.979 87.82L174.978 87.999V86.076C175.429 86.076 175.783 85.949 176.042 85.694C176.083 85.658 176.135 85.545 176.197 85.358H174.978V82.301H178.317V84.99ZM189.474 85.326H186.12V73.445H189.474V85.326ZM192.304 74.117H195.627V76.541H197.343V78.91H195.627V82.411C195.627 82.588 195.668 82.743 195.751 82.876C195.834 83.009 195.955 83.083 196.116 83.099L196.481 83.083C196.59 83.068 196.67 83.031 196.722 82.974H197.343V85.264L196.132 85.452L195.418 85.538L194.828 85.569C193.979 85.569 193.34 85.35 192.91 84.912C192.724 84.725 192.576 84.45 192.467 84.088C192.358 83.726 192.304 83.307 192.304 82.833V78.909H190.852V76.54H192.304V74.117Z" fill="#F6364D"/>
<path fill-rule="evenodd" clip-rule="evenodd" d="M109.222 17.671L109.383 21.939L108.029 21.99L107.868 17.722L106.339 17.779L106.294 16.598L110.703 16.432L110.748 17.613L109.222 17.671ZM106.261 20.882L106.352 22.057L102.128 22.383L101.706 16.945L105.831 16.628L105.923 17.806L103.148 18.02L103.212 18.846L105.794 18.647L105.885 19.822L103.303 20.021L103.387 21.104L106.261 20.882ZM99.572 18.367L98.342 18.512L98.581 20.536C98.657 21.174 98.686 21.612 98.673 21.877C98.658 22.166 98.564 22.406 98.394 22.59C98.221 22.777 97.948 22.89 97.562 22.935C97.439 22.949 97.213 22.965 96.886 22.979L96.74 22.985L96.61 21.885L96.999 21.846C97.248 21.817 97.316 21.766 97.331 21.751C97.331 21.751 97.377 21.697 97.347 21.439L96.877 17.492L100.776 17.035L101.415 22.45L100.069 22.607L99.572 18.367ZM92.944 23.694C92.804 23.718 92.67 23.729 92.54 23.729C92.2 23.729 91.893 23.648 91.625 23.489C91.254 23.268 90.995 22.928 90.854 22.478L90.806 22.323L92.064 21.976L92.108 22.122C92.162 22.302 92.251 22.431 92.379 22.516C92.504 22.599 92.631 22.627 92.77 22.604C92.927 22.578 93.048 22.493 93.137 22.344C93.23 22.189 93.252 21.962 93.203 21.67C93.157 21.399 93.066 21.208 92.932 21.1C92.801 20.997 92.649 20.96 92.47 20.991C92.234 21.03 92.043 21.17 91.886 21.417L91.841 21.488L90.783 21.512L90.844 18.497L93.704 18.019L93.909 19.236L92.045 19.548L92.041 20.024C92.186 19.952 92.338 19.902 92.495 19.875C92.969 19.795 93.406 19.901 93.794 20.19C94.179 20.477 94.421 20.896 94.512 21.435C94.588 21.884 94.523 22.313 94.321 22.709C94.044 23.256 93.58 23.587 92.944 23.694ZM88.004 20.918C87.74 21.216 87.424 21.469 87.062 21.673L86.873 21.78L86.635 20.579L86.734 20.525C86.954 20.402 87.186 20.2 87.424 19.927C87.654 19.661 87.794 19.376 87.839 19.079L87.855 18.97L88.904 18.763L89.969 24.133L88.692 24.385L88.004 20.918ZM79.638 20.735L83.685 19.876L83.932 21.031L81.21 21.609L81.383 22.418L83.916 21.881L84.162 23.033L81.629 23.571L81.856 24.634L84.674 24.035L84.92 25.188L80.777 26.068L79.638 20.735ZM79.261 22.865L79.494 24.02L76.955 24.529L77.17 25.595L79.995 25.029L80.228 26.183L76.075 27.015L74.997 21.67L79.054 20.857L79.288 22.016L76.559 22.562L76.723 23.373L79.261 22.865ZM74.014 27.404L73.234 23.205L72.017 23.429L72.389 25.433C72.506 26.066 72.566 26.502 72.57 26.765C72.575 27.054 72.497 27.299 72.339 27.494C72.178 27.693 71.914 27.823 71.531 27.893C71.409 27.916 71.185 27.946 70.859 27.981L70.714 27.996L70.512 26.908L70.897 26.843C71.15 26.796 71.213 26.738 71.222 26.727C71.223 26.726 71.265 26.67 71.218 26.414L70.489 22.507L74.35 21.794L75.346 27.157L74.014 27.404ZM68.229 28.508C68.039 28.539 67.856 28.555 67.68 28.555C67.113 28.555 66.615 28.397 66.192 28.083C65.639 27.672 65.288 27.035 65.15 26.19C65.063 25.654 65.07 25.182 65.173 24.787C65.251 24.492 65.38 24.216 65.557 23.964C65.734 23.71 65.946 23.506 66.186 23.358C66.498 23.162 66.875 23.027 67.308 22.957C68.098 22.828 68.782 22.974 69.341 23.389C69.898 23.803 70.252 24.45 70.393 25.314C70.533 26.17 70.405 26.893 70.012 27.459C69.616 28.026 69.017 28.379 68.229 28.508ZM69.016 25.511C68.928 24.971 68.746 24.587 68.475 24.369C68.266 24.2 68.03 24.117 67.756 24.117C67.677 24.117 67.595 24.123 67.509 24.137C67.128 24.199 66.851 24.373 66.663 24.668C66.473 24.965 66.422 25.39 66.511 25.932C66.598 26.464 66.785 26.849 67.068 27.077C67.349 27.303 67.664 27.384 68.031 27.324C68.398 27.264 68.669 27.089 68.86 26.789C69.054 26.487 69.106 26.057 69.016 25.511ZM64.288 28.875C64.051 29.007 63.719 29.098 63.272 29.158L60.703 29.494L59.99 24.087L64.124 23.547L64.278 24.711L61.487 25.077L61.602 25.949L62.828 25.788C63.226 25.736 63.569 25.742 63.85 25.806C64.144 25.873 64.41 26.033 64.642 26.282C64.874 26.533 65.016 26.846 65.065 27.213C65.115 27.589 65.058 27.932 64.895 28.229C64.736 28.523 64.531 28.741 64.288 28.875ZM63.448 27.031C63.342 26.982 63.118 26.935 62.65 26.997L61.755 27.114L61.892 28.154L62.741 28.043C63.049 28.002 63.262 27.96 63.376 27.916C63.472 27.879 63.55 27.814 63.614 27.718C63.675 27.625 63.696 27.519 63.68 27.395C63.656 27.21 63.582 27.095 63.448 27.031ZM56.344 26.948L55.774 29.932L54.53 30.006L53.616 27.113L53.79 30.048L52.511 30.123L52.189 24.679L53.154 24.623L53.153 24.612L53.157 24.623L54.021 24.572L55.014 27.571L55.638 24.477L56.508 24.418V24.425L57.474 24.369L57.796 29.813L56.517 29.887L56.344 26.948ZM50.159 28.925L48.316 28.858L47.848 30.01L46.405 29.958L48.734 24.586L50.047 24.633L52.037 30.162L50.566 30.109L50.159 28.925ZM49.315 26.415L48.793 27.696L49.751 27.731L49.315 26.415ZM44.374 29.604L44.813 27.401L43.119 27.065L42.68 29.269L41.351 29.006L42.417 23.657L43.746 23.92L43.35 25.905L45.044 26.241L45.44 24.257L46.769 24.521L45.702 29.868L44.374 29.604Z" fill="white"/>
</svg>
