<svg width="496" height="88" viewBox="0 0 496 88" fill="none" xmlns="http://www.w3.org/2000/svg">
<circle cx="44" cy="44" r="43" stroke="#F6364D" stroke-width="2"/>
<path d="M47.8711 58H42.4395V43.1289L42.4922 40.6855L42.5801 38.0137C41.6777 38.916 41.0508 39.5078 40.6992 39.7891L37.7461 42.1621L35.127 38.8926L43.4062 32.3008H47.8711V58Z" fill="#F6364D"/>
<circle cx="248" cy="44" r="43" stroke="#F6364D" stroke-width="2"/>
<path d="M256.406 58H238.441V54.2207L244.893 47.6992C246.803 45.7422 248.051 44.3887 248.637 43.6387C249.223 42.877 249.645 42.1738 249.902 41.5293C250.16 40.8848 250.289 40.2168 250.289 39.5254C250.289 38.4941 250.002 37.7266 249.428 37.2227C248.865 36.7188 248.109 36.4668 247.16 36.4668C246.164 36.4668 245.197 36.6953 244.26 37.1523C243.322 37.6094 242.344 38.2598 241.324 39.1035L238.371 35.6055C239.637 34.5273 240.686 33.7656 241.518 33.3203C242.35 32.875 243.258 32.5352 244.242 32.3008C245.227 32.0547 246.328 31.9316 247.547 31.9316C249.152 31.9316 250.57 32.2246 251.801 32.8105C253.031 33.3965 253.986 34.2168 254.666 35.2715C255.346 36.3262 255.686 37.5332 255.686 38.8926C255.686 40.0762 255.475 41.1895 255.053 42.2324C254.643 43.2637 253.998 44.3242 253.119 45.4141C252.252 46.5039 250.717 48.0566 248.514 50.0723L245.209 53.1836V53.4297H256.406V58Z" fill="#F6364D"/>
<circle cx="452" cy="44" r="43" stroke="#DBE1EB" stroke-width="2"/>
<path d="M459.404 38.0488C459.404 39.6543 458.918 41.0195 457.945 42.1445C456.973 43.2695 455.607 44.043 453.85 44.4648V44.5703C455.924 44.8281 457.494 45.4609 458.561 46.4688C459.627 47.4648 460.16 48.8125 460.16 50.5117C460.16 52.9844 459.264 54.9121 457.471 56.2949C455.678 57.666 453.117 58.3516 449.789 58.3516C447 58.3516 444.527 57.8887 442.371 56.9629V52.3398C443.367 52.8438 444.463 53.2539 445.658 53.5703C446.854 53.8867 448.037 54.0449 449.209 54.0449C451.002 54.0449 452.326 53.7402 453.182 53.1309C454.037 52.5215 454.465 51.543 454.465 50.1953C454.465 48.9883 453.973 48.1328 452.988 47.6289C452.004 47.125 450.434 46.873 448.277 46.873H446.326V42.707H448.312C450.305 42.707 451.758 42.4492 452.672 41.9336C453.598 41.4062 454.061 40.5098 454.061 39.2441C454.061 37.2988 452.842 36.3262 450.404 36.3262C449.561 36.3262 448.699 36.4668 447.82 36.748C446.953 37.0293 445.986 37.5156 444.92 38.207L442.406 34.4629C444.75 32.7754 447.545 31.9316 450.791 31.9316C453.451 31.9316 455.549 32.4707 457.084 33.5488C458.631 34.627 459.404 36.127 459.404 38.0488Z" fill="#A0A8C1"/>
<rect x="108" y="43" width="76" height="2" fill="#F6364D"/>
<rect x="312" y="43" width="76" height="2" fill="#DBE1EB"/>
</svg>
